<svg width="56" height="56" viewBox="0 0 56 56" fill="none" xmlns="http://www.w3.org/2000/svg">
<path d="M9.79688 1.49121H45.7031C50.2903 1.49131 54.0087 5.20966 54.0088 9.79688V45.7031C54.0087 50.2903 50.2903 54.0087 45.7031 54.0088H9.79688C5.20966 54.0087 1.49131 50.2903 1.49121 45.7031V9.79688C1.49131 5.20966 5.20966 1.49131 9.79688 1.49121Z" stroke="white" stroke-width="1.98182"/>
<path d="M45.7031 1.46191H9.79721C5.19375 1.46191 1.46191 5.19375 1.46191 9.79721V45.7031C1.46191 50.3065 5.19375 54.0384 9.79721 54.0384H45.7031C50.3065 54.0384 54.0384 50.3065 54.0384 45.7031V9.79721C54.0384 5.19375 50.3065 1.46191 45.7031 1.46191Z" stroke="white" stroke-width="1.98182"/>
<path d="M12.041 7.90332H20.6973C22.8057 7.90339 24.5145 9.61228 24.5146 11.7207V20.377C24.5146 22.4854 22.8057 24.1943 20.6973 24.1943H12.041C9.93259 24.1942 8.22371 22.4854 8.22363 20.377V11.7207C8.22376 9.61231 9.93262 7.90344 12.041 7.90332Z" stroke="white" stroke-width="1.98182"/>
<path d="M20.6973 7.87402H12.0414C9.91672 7.87402 8.19434 9.59641 8.19434 11.7211V20.377C8.19434 22.5016 9.91672 24.224 12.0414 24.224H20.6973C22.8219 24.224 24.5443 22.5016 24.5443 20.377V11.7211C24.5443 9.59641 22.8219 7.87402 20.6973 7.87402Z" stroke="white" stroke-width="1.98182"/>
<path d="M22.9404 23.582L24.5273 25.1689" stroke="white" stroke-width="1.98182" stroke-linecap="round"/>
<path d="M30.6348 8.19434V13.0032" stroke="white" stroke-width="1.98182" stroke-linecap="round"/>
<path d="M46.9844 8.19434V13.0032" stroke="white" stroke-width="1.98182" stroke-linecap="round"/>
<path d="M46.9848 11.7207V20.3766C46.9848 21.3969 46.5795 22.3754 45.858 23.0969C45.1365 23.8183 44.158 24.2236 43.1377 24.2236H34.4818C33.4615 24.2236 32.483 23.8183 31.7615 23.0969C31.0401 22.3754 30.6348 21.3969 30.6348 20.3766V11.7207" stroke="white" stroke-width="1.98182"/>
<path d="M46.7451 31.4775L38.811 39.4117" stroke="white" stroke-width="1.98182" stroke-linecap="round"/>
<path d="M38.8115 39.1309V47.4662" stroke="white" stroke-width="1.98182" stroke-linecap="round"/>
<path d="M30.877 31.4775L38.8111 39.4117" stroke="white" stroke-width="1.98182" stroke-linecap="round"/>
<path d="M21.0176 31.3057C21.9451 31.3057 22.8344 31.6742 23.4902 32.3301C24.1461 32.986 24.5146 33.8752 24.5146 34.8027V35.7646C24.5146 36.6921 24.1461 37.5815 23.4902 38.2373C22.8344 38.8931 21.945 39.2617 21.0176 39.2617H8.22363V31.3057H21.0176Z" stroke="white" stroke-width="1.98182"/>
<path d="M8.51492 31.2764H21.0179C21.9531 31.2764 22.8501 31.6479 23.5115 32.3092C24.1728 32.9706 24.5443 33.8676 24.5443 34.8028V35.7646C24.5443 36.6999 24.1728 37.5969 23.5115 38.2582C22.8501 38.9195 21.9531 39.2911 21.0179 39.2911H8.51492C8.4299 39.2911 8.34836 39.2573 8.28823 39.1972C8.22811 39.1371 8.19434 39.0555 8.19434 38.9705V31.597C8.19434 31.5119 8.22811 31.4304 8.28823 31.3703C8.34836 31.3101 8.4299 31.2764 8.51492 31.2764V31.2764Z" stroke="white" stroke-width="1.98182"/>
<path d="M21.0176 39.3203C21.9451 39.3203 22.8344 39.6889 23.4902 40.3447C24.1461 41.0006 24.5146 41.8898 24.5146 42.8174V44.0996C24.5146 45.0272 24.1461 45.9164 23.4902 46.5723C22.8344 47.2281 21.9451 47.5967 21.0176 47.5967H8.22363V39.3203H21.0176Z" stroke="white" stroke-width="1.98182"/>
<path d="M8.51492 39.291H21.0179C21.9531 39.291 22.8501 39.6626 23.5115 40.3239C24.1728 40.9852 24.5443 41.8822 24.5443 42.8175V44.0998C24.5443 45.0351 24.1728 45.9321 23.5115 46.5934C22.8501 47.2548 21.9531 47.6263 21.0179 47.6263H8.51492C8.4299 47.6263 8.34836 47.5925 8.28823 47.5324C8.22811 47.4723 8.19434 47.3907 8.19434 47.3057V39.6116C8.19434 39.5266 8.22811 39.445 8.28823 39.3849C8.34836 39.3248 8.4299 39.291 8.51492 39.291V39.291Z" stroke="white" stroke-width="1.98182"/>
</svg>
