<svg width="74" height="58" viewBox="0 0 74 58" fill="none" xmlns="http://www.w3.org/2000/svg">
<path d="M43.4676 35.9999L14.5 19.3246L30.7146 9.7959L59.5 26.6544L43.4676 35.9999Z" fill="white" stroke="black" stroke-width="0.5"/>
<path d="M43.4676 31.6015L14.5 14.9262L30.7146 5.39746L59.5 22.256L43.4676 31.6015Z" fill="white" stroke="black" stroke-width="0.5"/>
<path d="M43.4676 27.204L14.5 10.5287L30.7146 1L59.5 17.8585L43.4676 27.204Z" fill="#363636" stroke="black" stroke-width="0.5"/>
<path d="M8.3745 54V51.08H1.2945V49.416L8.2345 42.56H9.6065V49.932H11.3225V51.08H9.6065V54H8.3745ZM8.3745 49.932V43.976L2.3385 49.932H8.3745ZM17.4684 54.24C16.7244 54.24 16.0524 54.1627 15.4524 54.008C14.855 53.856 14.347 53.6373 13.9284 53.352C13.5097 53.0667 13.187 52.72 12.9604 52.312C12.7364 51.904 12.6244 51.4467 12.6244 50.94C12.6244 50.5507 12.691 50.196 12.8244 49.876C12.9577 49.5533 13.1524 49.2693 13.4084 49.024C13.6644 48.7787 13.979 48.5733 14.3524 48.408C14.7284 48.2427 15.1564 48.124 15.6364 48.052C15.2204 47.988 14.8497 47.8827 14.5244 47.736C14.199 47.5893 13.923 47.4067 13.6964 47.188C13.4724 46.9693 13.3004 46.7173 13.1804 46.432C13.063 46.144 13.0044 45.8307 13.0044 45.492C13.0044 45.18 13.0537 44.8853 13.1524 44.608C13.2537 44.328 13.3977 44.0707 13.5844 43.836C13.771 43.6013 13.9977 43.3907 14.2644 43.204C14.531 43.0147 14.8324 42.8547 15.1684 42.724C15.5044 42.5933 15.8697 42.4933 16.2644 42.424C16.6617 42.3547 17.083 42.32 17.5284 42.32C18.195 42.32 18.8044 42.3973 19.3564 42.552C19.9084 42.704 20.3817 42.92 20.7764 43.2C21.1737 43.4773 21.4817 43.8107 21.7004 44.2C21.919 44.5893 22.0284 45.0187 22.0284 45.488C22.0284 45.832 21.9684 46.1467 21.8484 46.432C21.731 46.7173 21.559 46.9707 21.3324 47.192C21.1057 47.4107 20.827 47.5933 20.4964 47.74C20.1684 47.884 19.795 47.988 19.3764 48.052C19.859 48.1187 20.2857 48.2307 20.6564 48.388C21.0297 48.5427 21.343 48.74 21.5964 48.98C21.8524 49.22 22.0457 49.4987 22.1764 49.816C22.307 50.1333 22.3724 50.4867 22.3724 50.876C22.3724 51.3933 22.2577 51.86 22.0284 52.276C21.8017 52.6893 21.4764 53.0427 21.0524 53.336C20.6284 53.6267 20.1137 53.8493 19.5084 54.004C18.903 54.1613 18.223 54.24 17.4684 54.24ZM17.5044 47.616C18.0404 47.616 18.5124 47.572 18.9204 47.484C19.3284 47.396 19.671 47.2667 19.9484 47.096C20.2257 46.9227 20.435 46.7093 20.5764 46.456C20.7177 46.2027 20.7884 45.9107 20.7884 45.58C20.7884 45.244 20.715 44.9453 20.5684 44.684C20.4244 44.4227 20.2137 44.2027 19.9364 44.024C19.659 43.8427 19.3164 43.7053 18.9084 43.612C18.503 43.516 18.0404 43.468 17.5204 43.468C16.9977 43.468 16.5324 43.516 16.1244 43.612C15.7164 43.7053 15.3724 43.844 15.0924 44.028C14.8124 44.2093 14.599 44.432 14.4524 44.696C14.3057 44.9573 14.2324 45.256 14.2324 45.592C14.2324 46.2507 14.511 46.7533 15.0684 47.1C15.6257 47.444 16.4377 47.616 17.5044 47.616ZM17.5004 53.092C18.0844 53.092 18.603 53.0413 19.0564 52.94C19.5097 52.8387 19.8897 52.6893 20.1964 52.492C20.5057 52.292 20.7404 52.048 20.9004 51.76C21.0604 51.4693 21.1404 51.136 21.1404 50.76C21.1404 50.04 20.839 49.5 20.2364 49.14C19.6337 48.7773 18.7217 48.596 17.5004 48.596C16.287 48.596 15.3764 48.7747 14.7684 49.132C14.1604 49.4893 13.8564 50.0307 13.8564 50.756C13.8564 51.132 13.9364 51.4653 14.0964 51.756C14.2564 52.044 14.491 52.288 14.8004 52.488C15.1097 52.6853 15.4897 52.836 15.9404 52.94C16.3937 53.0413 16.9137 53.092 17.5004 53.092ZM27.3033 42.556H32.3913C32.7966 42.556 33.1793 42.596 33.5393 42.676C33.8993 42.7533 34.2313 42.8667 34.5353 43.016C34.8393 43.1627 35.1126 43.3413 35.3553 43.552C35.5979 43.7627 35.8033 44.0013 35.9713 44.268C36.1393 44.532 36.2686 44.8213 36.3593 45.136C36.4499 45.4507 36.4953 45.784 36.4953 46.136C36.4953 46.6667 36.3953 47.1533 36.1953 47.596C35.9953 48.036 35.7139 48.4147 35.3513 48.732C34.9913 49.0467 34.5593 49.292 34.0553 49.468C33.5539 49.644 32.9993 49.732 32.3913 49.732H28.5353V54H27.3033V42.556ZM32.3033 48.584C32.7566 48.584 33.1659 48.5267 33.5313 48.412C33.8966 48.2973 34.2073 48.1347 34.4633 47.924C34.7193 47.7107 34.9166 47.4533 35.0553 47.152C35.1939 46.8507 35.2633 46.5133 35.2633 46.14C35.2633 45.7667 35.1939 45.4307 35.0553 45.132C34.9193 44.8307 34.7233 44.5747 34.4673 44.364C34.2139 44.1507 33.9059 43.988 33.5433 43.876C33.1806 43.7613 32.7739 43.704 32.3233 43.704H28.5353V48.584H32.3033ZM37.353 48.12C37.353 47.6373 37.4437 47.2 37.625 46.808C37.809 46.416 38.0703 46.0827 38.409 45.808C38.7477 45.5307 39.157 45.3173 39.637 45.168C40.1197 45.0187 40.6583 44.944 41.253 44.944C41.8903 44.944 42.461 45.032 42.965 45.208C43.4717 45.3813 43.901 45.632 44.253 45.96C44.605 46.288 44.8743 46.6893 45.061 47.164C45.2477 47.636 45.341 48.172 45.341 48.772V54H44.149V51.54C44.0397 51.9427 43.865 52.3093 43.625 52.64C43.385 52.9707 43.093 53.2547 42.749 53.492C42.4077 53.7293 42.0223 53.9133 41.593 54.044C41.1663 54.1747 40.7117 54.24 40.229 54.24C39.757 54.24 39.3277 54.1773 38.941 54.052C38.5543 53.9267 38.2237 53.7507 37.949 53.524C37.677 53.2947 37.4663 53.02 37.317 52.7C37.1677 52.3773 37.093 52.0187 37.093 51.624C37.093 51.2293 37.1703 50.8787 37.325 50.572C37.4797 50.2627 37.705 50.0027 38.001 49.792C38.297 49.5813 38.661 49.4213 39.093 49.312C39.5277 49.2027 40.025 49.148 40.585 49.148H44.149V48.772C44.149 48.3453 44.0823 47.9627 43.949 47.624C43.8157 47.2827 43.6237 46.9947 43.373 46.76C43.1223 46.5227 42.8157 46.3413 42.453 46.216C42.093 46.0907 41.6863 46.028 41.233 46.028C40.793 46.028 40.405 46.0787 40.069 46.18C39.7357 46.2787 39.4557 46.4187 39.229 46.6C39.005 46.7813 38.8343 47.0013 38.717 47.26C38.6023 47.516 38.545 47.8027 38.545 48.12H37.353ZM40.577 50.16C39.8037 50.16 39.225 50.2787 38.841 50.516C38.4597 50.7533 38.269 51.112 38.269 51.592C38.269 51.8427 38.3197 52.068 38.421 52.268C38.5223 52.4653 38.669 52.6333 38.861 52.772C39.0557 52.908 39.293 53.012 39.573 53.084C39.853 53.156 40.1717 53.192 40.529 53.192C40.865 53.192 41.1877 53.1613 41.497 53.1C41.8063 53.036 42.0943 52.948 42.361 52.836C42.6303 52.7213 42.8743 52.584 43.093 52.424C43.3143 52.264 43.5023 52.0867 43.657 51.892C43.8143 51.6947 43.9357 51.484 44.021 51.26C44.1063 51.0333 44.149 50.7987 44.149 50.556V50.16H40.577ZM54.8833 45.18V52.64C54.8833 53.0987 54.8379 53.532 54.7473 53.94C54.6566 54.3453 54.5259 54.7187 54.3553 55.06C54.1846 55.404 53.9766 55.712 53.7313 55.984C53.4886 56.2587 53.2139 56.4907 52.9073 56.68C52.6006 56.872 52.2646 57.0187 51.8993 57.12C51.5339 57.2213 51.1459 57.272 50.7352 57.272C50.3753 57.272 50.0313 57.2333 49.7033 57.156C49.3779 57.0787 49.0739 56.968 48.7913 56.824C48.5113 56.6827 48.2566 56.5107 48.0273 56.308C47.8006 56.1053 47.6059 55.8787 47.4433 55.628C47.2833 55.3773 47.1593 55.1053 47.0713 54.812C46.9859 54.5213 46.9433 54.2147 46.9433 53.892H48.1353C48.1353 54.2253 48.2019 54.5347 48.3353 54.82C48.4686 55.1053 48.6526 55.352 48.8873 55.56C49.1219 55.7707 49.3979 55.9347 49.7153 56.052C50.0326 56.172 50.3753 56.232 50.7433 56.232C51.1833 56.232 51.5846 56.1453 51.9473 55.972C52.3099 55.7987 52.6206 55.5547 52.8793 55.24C53.1379 54.9253 53.3379 54.5467 53.4793 54.104C53.6206 53.664 53.6913 53.176 53.6913 52.64V50.892C53.5793 51.34 53.4166 51.7467 53.2033 52.112C52.9926 52.4747 52.7393 52.784 52.4433 53.04C52.1499 53.296 51.8179 53.4933 51.4473 53.632C51.0793 53.7707 50.6819 53.84 50.2552 53.84C49.8953 53.84 49.5526 53.7907 49.2273 53.692C48.9046 53.5933 48.6059 53.452 48.3313 53.268C48.0593 53.084 47.8126 52.86 47.5913 52.596C47.3726 52.332 47.1859 52.036 47.0312 51.708C46.8766 51.3773 46.7579 51.0173 46.6753 50.628C46.5926 50.236 46.5513 49.8227 46.5513 49.388C46.5513 48.9533 46.5926 48.5413 46.6753 48.152C46.7579 47.7627 46.8766 47.404 47.0312 47.076C47.1859 46.7453 47.3726 46.448 47.5913 46.184C47.8126 45.92 48.0593 45.696 48.3313 45.512C48.6059 45.328 48.9046 45.1867 49.2273 45.088C49.5526 44.9893 49.8953 44.94 50.2552 44.94C50.6846 44.94 51.0833 45.0093 51.4513 45.148C51.8219 45.2867 52.1539 45.484 52.4473 45.74C52.7406 45.9933 52.9926 46.3013 53.2033 46.664C53.4166 47.0267 53.5793 47.432 53.6913 47.88V45.18H54.8833ZM53.6913 49.388C53.6913 48.876 53.6193 48.412 53.4753 47.996C53.3313 47.5773 53.1259 47.22 52.8593 46.924C52.5926 46.628 52.2699 46.4 51.8913 46.24C51.5153 46.0773 51.0939 45.996 50.6273 45.996C50.1766 45.996 49.7726 46.0733 49.4153 46.228C49.0579 46.38 48.7553 46.6013 48.5073 46.892C48.2593 47.1827 48.0699 47.5387 47.9393 47.96C47.8086 48.3787 47.7433 48.8547 47.7433 49.388C47.7433 49.9213 47.8086 50.3987 47.9393 50.82C48.0726 51.2387 48.2633 51.5947 48.5113 51.888C48.7593 52.1787 49.0606 52.4013 49.4153 52.556C49.7726 52.708 50.1766 52.784 50.6273 52.784C51.0939 52.784 51.5153 52.704 51.8913 52.544C52.2699 52.3813 52.5926 52.152 52.8593 51.856C53.1259 51.56 53.3313 51.2027 53.4753 50.784C53.6193 50.3653 53.6913 49.9 53.6913 49.388ZM64.2854 51.168C64.1627 51.6533 63.9814 52.0867 63.7414 52.468C63.5014 52.8467 63.2134 53.168 62.8774 53.432C62.5414 53.6933 62.1614 53.8933 61.7374 54.032C61.3134 54.1707 60.8547 54.24 60.3614 54.24C59.94 54.24 59.5427 54.1893 59.1694 54.088C58.796 53.9867 58.452 53.8413 58.1374 53.652C57.8254 53.46 57.544 53.228 57.2934 52.956C57.0454 52.6813 56.8347 52.372 56.6614 52.028C56.4907 51.6813 56.3587 51.3027 56.2654 50.892C56.1747 50.4787 56.1294 50.04 56.1294 49.576C56.1294 49.112 56.1747 48.676 56.2654 48.268C56.356 47.86 56.4867 47.484 56.6574 47.14C56.828 46.796 57.036 46.488 57.2814 46.216C57.5294 45.944 57.808 45.7133 58.1174 45.524C58.4267 45.3347 58.7654 45.1907 59.1334 45.092C59.504 44.9907 59.8987 44.94 60.3174 44.94C60.912 44.94 61.4547 45.0453 61.9454 45.256C62.436 45.464 62.8574 45.7627 63.2094 46.152C63.5614 46.5387 63.8347 47.0093 64.0294 47.564C64.224 48.116 64.3214 48.736 64.3214 49.424C64.3214 49.5147 64.32 49.6067 64.3174 49.7C64.3147 49.7933 64.308 49.8933 64.2974 50H57.3334C57.368 50.4827 57.464 50.9187 57.6214 51.308C57.7787 51.6973 57.9894 52.0293 58.2534 52.304C58.5174 52.5787 58.8294 52.7893 59.1894 52.936C59.5494 53.0827 59.9494 53.156 60.3894 53.156C61.0507 53.156 61.6067 52.9893 62.0574 52.656C62.508 52.32 62.8534 51.824 63.0934 51.168H64.2854ZM63.1094 48.96C63.072 48.496 62.9787 48.0827 62.8294 47.72C62.6827 47.3547 62.4894 47.0467 62.2494 46.796C62.0094 46.5453 61.7267 46.3547 61.4014 46.224C61.076 46.0907 60.716 46.024 60.3214 46.024C59.908 46.024 59.5307 46.092 59.1894 46.228C58.848 46.364 58.5494 46.5587 58.2934 46.812C58.0374 47.0653 57.8294 47.3733 57.6694 47.736C57.5094 48.0987 57.404 48.5067 57.3534 48.96H63.1094ZM69.0278 44.94C69.5878 44.94 70.0931 45.0053 70.5438 45.136C70.9944 45.2667 71.3784 45.4533 71.6958 45.696C72.0131 45.936 72.2571 46.228 72.4278 46.572C72.6011 46.9133 72.6878 47.2947 72.6878 47.716H71.5238C71.5238 47.4547 71.4638 47.2173 71.3438 47.004C71.2264 46.7907 71.0584 46.608 70.8398 46.456C70.6238 46.304 70.3611 46.1867 70.0518 46.104C69.7451 46.0213 69.4038 45.98 69.0278 45.98C68.6784 45.98 68.3531 46.0173 68.0518 46.092C67.7531 46.164 67.4931 46.2667 67.2718 46.4C67.0531 46.5333 66.8811 46.6947 66.7558 46.884C66.6331 47.0707 66.5718 47.2787 66.5718 47.508C66.5718 47.6733 66.6038 47.8187 66.6678 47.944C66.7344 48.0667 66.8238 48.1733 66.9358 48.264C67.0504 48.3547 67.1838 48.432 67.3358 48.496C67.4904 48.56 67.6558 48.616 67.8318 48.664C68.0078 48.7093 68.1918 48.7493 68.3838 48.784C68.5784 48.8187 68.7704 48.8507 68.9598 48.88L69.5158 48.968C69.7638 49.008 70.0224 49.0533 70.2918 49.104C70.5611 49.152 70.8251 49.216 71.0838 49.296C71.3424 49.376 71.5891 49.476 71.8238 49.596C72.0584 49.716 72.2638 49.8653 72.4398 50.044C72.6158 50.2227 72.7558 50.4373 72.8598 50.688C72.9638 50.936 73.0157 51.2293 73.0157 51.568C73.0157 51.9947 72.9291 52.3733 72.7558 52.704C72.5824 53.0347 72.3304 53.3147 71.9998 53.544C71.6718 53.7707 71.2691 53.9427 70.7918 54.06C70.3171 54.18 69.7771 54.24 69.1718 54.24C68.5451 54.24 67.9878 54.176 67.4998 54.048C67.0144 53.9227 66.6051 53.74 66.2718 53.5C65.9384 53.2573 65.6838 52.96 65.5078 52.608C65.3344 52.2533 65.2478 51.8493 65.2478 51.396H66.4158C66.4158 51.684 66.4758 51.94 66.5958 52.164C66.7184 52.3853 66.8958 52.5733 67.1278 52.728C67.3624 52.8827 67.6504 53 67.9918 53.08C68.3331 53.16 68.7251 53.2 69.1678 53.2C69.5784 53.2 69.9491 53.1653 70.2798 53.096C70.6104 53.024 70.8918 52.92 71.1238 52.784C71.3584 52.648 71.5384 52.48 71.6638 52.28C71.7891 52.08 71.8518 51.852 71.8518 51.596C71.8518 51.4013 71.8171 51.232 71.7478 51.088C71.6784 50.9413 71.5824 50.8147 71.4598 50.708C71.3371 50.6013 71.1931 50.5107 71.0278 50.436C70.8624 50.3587 70.6838 50.2933 70.4918 50.24C70.2998 50.184 70.0984 50.136 69.8878 50.096C69.6771 50.056 69.4664 50.0187 69.2558 49.984L68.7078 49.892C68.4731 49.852 68.2291 49.808 67.9758 49.76C67.7224 49.712 67.4731 49.6507 67.2278 49.576C66.9824 49.5013 66.7491 49.4093 66.5278 49.3C66.3091 49.1907 66.1158 49.056 65.9478 48.896C65.7824 48.7333 65.6504 48.5413 65.5518 48.32C65.4531 48.0987 65.4038 47.8373 65.4038 47.536C65.4038 47.1413 65.4904 46.784 65.6638 46.464C65.8398 46.144 66.0864 45.872 66.4038 45.648C66.7211 45.4213 67.1024 45.2467 67.5478 45.124C67.9931 45.0013 68.4864 44.94 69.0278 44.94Z" fill="white"/>
</svg>
