<svg width="32" height="60" viewBox="0 0 32 60" fill="none" xmlns="http://www.w3.org/2000/svg">
<path d="M7.99674 7.19703e-08C8.32503 -9.83562e-05 8.64539 0.100765 8.91433 0.288894C9.18328 0.477024 9.38777 0.743305 9.50004 1.05158L14.1091 13.7185L12.3339 18.1901L11.5295 15.9815H4.46558L3.10301 19.7244C2.95795 20.1228 2.66045 20.4473 2.27596 20.6265C1.89146 20.8058 1.45146 20.825 1.05276 20.6801C0.654062 20.5351 0.329316 20.2378 0.149965 19.8536C-0.0293868 19.4693 -0.0486523 19.0297 0.0964069 18.6312L6.49504 1.05158C6.60731 0.743305 6.8118 0.477024 7.08075 0.288894C7.34969 0.100765 7.66845 -9.83562e-05 7.99674 7.19703e-08ZM5.62984 12.7852H10.3668L7.99674 6.27434L5.62984 12.7852ZM21.3793 7.23642C21.2614 6.93833 21.0566 6.68255 20.7913 6.50231C20.5261 6.32207 20.2128 6.22569 19.892 6.22569C19.5713 6.22569 19.2579 6.32207 18.9927 6.50231C18.7275 6.68255 18.5226 6.93833 18.4047 7.23642L9.83749 28.8018H9.5976C9.17345 28.8018 8.76667 28.9702 8.46675 29.2699C8.16683 29.5697 7.99834 29.9761 7.99834 30.4C7.99834 30.8239 8.16683 31.2304 8.46675 31.5301C8.76667 31.8298 9.17345 31.9981 9.5976 31.9981H10.8914C10.9127 31.9986 10.934 31.9986 10.9554 31.9981H14.3938C14.8179 31.9981 15.2247 31.8298 15.5246 31.5301C15.8245 31.2304 15.993 30.8239 15.993 30.4C15.993 29.9761 15.8245 29.5697 15.5246 29.2699C15.2247 28.9702 14.8179 28.8018 14.3938 28.8018H13.2791L14.5633 25.5704H25.2032L26.4826 28.8034H25.5886C25.1644 28.8034 24.7576 28.9718 24.4577 29.2715C24.1578 29.5712 23.9893 29.9777 23.9893 30.4016C23.9893 30.8255 24.1578 31.2319 24.4577 31.5317C24.7576 31.8314 25.1644 31.9998 25.5886 31.9998H28.8095C28.8281 32.0001 28.8468 32.0001 28.8655 31.9998H30.4007C30.8249 31.9998 31.2317 31.8314 31.5316 31.5317C31.8315 31.2319 32 30.8255 32 30.4016C32 29.9777 31.8315 29.5712 31.5316 29.2715C31.2317 28.9718 30.8249 28.8034 30.4007 28.8034H29.9242L21.3793 7.23642ZM23.9365 22.3741H15.8331L19.8904 12.1619L23.9365 22.3741Z" fill="white"/>
<path d="M3.004 56H1.772V44.56H3.004V56ZM5.70525 56H4.51325V47.18H5.70525V49.8C5.81458 49.3627 5.97325 48.968 6.18125 48.616C6.39192 48.2613 6.64392 47.96 6.93725 47.712C7.23325 47.464 7.56525 47.2733 7.93325 47.14C8.30125 47.0067 8.69725 46.94 9.12125 46.94C9.62792 46.94 10.0839 47.0347 10.4893 47.224C10.8946 47.4133 11.2386 47.6853 11.5213 48.04C11.8066 48.392 12.0253 48.82 12.1773 49.324C12.3293 49.8253 12.4053 50.3893 12.4053 51.016V56H11.2133V51.016C11.2133 50.536 11.1573 50.1107 11.0453 49.74C10.9333 49.3667 10.7693 49.0533 10.5533 48.8C10.3373 48.544 10.0693 48.3507 9.74925 48.22C9.43192 48.0893 9.06658 48.024 8.65325 48.024C8.20792 48.024 7.80392 48.1 7.44125 48.252C7.07858 48.4013 6.76792 48.6147 6.50925 48.892C6.25325 49.1693 6.05458 49.5053 5.91325 49.9C5.77458 50.292 5.70525 50.7307 5.70525 51.216V56ZM18.8688 55.956C18.2501 56.1427 17.6901 56.236 17.1888 56.236C16.3621 56.236 15.7314 55.98 15.2968 55.468C14.8648 54.956 14.6488 54.204 14.6488 53.212V48.192H13.3408V47.18H14.6488V45.148H15.8408V47.18H18.8688V48.192H15.8408V53.216C15.8408 53.8773 15.9648 54.368 16.2128 54.688C16.4608 55.008 16.8488 55.168 17.3767 55.168C17.5688 55.168 17.7861 55.148 18.0288 55.108C18.2741 55.0653 18.5541 55.0013 18.8688 54.916V55.956ZM27.6135 53.168C27.4908 53.6533 27.3095 54.0867 27.0695 54.468C26.8295 54.8467 26.5415 55.168 26.2055 55.432C25.8695 55.6933 25.4895 55.8933 25.0655 56.032C24.6415 56.1707 24.1828 56.24 23.6895 56.24C23.2682 56.24 22.8708 56.1893 22.4975 56.088C22.1242 55.9867 21.7802 55.8413 21.4655 55.652C21.1535 55.46 20.8722 55.228 20.6215 54.956C20.3735 54.6813 20.1628 54.372 19.9895 54.028C19.8188 53.6813 19.6868 53.3027 19.5935 52.892C19.5028 52.4787 19.4575 52.04 19.4575 51.576C19.4575 51.112 19.5028 50.676 19.5935 50.268C19.6842 49.86 19.8148 49.484 19.9855 49.14C20.1562 48.796 20.3642 48.488 20.6095 48.216C20.8575 47.944 21.1362 47.7133 21.4455 47.524C21.7548 47.3347 22.0935 47.1907 22.4615 47.092C22.8322 46.9907 23.2268 46.94 23.6455 46.94C24.2402 46.94 24.7828 47.0453 25.2735 47.256C25.7642 47.464 26.1855 47.7627 26.5375 48.152C26.8895 48.5387 27.1628 49.0093 27.3575 49.564C27.5522 50.116 27.6495 50.736 27.6495 51.424C27.6495 51.5147 27.6482 51.6067 27.6455 51.7C27.6428 51.7933 27.6362 51.8933 27.6255 52H20.6615C20.6962 52.4827 20.7922 52.9187 20.9495 53.308C21.1068 53.6973 21.3175 54.0293 21.5815 54.304C21.8455 54.5787 22.1575 54.7893 22.5175 54.936C22.8775 55.0827 23.2775 55.156 23.7175 55.156C24.3788 55.156 24.9348 54.9893 25.3855 54.656C25.8362 54.32 26.1815 53.824 26.4215 53.168H27.6135ZM26.4375 50.96C26.4002 50.496 26.3068 50.0827 26.1575 49.72C26.0108 49.3547 25.8175 49.0467 25.5775 48.796C25.3375 48.5453 25.0548 48.3547 24.7295 48.224C24.4042 48.0907 24.0442 48.024 23.6495 48.024C23.2362 48.024 22.8588 48.092 22.5175 48.228C22.1762 48.364 21.8775 48.5587 21.6215 48.812C21.3655 49.0653 21.1575 49.3733 20.9975 49.736C20.8375 50.0987 20.7322 50.5067 20.6815 50.96H26.4375ZM30.0999 56H28.9079V44.16H30.0999V56Z" fill="white"/>
</svg>
