<svg width="72" height="58" viewBox="0 0 72 58" fill="none" xmlns="http://www.w3.org/2000/svg">
<path d="M42.4676 35.9999L13.5 19.3246L29.7146 9.7959L58.5 26.6544L42.4676 35.9999Z" fill="white" stroke="black" stroke-width="0.5"/>
<path d="M42.4676 31.6015L13.5 14.9262L29.7146 5.39746L58.5 22.256L42.4676 31.6015Z" fill="white" stroke="black" stroke-width="0.5"/>
<path d="M42.4676 27.204L13.5 10.5287L29.7146 1L58.5 17.8585L42.4676 27.204Z" fill="#363636" stroke="black" stroke-width="0.5"/>
<path d="M1.23294 54V52.588C1.23294 52.1453 1.28894 51.756 1.40094 51.42C1.5156 51.084 1.66894 50.7893 1.86094 50.536C2.0556 50.28 2.28227 50.0613 2.54094 49.88C2.7996 49.696 3.07427 49.5373 3.36494 49.404C3.6556 49.2707 3.9556 49.156 4.26494 49.06C4.57427 48.964 4.8756 48.8773 5.16894 48.8L5.66094 48.664C5.94627 48.5867 6.22094 48.5107 6.48494 48.436C6.7516 48.3613 6.9996 48.2773 7.22894 48.184C7.46094 48.0907 7.67294 47.984 7.86494 47.864C8.05694 47.744 8.22094 47.6013 8.35694 47.436C8.49294 47.2707 8.59827 47.08 8.67294 46.864C8.75027 46.6453 8.78894 46.3907 8.78894 46.1C8.78894 45.724 8.71694 45.376 8.57294 45.056C8.4316 44.7333 8.2276 44.4547 7.96094 44.22C7.69427 43.9853 7.3716 43.8013 6.99294 43.668C6.61427 43.5347 6.19027 43.468 5.72094 43.468C5.23027 43.468 4.7876 43.5413 4.39294 43.688C3.99827 43.832 3.66227 44.0387 3.38494 44.308C3.1076 44.5747 2.89294 44.8987 2.74094 45.28C2.5916 45.6587 2.51694 46.0813 2.51694 46.548V46.772H1.28494V46.528C1.28494 45.8827 1.38894 45.3013 1.59694 44.784C1.80494 44.264 2.10227 43.8213 2.48894 43.456C2.87827 43.0907 3.35027 42.8107 3.90494 42.616C4.46227 42.4187 5.0876 42.32 5.78094 42.32C6.4476 42.32 7.0436 42.4107 7.56894 42.592C8.09427 42.7707 8.53827 43.0253 8.90094 43.356C9.2636 43.6867 9.54094 44.0827 9.73294 44.544C9.92494 45.0053 10.0209 45.5187 10.0209 46.084C10.0209 46.5213 9.96627 46.904 9.85694 47.232C9.7476 47.5573 9.59827 47.8413 9.40894 48.084C9.2196 48.3267 8.9996 48.5333 8.74894 48.704C8.49827 48.8747 8.23027 49.0213 7.94494 49.144C7.66227 49.264 7.37027 49.3667 7.06894 49.452C6.77027 49.5347 6.47827 49.612 6.19294 49.684L5.58894 49.848C5.34094 49.9093 5.09027 49.9773 4.83694 50.052C4.58627 50.124 4.34494 50.2093 4.11294 50.308C3.88094 50.4067 3.6636 50.5227 3.46094 50.656C3.25827 50.7893 3.08227 50.948 2.93294 51.132C2.7836 51.3133 2.66627 51.524 2.58094 51.764C2.4956 52.0013 2.45294 52.276 2.45294 52.588V52.852H9.98494V54H1.23294ZM11.5611 54V52.588C11.5611 52.1453 11.6171 51.756 11.7291 51.42C11.8437 51.084 11.9971 50.7893 12.1891 50.536C12.3837 50.28 12.6104 50.0613 12.8691 49.88C13.1277 49.696 13.4024 49.5373 13.6931 49.404C13.9837 49.2707 14.2837 49.156 14.5931 49.06C14.9024 48.964 15.2037 48.8773 15.4971 48.8L15.9891 48.664C16.2744 48.5867 16.5491 48.5107 16.8131 48.436C17.0797 48.3613 17.3277 48.2773 17.5571 48.184C17.7891 48.0907 18.0011 47.984 18.1931 47.864C18.3851 47.744 18.5491 47.6013 18.6851 47.436C18.8211 47.2707 18.9264 47.08 19.0011 46.864C19.0784 46.6453 19.1171 46.3907 19.1171 46.1C19.1171 45.724 19.0451 45.376 18.9011 45.056C18.7597 44.7333 18.5557 44.4547 18.2891 44.22C18.0224 43.9853 17.6997 43.8013 17.3211 43.668C16.9424 43.5347 16.5184 43.468 16.0491 43.468C15.5584 43.468 15.1157 43.5413 14.7211 43.688C14.3264 43.832 13.9904 44.0387 13.7131 44.308C13.4357 44.5747 13.2211 44.8987 13.0691 45.28C12.9197 45.6587 12.8451 46.0813 12.8451 46.548V46.772H11.6131V46.528C11.6131 45.8827 11.7171 45.3013 11.9251 44.784C12.1331 44.264 12.4304 43.8213 12.8171 43.456C13.2064 43.0907 13.6784 42.8107 14.2331 42.616C14.7904 42.4187 15.4157 42.32 16.1091 42.32C16.7757 42.32 17.3717 42.4107 17.8971 42.592C18.4224 42.7707 18.8664 43.0253 19.2291 43.356C19.5917 43.6867 19.8691 44.0827 20.0611 44.544C20.2531 45.0053 20.3491 45.5187 20.3491 46.084C20.3491 46.5213 20.2944 46.904 20.1851 47.232C20.0757 47.5573 19.9264 47.8413 19.7371 48.084C19.5477 48.3267 19.3277 48.5333 19.0771 48.704C18.8264 48.8747 18.5584 49.0213 18.2731 49.144C17.9904 49.264 17.6984 49.3667 17.3971 49.452C17.0984 49.5347 16.8064 49.612 16.5211 49.684L15.9171 49.848C15.6691 49.9093 15.4184 49.9773 15.1651 50.052C14.9144 50.124 14.6731 50.2093 14.4411 50.308C14.2091 50.4067 13.9917 50.5227 13.7891 50.656C13.5864 50.7893 13.4104 50.948 13.2611 51.132C13.1117 51.3133 12.9944 51.524 12.9091 51.764C12.8237 52.0013 12.7811 52.276 12.7811 52.588V52.852H20.3131V54H11.5611ZM25.4048 42.556H30.4928C30.8981 42.556 31.2808 42.596 31.6408 42.676C32.0008 42.7533 32.3328 42.8667 32.6368 43.016C32.9408 43.1627 33.2141 43.3413 33.4568 43.552C33.6995 43.7627 33.9048 44.0013 34.0728 44.268C34.2408 44.532 34.3701 44.8213 34.4608 45.136C34.5515 45.4507 34.5968 45.784 34.5968 46.136C34.5968 46.6667 34.4968 47.1533 34.2968 47.596C34.0968 48.036 33.8155 48.4147 33.4528 48.732C33.0928 49.0467 32.6608 49.292 32.1568 49.468C31.6555 49.644 31.1008 49.732 30.4928 49.732H26.6368V54H25.4048V42.556ZM30.4048 48.584C30.8581 48.584 31.2675 48.5267 31.6328 48.412C31.9981 48.2973 32.3088 48.1347 32.5648 47.924C32.8208 47.7107 33.0181 47.4533 33.1568 47.152C33.2955 46.8507 33.3648 46.5133 33.3648 46.14C33.3648 45.7667 33.2955 45.4307 33.1568 45.132C33.0208 44.8307 32.8248 44.5747 32.5688 44.364C32.3155 44.1507 32.0075 43.988 31.6448 43.876C31.2821 43.7613 30.8755 43.704 30.4248 43.704H26.6368V48.584H30.4048ZM35.4546 48.12C35.4546 47.6373 35.5452 47.2 35.7266 46.808C35.9106 46.416 36.1719 46.0827 36.5106 45.808C36.8492 45.5307 37.2586 45.3173 37.7386 45.168C38.2212 45.0187 38.7599 44.944 39.3546 44.944C39.9919 44.944 40.5626 45.032 41.0666 45.208C41.5732 45.3813 42.0026 45.632 42.3546 45.96C42.7066 46.288 42.9759 46.6893 43.1626 47.164C43.3492 47.636 43.4426 48.172 43.4426 48.772V54H42.2506V51.54C42.1412 51.9427 41.9666 52.3093 41.7266 52.64C41.4866 52.9707 41.1946 53.2547 40.8506 53.492C40.5092 53.7293 40.1239 53.9133 39.6946 54.044C39.2679 54.1747 38.8132 54.24 38.3306 54.24C37.8586 54.24 37.4292 54.1773 37.0426 54.052C36.6559 53.9267 36.3252 53.7507 36.0506 53.524C35.7786 53.2947 35.5679 53.02 35.4186 52.7C35.2692 52.3773 35.1946 52.0187 35.1946 51.624C35.1946 51.2293 35.2719 50.8787 35.4266 50.572C35.5812 50.2627 35.8066 50.0027 36.1026 49.792C36.3986 49.5813 36.7626 49.4213 37.1946 49.312C37.6292 49.2027 38.1266 49.148 38.6866 49.148H42.2506V48.772C42.2506 48.3453 42.1839 47.9627 42.0506 47.624C41.9172 47.2827 41.7252 46.9947 41.4746 46.76C41.2239 46.5227 40.9172 46.3413 40.5546 46.216C40.1946 46.0907 39.7879 46.028 39.3346 46.028C38.8946 46.028 38.5066 46.0787 38.1706 46.18C37.8372 46.2787 37.5572 46.4187 37.3306 46.6C37.1066 46.7813 36.9359 47.0013 36.8186 47.26C36.7039 47.516 36.6466 47.8027 36.6466 48.12H35.4546ZM38.6786 50.16C37.9052 50.16 37.3266 50.2787 36.9426 50.516C36.5612 50.7533 36.3706 51.112 36.3706 51.592C36.3706 51.8427 36.4212 52.068 36.5226 52.268C36.6239 52.4653 36.7706 52.6333 36.9626 52.772C37.1572 52.908 37.3946 53.012 37.6746 53.084C37.9546 53.156 38.2732 53.192 38.6306 53.192C38.9666 53.192 39.2892 53.1613 39.5986 53.1C39.9079 53.036 40.1959 52.948 40.4626 52.836C40.7319 52.7213 40.9759 52.584 41.1946 52.424C41.4159 52.264 41.6039 52.0867 41.7586 51.892C41.9159 51.6947 42.0372 51.484 42.1226 51.26C42.2079 51.0333 42.2506 50.7987 42.2506 50.556V50.16H38.6786ZM52.9848 45.18V52.64C52.9848 53.0987 52.9395 53.532 52.8488 53.94C52.7581 54.3453 52.6275 54.7187 52.4568 55.06C52.2861 55.404 52.0781 55.712 51.8328 55.984C51.5901 56.2587 51.3155 56.4907 51.0088 56.68C50.7021 56.872 50.3661 57.0187 50.0008 57.12C49.6355 57.2213 49.2475 57.272 48.8368 57.272C48.4768 57.272 48.1328 57.2333 47.8048 57.156C47.4795 57.0787 47.1755 56.968 46.8928 56.824C46.6128 56.6827 46.3581 56.5107 46.1288 56.308C45.9021 56.1053 45.7075 55.8787 45.5448 55.628C45.3848 55.3773 45.2608 55.1053 45.1728 54.812C45.0875 54.5213 45.0448 54.2147 45.0448 53.892H46.2368C46.2368 54.2253 46.3035 54.5347 46.4368 54.82C46.5701 55.1053 46.7541 55.352 46.9888 55.56C47.2235 55.7707 47.4995 55.9347 47.8168 56.052C48.1341 56.172 48.4768 56.232 48.8448 56.232C49.2848 56.232 49.6861 56.1453 50.0488 55.972C50.4115 55.7987 50.7221 55.5547 50.9808 55.24C51.2395 54.9253 51.4395 54.5467 51.5808 54.104C51.7221 53.664 51.7928 53.176 51.7928 52.64V50.892C51.6808 51.34 51.5181 51.7467 51.3048 52.112C51.0941 52.4747 50.8408 52.784 50.5448 53.04C50.2515 53.296 49.9195 53.4933 49.5488 53.632C49.1808 53.7707 48.7835 53.84 48.3568 53.84C47.9968 53.84 47.6541 53.7907 47.3288 53.692C47.0061 53.5933 46.7075 53.452 46.4328 53.268C46.1608 53.084 45.9141 52.86 45.6928 52.596C45.4741 52.332 45.2875 52.036 45.1328 51.708C44.9781 51.3773 44.8595 51.0173 44.7768 50.628C44.6941 50.236 44.6528 49.8227 44.6528 49.388C44.6528 48.9533 44.6941 48.5413 44.7768 48.152C44.8595 47.7627 44.9781 47.404 45.1328 47.076C45.2875 46.7453 45.4741 46.448 45.6928 46.184C45.9141 45.92 46.1608 45.696 46.4328 45.512C46.7075 45.328 47.0061 45.1867 47.3288 45.088C47.6541 44.9893 47.9968 44.94 48.3568 44.94C48.7861 44.94 49.1848 45.0093 49.5528 45.148C49.9235 45.2867 50.2555 45.484 50.5488 45.74C50.8421 45.9933 51.0941 46.3013 51.3048 46.664C51.5181 47.0267 51.6808 47.432 51.7928 47.88V45.18H52.9848ZM51.7928 49.388C51.7928 48.876 51.7208 48.412 51.5768 47.996C51.4328 47.5773 51.2275 47.22 50.9608 46.924C50.6941 46.628 50.3715 46.4 49.9928 46.24C49.6168 46.0773 49.1955 45.996 48.7288 45.996C48.2781 45.996 47.8741 46.0733 47.5168 46.228C47.1595 46.38 46.8568 46.6013 46.6088 46.892C46.3608 47.1827 46.1715 47.5387 46.0408 47.96C45.9101 48.3787 45.8448 48.8547 45.8448 49.388C45.8448 49.9213 45.9101 50.3987 46.0408 50.82C46.1741 51.2387 46.3648 51.5947 46.6128 51.888C46.8608 52.1787 47.1621 52.4013 47.5168 52.556C47.8741 52.708 48.2781 52.784 48.7288 52.784C49.1955 52.784 49.6168 52.704 49.9928 52.544C50.3715 52.3813 50.6941 52.152 50.9608 51.856C51.2275 51.56 51.4328 51.2027 51.5768 50.784C51.7208 50.3653 51.7928 49.9 51.7928 49.388ZM62.3869 51.168C62.2643 51.6533 62.0829 52.0867 61.8429 52.468C61.6029 52.8467 61.3149 53.168 60.9789 53.432C60.6429 53.6933 60.2629 53.8933 59.8389 54.032C59.4149 54.1707 58.9563 54.24 58.4629 54.24C58.0416 54.24 57.6443 54.1893 57.2709 54.088C56.8976 53.9867 56.5536 53.8413 56.2389 53.652C55.9269 53.46 55.6456 53.228 55.3949 52.956C55.1469 52.6813 54.9363 52.372 54.7629 52.028C54.5923 51.6813 54.4603 51.3027 54.3669 50.892C54.2763 50.4787 54.2309 50.04 54.2309 49.576C54.2309 49.112 54.2763 48.676 54.3669 48.268C54.4576 47.86 54.5883 47.484 54.7589 47.14C54.9296 46.796 55.1376 46.488 55.3829 46.216C55.6309 45.944 55.9096 45.7133 56.2189 45.524C56.5283 45.3347 56.8669 45.1907 57.2349 45.092C57.6056 44.9907 58.0003 44.94 58.4189 44.94C59.0136 44.94 59.5563 45.0453 60.0469 45.256C60.5376 45.464 60.9589 45.7627 61.3109 46.152C61.6629 46.5387 61.9363 47.0093 62.1309 47.564C62.3256 48.116 62.4229 48.736 62.4229 49.424C62.4229 49.5147 62.4216 49.6067 62.4189 49.7C62.4163 49.7933 62.4096 49.8933 62.3989 50H55.4349C55.4696 50.4827 55.5656 50.9187 55.7229 51.308C55.8803 51.6973 56.0909 52.0293 56.3549 52.304C56.6189 52.5787 56.9309 52.7893 57.2909 52.936C57.6509 53.0827 58.0509 53.156 58.4909 53.156C59.1523 53.156 59.7083 52.9893 60.1589 52.656C60.6096 52.32 60.9549 51.824 61.1949 51.168H62.3869ZM61.2109 48.96C61.1736 48.496 61.0803 48.0827 60.9309 47.72C60.7843 47.3547 60.5909 47.0467 60.3509 46.796C60.1109 46.5453 59.8283 46.3547 59.5029 46.224C59.1776 46.0907 58.8176 46.024 58.4229 46.024C58.0096 46.024 57.6323 46.092 57.2909 46.228C56.9496 46.364 56.6509 46.5587 56.3949 46.812C56.1389 47.0653 55.9309 47.3733 55.7709 47.736C55.6109 48.0987 55.5056 48.5067 55.4549 48.96H61.2109ZM67.1293 44.94C67.6893 44.94 68.1946 45.0053 68.6453 45.136C69.096 45.2667 69.48 45.4533 69.7973 45.696C70.1146 45.936 70.3586 46.228 70.5293 46.572C70.7026 46.9133 70.7893 47.2947 70.7893 47.716H69.6253C69.6253 47.4547 69.5653 47.2173 69.4453 47.004C69.328 46.7907 69.16 46.608 68.9413 46.456C68.7253 46.304 68.4626 46.1867 68.1533 46.104C67.8466 46.0213 67.5053 45.98 67.1293 45.98C66.78 45.98 66.4546 46.0173 66.1533 46.092C65.8546 46.164 65.5946 46.2667 65.3733 46.4C65.1546 46.5333 64.9826 46.6947 64.8573 46.884C64.7346 47.0707 64.6733 47.2787 64.6733 47.508C64.6733 47.6733 64.7053 47.8187 64.7693 47.944C64.836 48.0667 64.9253 48.1733 65.0373 48.264C65.152 48.3547 65.2853 48.432 65.4373 48.496C65.592 48.56 65.7573 48.616 65.9333 48.664C66.1093 48.7093 66.2933 48.7493 66.4853 48.784C66.68 48.8187 66.872 48.8507 67.0613 48.88L67.6173 48.968C67.8653 49.008 68.124 49.0533 68.3933 49.104C68.6626 49.152 68.9266 49.216 69.1853 49.296C69.444 49.376 69.6906 49.476 69.9253 49.596C70.16 49.716 70.3653 49.8653 70.5413 50.044C70.7173 50.2227 70.8573 50.4373 70.9613 50.688C71.0653 50.936 71.1173 51.2293 71.1173 51.568C71.1173 51.9947 71.0306 52.3733 70.8573 52.704C70.684 53.0347 70.432 53.3147 70.1013 53.544C69.7733 53.7707 69.3706 53.9427 68.8933 54.06C68.4186 54.18 67.8786 54.24 67.2733 54.24C66.6466 54.24 66.0893 54.176 65.6013 54.048C65.116 53.9227 64.7066 53.74 64.3733 53.5C64.04 53.2573 63.7853 52.96 63.6093 52.608C63.436 52.2533 63.3493 51.8493 63.3493 51.396H64.5173C64.5173 51.684 64.5773 51.94 64.6973 52.164C64.82 52.3853 64.9973 52.5733 65.2293 52.728C65.464 52.8827 65.752 53 66.0933 53.08C66.4346 53.16 66.8266 53.2 67.2693 53.2C67.68 53.2 68.0506 53.1653 68.3813 53.096C68.712 53.024 68.9933 52.92 69.2253 52.784C69.46 52.648 69.64 52.48 69.7653 52.28C69.8906 52.08 69.9533 51.852 69.9533 51.596C69.9533 51.4013 69.9186 51.232 69.8493 51.088C69.78 50.9413 69.684 50.8147 69.5613 50.708C69.4386 50.6013 69.2946 50.5107 69.1293 50.436C68.964 50.3587 68.7853 50.2933 68.5933 50.24C68.4013 50.184 68.2 50.136 67.9893 50.096C67.7786 50.056 67.568 50.0187 67.3573 49.984L66.8093 49.892C66.5746 49.852 66.3306 49.808 66.0773 49.76C65.824 49.712 65.5746 49.6507 65.3293 49.576C65.084 49.5013 64.8506 49.4093 64.6293 49.3C64.4106 49.1907 64.2173 49.056 64.0493 48.896C63.884 48.7333 63.752 48.5413 63.6533 48.32C63.5546 48.0987 63.5053 47.8373 63.5053 47.536C63.5053 47.1413 63.592 46.784 63.7653 46.464C63.9413 46.144 64.188 45.872 64.5053 45.648C64.8226 45.4213 65.204 45.2467 65.6493 45.124C66.0946 45.0013 66.588 44.94 67.1293 44.94Z" fill="white"/>
</svg>
