<svg width="50" height="60" viewBox="0 0 50 60" fill="none" xmlns="http://www.w3.org/2000/svg">
<path d="M16.9967 7.19703e-08C17.325 -9.83562e-05 17.6454 0.100765 17.9143 0.288894C18.1833 0.477024 18.3878 0.743305 18.5 1.05158L23.1091 13.7185L21.3339 18.1901L20.5295 15.9815H13.4656L12.103 19.7244C11.958 20.1228 11.6605 20.4473 11.276 20.6265C10.8915 20.8058 10.4515 20.825 10.0528 20.6801C9.65406 20.5351 9.32932 20.2378 9.14996 19.8536C8.97061 19.4693 8.95135 19.0297 9.09641 18.6312L15.495 1.05158C15.6073 0.743305 15.8118 0.477024 16.0807 0.288894C16.3497 0.100765 16.6685 -9.83562e-05 16.9967 7.19703e-08ZM14.6298 12.7852H19.3668L16.9967 6.27434L14.6298 12.7852ZM30.3793 7.23642C30.2614 6.93833 30.0566 6.68255 29.7913 6.50231C29.5261 6.32207 29.2128 6.22569 28.892 6.22569C28.5713 6.22569 28.2579 6.32207 27.9927 6.50231C27.7275 6.68255 27.5226 6.93833 27.4047 7.23642L18.8375 28.8018H18.5976C18.1734 28.8018 17.7667 28.9702 17.4668 29.2699C17.1668 29.5697 16.9983 29.9761 16.9983 30.4C16.9983 30.8239 17.1668 31.2304 17.4668 31.5301C17.7667 31.8298 18.1734 31.9981 18.5976 31.9981H19.8914C19.9127 31.9986 19.934 31.9986 19.9554 31.9981H23.3938C23.8179 31.9981 24.2247 31.8298 24.5246 31.5301C24.8245 31.2304 24.993 30.8239 24.993 30.4C24.993 29.9761 24.8245 29.5697 24.5246 29.2699C24.2247 28.9702 23.8179 28.8018 23.3938 28.8018H22.2791L23.5633 25.5704H34.2032L35.4826 28.8034H34.5886C34.1644 28.8034 33.7576 28.9718 33.4577 29.2715C33.1578 29.5712 32.9893 29.9777 32.9893 30.4016C32.9893 30.8255 33.1578 31.2319 33.4577 31.5317C33.7576 31.8314 34.1644 31.9998 34.5886 31.9998H37.8095C37.8281 32.0001 37.8468 32.0001 37.8655 31.9998H39.4007C39.8249 31.9998 40.2317 31.8314 40.5316 31.5317C40.8315 31.2319 41 30.8255 41 30.4016C41 29.9777 40.8315 29.5712 40.5316 29.2715C40.2317 28.9718 39.8249 28.8034 39.4007 28.8034H38.9242L30.3793 7.23642ZM32.9365 22.3741H24.8331L28.8904 12.1619L32.9365 22.3741Z" fill="white"/>
<path d="M5.532 44.32C6.17733 44.32 6.764 44.4027 7.292 44.568C7.82267 44.7307 8.27733 44.9667 8.656 45.276C9.03733 45.5827 9.332 45.956 9.54 46.396C9.748 46.8333 9.852 47.3267 9.852 47.876H8.648C8.648 47.5027 8.57067 47.1653 8.416 46.864C8.26133 46.5627 8.04533 46.3067 7.768 46.096C7.49333 45.8853 7.164 45.724 6.78 45.612C6.396 45.4973 5.976 45.44 5.52 45.44C5.25067 45.44 4.98533 45.4613 4.724 45.504C4.46267 45.544 4.216 45.6053 3.984 45.688C3.752 45.7707 3.53733 45.8733 3.34 45.996C3.14267 46.1187 2.972 46.2613 2.828 46.424C2.684 46.5867 2.572 46.7693 2.492 46.972C2.412 47.1747 2.372 47.396 2.372 47.636C2.372 47.8627 2.408 48.0613 2.48 48.232C2.552 48.4 2.65467 48.5467 2.788 48.672C2.92133 48.7947 3.08133 48.8987 3.268 48.984C3.45467 49.0693 3.66267 49.144 3.892 49.208C4.12133 49.272 4.368 49.328 4.632 49.376C4.89867 49.4213 5.17733 49.468 5.468 49.516L6.148 49.628C6.45467 49.676 6.76933 49.7307 7.092 49.792C7.41467 49.8533 7.728 49.932 8.032 50.028C8.33867 50.124 8.62667 50.244 8.896 50.388C9.168 50.532 9.40533 50.7133 9.608 50.932C9.81067 51.1507 9.97067 51.412 10.088 51.716C10.208 52.02 10.268 52.38 10.268 52.796C10.268 53.364 10.1547 53.864 9.928 54.296C9.704 54.7253 9.38933 55.084 8.984 55.372C8.57867 55.66 8.09467 55.876 7.532 56.02C6.972 56.1667 6.35467 56.24 5.68 56.24C4.95733 56.24 4.30533 56.1587 3.724 55.996C3.14267 55.8307 2.648 55.592 2.24 55.28C1.832 54.9653 1.51733 54.5813 1.296 54.128C1.07733 53.6747 0.968 53.1587 0.968 52.58H2.172C2.172 52.98 2.25467 53.3373 2.42 53.652C2.588 53.964 2.824 54.2293 3.128 54.448C3.432 54.6667 3.79867 54.8333 4.228 54.948C4.66 55.0627 5.14 55.12 5.668 55.12C6.14267 55.12 6.58667 55.072 7 54.976C7.41333 54.8773 7.772 54.732 8.076 54.54C8.38267 54.3453 8.62267 54.1013 8.796 53.808C8.972 53.5147 9.06 53.172 9.06 52.78C9.06 52.524 9.02267 52.3027 8.948 52.116C8.87333 51.9293 8.768 51.768 8.632 51.632C8.49867 51.496 8.33867 51.3813 8.152 51.288C7.96533 51.1947 7.75867 51.116 7.532 51.052C7.308 50.9853 7.068 50.9293 6.812 50.884C6.55867 50.836 6.296 50.7907 6.024 50.748L5.244 50.62C4.94 50.572 4.62667 50.5187 4.304 50.46C3.984 50.4013 3.67333 50.3267 3.372 50.236C3.07067 50.1453 2.78533 50.0333 2.516 49.9C2.24933 49.764 2.016 49.5947 1.816 49.392C1.616 49.1893 1.45733 48.948 1.34 48.668C1.22533 48.3853 1.168 48.0507 1.168 47.664C1.168 47.304 1.22 46.972 1.324 46.668C1.428 46.3613 1.57467 46.084 1.764 45.836C1.956 45.588 2.184 45.3707 2.448 45.184C2.71467 44.9947 3.00933 44.836 3.332 44.708C3.65733 44.58 4.00533 44.484 4.376 44.42C4.74667 44.3533 5.132 44.32 5.532 44.32ZM19.0224 45.704H12.7384V49.876H18.5424V51.024H12.7384V56H11.5064V44.556H19.0224V45.704ZM23.6939 44.556H28.7819C29.1872 44.556 29.5699 44.596 29.9299 44.676C30.2899 44.7533 30.6219 44.8667 30.9259 45.016C31.2299 45.1627 31.5032 45.3413 31.7459 45.552C31.9885 45.7627 32.1939 46.0013 32.3619 46.268C32.5299 46.532 32.6592 46.8213 32.7499 47.136C32.8405 47.4507 32.8859 47.784 32.8859 48.136C32.8859 48.6667 32.7859 49.1533 32.5859 49.596C32.3859 50.036 32.1045 50.4147 31.7419 50.732C31.3819 51.0467 30.9499 51.292 30.4459 51.468C29.9445 51.644 29.3899 51.732 28.7819 51.732H24.9259V56H23.6939V44.556ZM28.6939 50.584C29.1472 50.584 29.5565 50.5267 29.9219 50.412C30.2872 50.2973 30.5979 50.1347 30.8539 49.924C31.1099 49.7107 31.3072 49.4533 31.4459 49.152C31.5845 48.8507 31.6539 48.5133 31.6539 48.14C31.6539 47.7667 31.5845 47.4307 31.4459 47.132C31.3099 46.8307 31.1139 46.5747 30.8579 46.364C30.6045 46.1507 30.2965 45.988 29.9339 45.876C29.5712 45.7613 29.1645 45.704 28.7139 45.704H24.9259V50.584H28.6939ZM35.3771 56H34.1851V47.18H35.3771V50.056C35.4785 49.5973 35.6265 49.1907 35.8211 48.836C36.0185 48.4787 36.2611 48.1773 36.5491 47.932C36.8398 47.6867 37.1771 47.5 37.5611 47.372C37.9451 47.244 38.3745 47.18 38.8491 47.18H39.2491V48.328H38.8491C38.2225 48.328 37.6878 48.3973 37.2451 48.536C36.8051 48.672 36.4465 48.88 36.1691 49.16C35.8945 49.4373 35.6931 49.7853 35.5651 50.204C35.4398 50.62 35.3771 51.108 35.3771 51.668V56ZM39.8481 51.588C39.8481 51.124 39.8935 50.6867 39.9841 50.276C40.0748 49.8653 40.2055 49.488 40.3761 49.144C40.5495 48.8 40.7588 48.492 41.0041 48.22C41.2521 47.9453 41.5321 47.7133 41.8441 47.524C42.1561 47.3347 42.4975 47.1907 42.8681 47.092C43.2388 46.9907 43.6348 46.94 44.0561 46.94C44.4775 46.94 44.8735 46.9907 45.2441 47.092C45.6148 47.1907 45.9548 47.3347 46.2641 47.524C46.5761 47.7133 46.8548 47.9453 47.1001 48.22C47.3481 48.492 47.5575 48.8 47.7281 49.144C47.9015 49.488 48.0335 49.8653 48.1241 50.276C48.2148 50.6867 48.2601 51.124 48.2601 51.588C48.2601 52.052 48.2148 52.4893 48.1241 52.9C48.0335 53.3107 47.9015 53.6893 47.7281 54.036C47.5575 54.38 47.3481 54.688 47.1001 54.96C46.8548 55.232 46.5761 55.464 46.2641 55.656C45.9548 55.8453 45.6148 55.9893 45.2441 56.088C44.8735 56.1893 44.4775 56.24 44.0561 56.24C43.6375 56.24 43.2415 56.1893 42.8681 56.088C42.4975 55.9893 42.1561 55.8453 41.8441 55.656C41.5321 55.464 41.2521 55.232 41.0041 54.96C40.7588 54.688 40.5495 54.38 40.3761 54.036C40.2055 53.6893 40.0748 53.3107 39.9841 52.9C39.8935 52.4893 39.8481 52.052 39.8481 51.588ZM41.0401 51.588C41.0401 52.1347 41.1108 52.6293 41.2521 53.072C41.3935 53.512 41.5948 53.8867 41.8561 54.196C42.1201 54.5027 42.4375 54.74 42.8081 54.908C43.1815 55.0733 43.5975 55.156 44.0561 55.156C44.5175 55.156 44.9335 55.0733 45.3041 54.908C45.6748 54.74 45.9908 54.5027 46.2521 54.196C46.5135 53.8867 46.7148 53.512 46.8561 53.072C46.9975 52.6293 47.0681 52.1347 47.0681 51.588C47.0681 51.0387 46.9975 50.5453 46.8561 50.108C46.7148 49.668 46.5135 49.2933 46.2521 48.984C45.9908 48.6747 45.6748 48.4373 45.3041 48.272C44.9335 48.1067 44.5175 48.024 44.0561 48.024C43.5975 48.024 43.1815 48.1067 42.8081 48.272C42.4375 48.4373 42.1201 48.6747 41.8561 48.984C41.5948 49.2933 41.3935 49.668 41.2521 50.108C41.1108 50.5453 41.0401 51.0387 41.0401 51.588Z" fill="white"/>
</svg>
