<svg width="72" height="58" viewBox="0 0 72 58" fill="none" xmlns="http://www.w3.org/2000/svg">
<path d="M42.4676 35.9999L13.5 19.3246L29.7146 9.7959L58.5 26.6544L42.4676 35.9999Z" fill="white" stroke="black" stroke-width="0.5"/>
<path d="M42.4676 31.6015L13.5 14.9262L29.7146 5.39746L58.5 22.256L42.4676 31.6015Z" fill="white" stroke="black" stroke-width="0.5"/>
<path d="M42.4676 27.204L13.5 10.5287L29.7146 1L58.5 17.8585L42.4676 27.204Z" fill="#363636" stroke="black" stroke-width="0.5"/>
<path d="M8.42919 54V51.08H1.34919V49.416L8.28919 42.56H9.66119V49.932H11.3772V51.08H9.66119V54H8.42919ZM8.42919 49.932V43.976L2.39319 49.932H8.42919ZM14.4839 54C14.5293 53.312 14.6013 52.6547 14.6999 52.028C14.8013 51.3987 14.9333 50.792 15.0959 50.208C15.2613 49.6213 15.4599 49.0533 15.6919 48.504C15.9266 47.952 16.2013 47.4093 16.5159 46.876C16.8306 46.34 17.1879 45.8107 17.5879 45.288C17.9906 44.7653 18.4399 44.2387 18.9359 43.708H11.8039V42.56H20.2199V43.76C19.7346 44.2587 19.2959 44.752 18.9039 45.24C18.5146 45.7253 18.1653 46.2187 17.8559 46.72C17.5493 47.2213 17.2813 47.7387 17.0519 48.272C16.8226 48.8053 16.6266 49.368 16.4639 49.96C16.3013 50.552 16.1679 51.1813 16.0639 51.848C15.9626 52.5147 15.8839 53.232 15.8279 54H14.4839ZM25.2486 42.556H30.3366C30.7419 42.556 31.1246 42.596 31.4846 42.676C31.8446 42.7533 32.1766 42.8667 32.4806 43.016C32.7846 43.1627 33.0579 43.3413 33.3006 43.552C33.5432 43.7627 33.7486 44.0013 33.9166 44.268C34.0846 44.532 34.2139 44.8213 34.3046 45.136C34.3952 45.4507 34.4406 45.784 34.4406 46.136C34.4406 46.6667 34.3406 47.1533 34.1406 47.596C33.9406 48.036 33.6592 48.4147 33.2966 48.732C32.9366 49.0467 32.5046 49.292 32.0006 49.468C31.4992 49.644 30.9446 49.732 30.3366 49.732H26.4806V54H25.2486V42.556ZM30.2486 48.584C30.7019 48.584 31.1112 48.5267 31.4766 48.412C31.8419 48.2973 32.1526 48.1347 32.4086 47.924C32.6646 47.7107 32.8619 47.4533 33.0006 47.152C33.1392 46.8507 33.2086 46.5133 33.2086 46.14C33.2086 45.7667 33.1392 45.4307 33.0006 45.132C32.8646 44.8307 32.6686 44.5747 32.4126 44.364C32.1592 44.1507 31.8512 43.988 31.4886 43.876C31.1259 43.7613 30.7192 43.704 30.2686 43.704H26.4806V48.584H30.2486ZM35.2983 48.12C35.2983 47.6373 35.389 47.2 35.5703 46.808C35.7543 46.416 36.0156 46.0827 36.3543 45.808C36.693 45.5307 37.1023 45.3173 37.5823 45.168C38.065 45.0187 38.6036 44.944 39.1983 44.944C39.8356 44.944 40.4063 45.032 40.9103 45.208C41.417 45.3813 41.8463 45.632 42.1983 45.96C42.5503 46.288 42.8196 46.6893 43.0063 47.164C43.193 47.636 43.2863 48.172 43.2863 48.772V54H42.0943V51.54C41.985 51.9427 41.8103 52.3093 41.5703 52.64C41.3303 52.9707 41.0383 53.2547 40.6943 53.492C40.353 53.7293 39.9676 53.9133 39.5383 54.044C39.1116 54.1747 38.657 54.24 38.1743 54.24C37.7023 54.24 37.273 54.1773 36.8863 54.052C36.4996 53.9267 36.169 53.7507 35.8943 53.524C35.6223 53.2947 35.4116 53.02 35.2623 52.7C35.113 52.3773 35.0383 52.0187 35.0383 51.624C35.0383 51.2293 35.1156 50.8787 35.2703 50.572C35.425 50.2627 35.6503 50.0027 35.9463 49.792C36.2423 49.5813 36.6063 49.4213 37.0383 49.312C37.473 49.2027 37.9703 49.148 38.5303 49.148H42.0943V48.772C42.0943 48.3453 42.0276 47.9627 41.8943 47.624C41.761 47.2827 41.569 46.9947 41.3183 46.76C41.0676 46.5227 40.761 46.3413 40.3983 46.216C40.0383 46.0907 39.6316 46.028 39.1783 46.028C38.7383 46.028 38.3503 46.0787 38.0143 46.18C37.681 46.2787 37.401 46.4187 37.1743 46.6C36.9503 46.7813 36.7796 47.0013 36.6623 47.26C36.5476 47.516 36.4903 47.8027 36.4903 48.12H35.2983ZM38.5223 50.16C37.749 50.16 37.1703 50.2787 36.7863 50.516C36.405 50.7533 36.2143 51.112 36.2143 51.592C36.2143 51.8427 36.265 52.068 36.3663 52.268C36.4676 52.4653 36.6143 52.6333 36.8063 52.772C37.001 52.908 37.2383 53.012 37.5183 53.084C37.7983 53.156 38.117 53.192 38.4743 53.192C38.8103 53.192 39.133 53.1613 39.4423 53.1C39.7516 53.036 40.0396 52.948 40.3063 52.836C40.5756 52.7213 40.8196 52.584 41.0383 52.424C41.2596 52.264 41.4476 52.0867 41.6023 51.892C41.7596 51.6947 41.881 51.484 41.9663 51.26C42.0516 51.0333 42.0943 50.7987 42.0943 50.556V50.16H38.5223ZM52.8286 45.18V52.64C52.8286 53.0987 52.7832 53.532 52.6926 53.94C52.6019 54.3453 52.4712 54.7187 52.3006 55.06C52.1299 55.404 51.9219 55.712 51.6766 55.984C51.4339 56.2587 51.1592 56.4907 50.8526 56.68C50.5459 56.872 50.2099 57.0187 49.8446 57.12C49.4792 57.2213 49.0912 57.272 48.6806 57.272C48.3206 57.272 47.9766 57.2333 47.6486 57.156C47.3232 57.0787 47.0192 56.968 46.7366 56.824C46.4566 56.6827 46.2019 56.5107 45.9726 56.308C45.7459 56.1053 45.5512 55.8787 45.3886 55.628C45.2286 55.3773 45.1046 55.1053 45.0166 54.812C44.9312 54.5213 44.8886 54.2147 44.8886 53.892H46.0806C46.0806 54.2253 46.1472 54.5347 46.2806 54.82C46.4139 55.1053 46.5979 55.352 46.8326 55.56C47.0672 55.7707 47.3432 55.9347 47.6606 56.052C47.9779 56.172 48.3206 56.232 48.6886 56.232C49.1286 56.232 49.5299 56.1453 49.8926 55.972C50.2552 55.7987 50.5659 55.5547 50.8246 55.24C51.0832 54.9253 51.2832 54.5467 51.4246 54.104C51.5659 53.664 51.6366 53.176 51.6366 52.64V50.892C51.5246 51.34 51.3619 51.7467 51.1486 52.112C50.9379 52.4747 50.6846 52.784 50.3886 53.04C50.0952 53.296 49.7632 53.4933 49.3926 53.632C49.0246 53.7707 48.6272 53.84 48.2006 53.84C47.8406 53.84 47.4979 53.7907 47.1726 53.692C46.8499 53.5933 46.5512 53.452 46.2766 53.268C46.0046 53.084 45.7579 52.86 45.5366 52.596C45.3179 52.332 45.1312 52.036 44.9766 51.708C44.8219 51.3773 44.7032 51.0173 44.6206 50.628C44.5379 50.236 44.4966 49.8227 44.4966 49.388C44.4966 48.9533 44.5379 48.5413 44.6206 48.152C44.7032 47.7627 44.8219 47.404 44.9766 47.076C45.1312 46.7453 45.3179 46.448 45.5366 46.184C45.7579 45.92 46.0046 45.696 46.2766 45.512C46.5512 45.328 46.8499 45.1867 47.1726 45.088C47.4979 44.9893 47.8406 44.94 48.2006 44.94C48.6299 44.94 49.0286 45.0093 49.3966 45.148C49.7672 45.2867 50.0992 45.484 50.3926 45.74C50.6859 45.9933 50.9379 46.3013 51.1486 46.664C51.3619 47.0267 51.5246 47.432 51.6366 47.88V45.18H52.8286ZM51.6366 49.388C51.6366 48.876 51.5646 48.412 51.4206 47.996C51.2766 47.5773 51.0712 47.22 50.8046 46.924C50.5379 46.628 50.2152 46.4 49.8366 46.24C49.4606 46.0773 49.0392 45.996 48.5726 45.996C48.1219 45.996 47.7179 46.0733 47.3606 46.228C47.0032 46.38 46.7006 46.6013 46.4526 46.892C46.2046 47.1827 46.0152 47.5387 45.8846 47.96C45.7539 48.3787 45.6886 48.8547 45.6886 49.388C45.6886 49.9213 45.7539 50.3987 45.8846 50.82C46.0179 51.2387 46.2086 51.5947 46.4566 51.888C46.7046 52.1787 47.0059 52.4013 47.3606 52.556C47.7179 52.708 48.1219 52.784 48.5726 52.784C49.0392 52.784 49.4606 52.704 49.8366 52.544C50.2152 52.3813 50.5379 52.152 50.8046 51.856C51.0712 51.56 51.2766 51.2027 51.4206 50.784C51.5646 50.3653 51.6366 49.9 51.6366 49.388ZM62.2307 51.168C62.108 51.6533 61.9267 52.0867 61.6867 52.468C61.4467 52.8467 61.1587 53.168 60.8227 53.432C60.4867 53.6933 60.1067 53.8933 59.6827 54.032C59.2587 54.1707 58.8 54.24 58.3067 54.24C57.8854 54.24 57.488 54.1893 57.1147 54.088C56.7414 53.9867 56.3974 53.8413 56.0827 53.652C55.7707 53.46 55.4894 53.228 55.2387 52.956C54.9907 52.6813 54.78 52.372 54.6067 52.028C54.436 51.6813 54.304 51.3027 54.2107 50.892C54.12 50.4787 54.0747 50.04 54.0747 49.576C54.0747 49.112 54.12 48.676 54.2107 48.268C54.3014 47.86 54.432 47.484 54.6027 47.14C54.7734 46.796 54.9814 46.488 55.2267 46.216C55.4747 45.944 55.7534 45.7133 56.0627 45.524C56.372 45.3347 56.7107 45.1907 57.0787 45.092C57.4494 44.9907 57.844 44.94 58.2627 44.94C58.8574 44.94 59.4 45.0453 59.8907 45.256C60.3814 45.464 60.8027 45.7627 61.1547 46.152C61.5067 46.5387 61.78 47.0093 61.9747 47.564C62.1694 48.116 62.2667 48.736 62.2667 49.424C62.2667 49.5147 62.2654 49.6067 62.2627 49.7C62.26 49.7933 62.2534 49.8933 62.2427 50H55.2787C55.3134 50.4827 55.4094 50.9187 55.5667 51.308C55.724 51.6973 55.9347 52.0293 56.1987 52.304C56.4627 52.5787 56.7747 52.7893 57.1347 52.936C57.4947 53.0827 57.8947 53.156 58.3347 53.156C58.996 53.156 59.552 52.9893 60.0027 52.656C60.4534 52.32 60.7987 51.824 61.0387 51.168H62.2307ZM61.0547 48.96C61.0174 48.496 60.924 48.0827 60.7747 47.72C60.628 47.3547 60.4347 47.0467 60.1947 46.796C59.9547 46.5453 59.672 46.3547 59.3467 46.224C59.0214 46.0907 58.6614 46.024 58.2667 46.024C57.8534 46.024 57.476 46.092 57.1347 46.228C56.7934 46.364 56.4947 46.5587 56.2387 46.812C55.9827 47.0653 55.7747 47.3733 55.6147 47.736C55.4547 48.0987 55.3494 48.5067 55.2987 48.96H61.0547ZM66.9731 44.94C67.5331 44.94 68.0384 45.0053 68.4891 45.136C68.9397 45.2667 69.3237 45.4533 69.6411 45.696C69.9584 45.936 70.2024 46.228 70.3731 46.572C70.5464 46.9133 70.6331 47.2947 70.6331 47.716H69.4691C69.4691 47.4547 69.4091 47.2173 69.2891 47.004C69.1717 46.7907 69.0037 46.608 68.7851 46.456C68.5691 46.304 68.3064 46.1867 67.9971 46.104C67.6904 46.0213 67.3491 45.98 66.9731 45.98C66.6237 45.98 66.2984 46.0173 65.9971 46.092C65.6984 46.164 65.4384 46.2667 65.2171 46.4C64.9984 46.5333 64.8264 46.6947 64.7011 46.884C64.5784 47.0707 64.5171 47.2787 64.5171 47.508C64.5171 47.6733 64.5491 47.8187 64.6131 47.944C64.6797 48.0667 64.7691 48.1733 64.8811 48.264C64.9957 48.3547 65.1291 48.432 65.2811 48.496C65.4357 48.56 65.6011 48.616 65.7771 48.664C65.9531 48.7093 66.1371 48.7493 66.3291 48.784C66.5237 48.8187 66.7157 48.8507 66.9051 48.88L67.4611 48.968C67.7091 49.008 67.9677 49.0533 68.2371 49.104C68.5064 49.152 68.7704 49.216 69.0291 49.296C69.2877 49.376 69.5344 49.476 69.7691 49.596C70.0037 49.716 70.2091 49.8653 70.3851 50.044C70.5611 50.2227 70.7011 50.4373 70.8051 50.688C70.9091 50.936 70.9611 51.2293 70.9611 51.568C70.9611 51.9947 70.8744 52.3733 70.7011 52.704C70.5277 53.0347 70.2757 53.3147 69.9451 53.544C69.6171 53.7707 69.2144 53.9427 68.7371 54.06C68.2624 54.18 67.7224 54.24 67.1171 54.24C66.4904 54.24 65.9331 54.176 65.4451 54.048C64.9597 53.9227 64.5504 53.74 64.2171 53.5C63.8837 53.2573 63.6291 52.96 63.4531 52.608C63.2797 52.2533 63.1931 51.8493 63.1931 51.396H64.3611C64.3611 51.684 64.4211 51.94 64.5411 52.164C64.6637 52.3853 64.8411 52.5733 65.0731 52.728C65.3077 52.8827 65.5957 53 65.9371 53.08C66.2784 53.16 66.6704 53.2 67.1131 53.2C67.5237 53.2 67.8944 53.1653 68.2251 53.096C68.5557 53.024 68.8371 52.92 69.0691 52.784C69.3037 52.648 69.4837 52.48 69.6091 52.28C69.7344 52.08 69.7971 51.852 69.7971 51.596C69.7971 51.4013 69.7624 51.232 69.6931 51.088C69.6237 50.9413 69.5277 50.8147 69.4051 50.708C69.2824 50.6013 69.1384 50.5107 68.9731 50.436C68.8077 50.3587 68.6291 50.2933 68.4371 50.24C68.2451 50.184 68.0437 50.136 67.8331 50.096C67.6224 50.056 67.4117 50.0187 67.2011 49.984L66.6531 49.892C66.4184 49.852 66.1744 49.808 65.9211 49.76C65.6677 49.712 65.4184 49.6507 65.1731 49.576C64.9277 49.5013 64.6944 49.4093 64.4731 49.3C64.2544 49.1907 64.0611 49.056 63.8931 48.896C63.7277 48.7333 63.5957 48.5413 63.4971 48.32C63.3984 48.0987 63.3491 47.8373 63.3491 47.536C63.3491 47.1413 63.4357 46.784 63.6091 46.464C63.7851 46.144 64.0317 45.872 64.3491 45.648C64.6664 45.4213 65.0477 45.2467 65.4931 45.124C65.9384 45.0013 66.4317 44.94 66.9731 44.94Z" fill="white"/>
</svg>
