<svg width="70" height="58" viewBox="0 0 70 58" fill="none" xmlns="http://www.w3.org/2000/svg">
<path d="M41.4676 35.9999L12.5 19.3246L28.7146 9.7959L57.5 26.6544L41.4676 35.9999Z" fill="white" stroke="black" stroke-width="0.5"/>
<path d="M41.4676 31.6015L12.5 14.9262L28.7146 5.39746L57.5 22.256L41.4676 31.6015Z" fill="white" stroke="black" stroke-width="0.5"/>
<path d="M41.4676 27.204L12.5 10.5287L28.7146 1L57.5 17.8585L41.4676 27.204Z" fill="#363636" stroke="black" stroke-width="0.5"/>
<path d="M5.09 52.852H7.23V54H1.714V52.852H3.858V45.564H1.242V44.496H2.286C2.50733 44.496 2.702 44.484 2.87 44.46C3.04067 44.436 3.18733 44.3933 3.31 44.332C3.43533 44.2707 3.53933 44.188 3.622 44.084C3.70467 43.98 3.77133 43.848 3.822 43.688C3.87267 43.5253 3.90867 43.332 3.93 43.108C3.95133 42.8813 3.962 42.6173 3.962 42.316H5.09V52.852ZM8.15563 48.28C8.15563 47.688 8.21029 47.1307 8.31963 46.608C8.42896 46.0827 8.58629 45.6 8.79163 45.16C8.99696 44.7173 9.24763 44.3213 9.54363 43.972C9.83963 43.62 10.173 43.3227 10.5436 43.08C10.9143 42.8347 11.3196 42.6467 11.7596 42.516C12.2023 42.3853 12.6716 42.32 13.1676 42.32C13.6663 42.32 14.1356 42.3853 14.5756 42.516C15.0156 42.6467 15.421 42.8347 15.7916 43.08C16.165 43.3227 16.4983 43.62 16.7916 43.972C17.0876 44.3213 17.3383 44.7173 17.5436 45.16C17.7516 45.6 17.9103 46.0827 18.0196 46.608C18.129 47.1307 18.1836 47.688 18.1836 48.28C18.1836 48.8693 18.129 49.4267 18.0196 49.952C17.9103 50.4773 17.753 50.9613 17.5476 51.404C17.3423 51.844 17.0916 52.24 16.7956 52.592C16.4996 52.9413 16.165 53.2387 15.7916 53.484C15.421 53.7267 15.0143 53.9133 14.5716 54.044C14.1316 54.1747 13.6636 54.24 13.1676 54.24C12.6716 54.24 12.2023 54.1747 11.7596 54.044C11.3196 53.9133 10.9143 53.7267 10.5436 53.484C10.173 53.2387 9.83963 52.9413 9.54363 52.592C9.24763 52.24 8.99696 51.844 8.79163 51.404C8.58629 50.9613 8.42896 50.4773 8.31963 49.952C8.21029 49.4267 8.15563 48.8693 8.15563 48.28ZM9.38763 48.28C9.38763 49.0187 9.47563 49.6853 9.65163 50.28C9.82763 50.872 10.0796 51.3773 10.4076 51.796C10.7356 52.212 11.133 52.532 11.5996 52.756C12.0663 52.98 12.589 53.092 13.1676 53.092C13.749 53.092 14.273 52.98 14.7396 52.756C15.2063 52.532 15.6036 52.212 15.9316 51.796C16.2596 51.3773 16.5116 50.872 16.6876 50.28C16.8636 49.6853 16.9516 49.0187 16.9516 48.28C16.9516 47.5413 16.8636 46.876 16.6876 46.284C16.5116 45.6893 16.2596 45.184 15.9316 44.768C15.6036 44.3493 15.2063 44.028 14.7396 43.804C14.273 43.58 13.749 43.468 13.1676 43.468C12.589 43.468 12.0663 43.58 11.5996 43.804C11.133 44.028 10.7356 44.3493 10.4076 44.768C10.0796 45.184 9.82763 45.6893 9.65163 46.284C9.47563 46.876 9.38763 47.5413 9.38763 48.28ZM23.1158 42.556H28.2038C28.6091 42.556 28.9918 42.596 29.3518 42.676C29.7118 42.7533 30.0438 42.8667 30.3478 43.016C30.6518 43.1627 30.9251 43.3413 31.1678 43.552C31.4104 43.7627 31.6158 44.0013 31.7838 44.268C31.9518 44.532 32.0811 44.8213 32.1718 45.136C32.2624 45.4507 32.3078 45.784 32.3078 46.136C32.3078 46.6667 32.2078 47.1533 32.0078 47.596C31.8078 48.036 31.5264 48.4147 31.1638 48.732C30.8038 49.0467 30.3718 49.292 29.8678 49.468C29.3664 49.644 28.8118 49.732 28.2038 49.732H24.3478V54H23.1158V42.556ZM28.1158 48.584C28.5691 48.584 28.9784 48.5267 29.3438 48.412C29.7091 48.2973 30.0198 48.1347 30.2758 47.924C30.5318 47.7107 30.7291 47.4533 30.8678 47.152C31.0064 46.8507 31.0758 46.5133 31.0758 46.14C31.0758 45.7667 31.0064 45.4307 30.8678 45.132C30.7318 44.8307 30.5358 44.5747 30.2798 44.364C30.0264 44.1507 29.7184 43.988 29.3558 43.876C28.9931 43.7613 28.5864 43.704 28.1358 43.704H24.3478V48.584H28.1158ZM33.1655 48.12C33.1655 47.6373 33.2562 47.2 33.4375 46.808C33.6215 46.416 33.8828 46.0827 34.2215 45.808C34.5602 45.5307 34.9695 45.3173 35.4495 45.168C35.9322 45.0187 36.4708 44.944 37.0655 44.944C37.7028 44.944 38.2735 45.032 38.7775 45.208C39.2842 45.3813 39.7135 45.632 40.0655 45.96C40.4175 46.288 40.6868 46.6893 40.8735 47.164C41.0602 47.636 41.1535 48.172 41.1535 48.772V54H39.9615V51.54C39.8522 51.9427 39.6775 52.3093 39.4375 52.64C39.1975 52.9707 38.9055 53.2547 38.5615 53.492C38.2202 53.7293 37.8348 53.9133 37.4055 54.044C36.9788 54.1747 36.5242 54.24 36.0415 54.24C35.5695 54.24 35.1402 54.1773 34.7535 54.052C34.3668 53.9267 34.0362 53.7507 33.7615 53.524C33.4895 53.2947 33.2788 53.02 33.1295 52.7C32.9802 52.3773 32.9055 52.0187 32.9055 51.624C32.9055 51.2293 32.9828 50.8787 33.1375 50.572C33.2922 50.2627 33.5175 50.0027 33.8135 49.792C34.1095 49.5813 34.4735 49.4213 34.9055 49.312C35.3402 49.2027 35.8375 49.148 36.3975 49.148H39.9615V48.772C39.9615 48.3453 39.8948 47.9627 39.7615 47.624C39.6282 47.2827 39.4362 46.9947 39.1855 46.76C38.9348 46.5227 38.6282 46.3413 38.2655 46.216C37.9055 46.0907 37.4988 46.028 37.0455 46.028C36.6055 46.028 36.2175 46.0787 35.8815 46.18C35.5482 46.2787 35.2682 46.4187 35.0415 46.6C34.8175 46.7813 34.6468 47.0013 34.5295 47.26C34.4148 47.516 34.3575 47.8027 34.3575 48.12H33.1655ZM36.3895 50.16C35.6162 50.16 35.0375 50.2787 34.6535 50.516C34.2722 50.7533 34.0815 51.112 34.0815 51.592C34.0815 51.8427 34.1322 52.068 34.2335 52.268C34.3348 52.4653 34.4815 52.6333 34.6735 52.772C34.8682 52.908 35.1055 53.012 35.3855 53.084C35.6655 53.156 35.9842 53.192 36.3415 53.192C36.6775 53.192 37.0002 53.1613 37.3095 53.1C37.6188 53.036 37.9068 52.948 38.1735 52.836C38.4428 52.7213 38.6868 52.584 38.9055 52.424C39.1268 52.264 39.3148 52.0867 39.4695 51.892C39.6268 51.6947 39.7482 51.484 39.8335 51.26C39.9188 51.0333 39.9615 50.7987 39.9615 50.556V50.16H36.3895ZM50.6958 45.18V52.64C50.6958 53.0987 50.6504 53.532 50.5598 53.94C50.4691 54.3453 50.3384 54.7187 50.1678 55.06C49.9971 55.404 49.7891 55.712 49.5438 55.984C49.3011 56.2587 49.0264 56.4907 48.7198 56.68C48.4131 56.872 48.0771 57.0187 47.7118 57.12C47.3464 57.2213 46.9584 57.272 46.5477 57.272C46.1878 57.272 45.8438 57.2333 45.5158 57.156C45.1904 57.0787 44.8864 56.968 44.6038 56.824C44.3238 56.6827 44.0691 56.5107 43.8398 56.308C43.6131 56.1053 43.4184 55.8787 43.2558 55.628C43.0958 55.3773 42.9718 55.1053 42.8838 54.812C42.7984 54.5213 42.7558 54.2147 42.7558 53.892H43.9478C43.9478 54.2253 44.0144 54.5347 44.1478 54.82C44.2811 55.1053 44.4651 55.352 44.6998 55.56C44.9344 55.7707 45.2104 55.9347 45.5278 56.052C45.8451 56.172 46.1878 56.232 46.5558 56.232C46.9958 56.232 47.3971 56.1453 47.7598 55.972C48.1224 55.7987 48.4331 55.5547 48.6918 55.24C48.9504 54.9253 49.1504 54.5467 49.2918 54.104C49.4331 53.664 49.5038 53.176 49.5038 52.64V50.892C49.3918 51.34 49.2291 51.7467 49.0158 52.112C48.8051 52.4747 48.5518 52.784 48.2558 53.04C47.9624 53.296 47.6304 53.4933 47.2598 53.632C46.8918 53.7707 46.4944 53.84 46.0677 53.84C45.7078 53.84 45.3651 53.7907 45.0398 53.692C44.7171 53.5933 44.4184 53.452 44.1438 53.268C43.8718 53.084 43.6251 52.86 43.4038 52.596C43.1851 52.332 42.9984 52.036 42.8438 51.708C42.6891 51.3773 42.5704 51.0173 42.4878 50.628C42.4051 50.236 42.3638 49.8227 42.3638 49.388C42.3638 48.9533 42.4051 48.5413 42.4878 48.152C42.5704 47.7627 42.6891 47.404 42.8438 47.076C42.9984 46.7453 43.1851 46.448 43.4038 46.184C43.6251 45.92 43.8718 45.696 44.1438 45.512C44.4184 45.328 44.7171 45.1867 45.0398 45.088C45.3651 44.9893 45.7078 44.94 46.0677 44.94C46.4971 44.94 46.8958 45.0093 47.2638 45.148C47.6344 45.2867 47.9664 45.484 48.2598 45.74C48.5531 45.9933 48.8051 46.3013 49.0158 46.664C49.2291 47.0267 49.3918 47.432 49.5038 47.88V45.18H50.6958ZM49.5038 49.388C49.5038 48.876 49.4318 48.412 49.2878 47.996C49.1438 47.5773 48.9384 47.22 48.6718 46.924C48.4051 46.628 48.0824 46.4 47.7038 46.24C47.3278 46.0773 46.9064 45.996 46.4398 45.996C45.9891 45.996 45.5851 46.0733 45.2278 46.228C44.8704 46.38 44.5678 46.6013 44.3198 46.892C44.0718 47.1827 43.8824 47.5387 43.7518 47.96C43.6211 48.3787 43.5558 48.8547 43.5558 49.388C43.5558 49.9213 43.6211 50.3987 43.7518 50.82C43.8851 51.2387 44.0758 51.5947 44.3238 51.888C44.5718 52.1787 44.8731 52.4013 45.2278 52.556C45.5851 52.708 45.9891 52.784 46.4398 52.784C46.9064 52.784 47.3278 52.704 47.7038 52.544C48.0824 52.3813 48.4051 52.152 48.6718 51.856C48.9384 51.56 49.1438 51.2027 49.2878 50.784C49.4318 50.3653 49.5038 49.9 49.5038 49.388ZM60.0979 51.168C59.9752 51.6533 59.7939 52.0867 59.5539 52.468C59.3139 52.8467 59.0259 53.168 58.6899 53.432C58.3539 53.6933 57.9739 53.8933 57.5499 54.032C57.1259 54.1707 56.6672 54.24 56.1739 54.24C55.7525 54.24 55.3552 54.1893 54.9819 54.088C54.6085 53.9867 54.2645 53.8413 53.9499 53.652C53.6379 53.46 53.3565 53.228 53.1059 52.956C52.8579 52.6813 52.6472 52.372 52.4739 52.028C52.3032 51.6813 52.1712 51.3027 52.0779 50.892C51.9872 50.4787 51.9419 50.04 51.9419 49.576C51.9419 49.112 51.9872 48.676 52.0779 48.268C52.1685 47.86 52.2992 47.484 52.4699 47.14C52.6405 46.796 52.8485 46.488 53.0939 46.216C53.3419 45.944 53.6205 45.7133 53.9299 45.524C54.2392 45.3347 54.5779 45.1907 54.9459 45.092C55.3165 44.9907 55.7112 44.94 56.1299 44.94C56.7245 44.94 57.2672 45.0453 57.7579 45.256C58.2485 45.464 58.6699 45.7627 59.0219 46.152C59.3739 46.5387 59.6472 47.0093 59.8419 47.564C60.0365 48.116 60.1339 48.736 60.1339 49.424C60.1339 49.5147 60.1325 49.6067 60.1299 49.7C60.1272 49.7933 60.1205 49.8933 60.1099 50H53.1459C53.1805 50.4827 53.2765 50.9187 53.4339 51.308C53.5912 51.6973 53.8019 52.0293 54.0659 52.304C54.3299 52.5787 54.6419 52.7893 55.0019 52.936C55.3619 53.0827 55.7619 53.156 56.2019 53.156C56.8632 53.156 57.4192 52.9893 57.8699 52.656C58.3205 52.32 58.6659 51.824 58.9059 51.168H60.0979ZM58.9219 48.96C58.8845 48.496 58.7912 48.0827 58.6419 47.72C58.4952 47.3547 58.3019 47.0467 58.0619 46.796C57.8219 46.5453 57.5392 46.3547 57.2139 46.224C56.8885 46.0907 56.5285 46.024 56.1339 46.024C55.7205 46.024 55.3432 46.092 55.0019 46.228C54.6605 46.364 54.3619 46.5587 54.1059 46.812C53.8499 47.0653 53.6419 47.3733 53.4819 47.736C53.3219 48.0987 53.2165 48.5067 53.1659 48.96H58.9219ZM64.8403 44.94C65.4003 44.94 65.9056 45.0053 66.3563 45.136C66.8069 45.2667 67.1909 45.4533 67.5083 45.696C67.8256 45.936 68.0696 46.228 68.2403 46.572C68.4136 46.9133 68.5003 47.2947 68.5003 47.716H67.3363C67.3363 47.4547 67.2763 47.2173 67.1563 47.004C67.0389 46.7907 66.8709 46.608 66.6523 46.456C66.4363 46.304 66.1736 46.1867 65.8643 46.104C65.5576 46.0213 65.2163 45.98 64.8403 45.98C64.4909 45.98 64.1656 46.0173 63.8643 46.092C63.5656 46.164 63.3056 46.2667 63.0843 46.4C62.8656 46.5333 62.6936 46.6947 62.5683 46.884C62.4456 47.0707 62.3843 47.2787 62.3843 47.508C62.3843 47.6733 62.4163 47.8187 62.4803 47.944C62.5469 48.0667 62.6363 48.1733 62.7483 48.264C62.8629 48.3547 62.9963 48.432 63.1483 48.496C63.3029 48.56 63.4683 48.616 63.6443 48.664C63.8203 48.7093 64.0043 48.7493 64.1963 48.784C64.3909 48.8187 64.5829 48.8507 64.7723 48.88L65.3283 48.968C65.5763 49.008 65.8349 49.0533 66.1043 49.104C66.3736 49.152 66.6376 49.216 66.8963 49.296C67.1549 49.376 67.4016 49.476 67.6363 49.596C67.8709 49.716 68.0763 49.8653 68.2523 50.044C68.4283 50.2227 68.5683 50.4373 68.6723 50.688C68.7763 50.936 68.8282 51.2293 68.8282 51.568C68.8282 51.9947 68.7416 52.3733 68.5683 52.704C68.3949 53.0347 68.1429 53.3147 67.8123 53.544C67.4843 53.7707 67.0816 53.9427 66.6043 54.06C66.1296 54.18 65.5896 54.24 64.9843 54.24C64.3576 54.24 63.8003 54.176 63.3123 54.048C62.8269 53.9227 62.4176 53.74 62.0843 53.5C61.7509 53.2573 61.4963 52.96 61.3203 52.608C61.1469 52.2533 61.0603 51.8493 61.0603 51.396H62.2283C62.2283 51.684 62.2883 51.94 62.4083 52.164C62.5309 52.3853 62.7083 52.5733 62.9403 52.728C63.1749 52.8827 63.4629 53 63.8043 53.08C64.1456 53.16 64.5376 53.2 64.9803 53.2C65.3909 53.2 65.7616 53.1653 66.0923 53.096C66.4229 53.024 66.7043 52.92 66.9363 52.784C67.1709 52.648 67.3509 52.48 67.4763 52.28C67.6016 52.08 67.6643 51.852 67.6643 51.596C67.6643 51.4013 67.6296 51.232 67.5603 51.088C67.4909 50.9413 67.3949 50.8147 67.2723 50.708C67.1496 50.6013 67.0056 50.5107 66.8403 50.436C66.6749 50.3587 66.4963 50.2933 66.3043 50.24C66.1123 50.184 65.9109 50.136 65.7003 50.096C65.4896 50.056 65.2789 50.0187 65.0683 49.984L64.5203 49.892C64.2856 49.852 64.0416 49.808 63.7883 49.76C63.5349 49.712 63.2856 49.6507 63.0403 49.576C62.7949 49.5013 62.5616 49.4093 62.3403 49.3C62.1216 49.1907 61.9283 49.056 61.7603 48.896C61.5949 48.7333 61.4629 48.5413 61.3643 48.32C61.2656 48.0987 61.2163 47.8373 61.2163 47.536C61.2163 47.1413 61.3029 46.784 61.4763 46.464C61.6523 46.144 61.8989 45.872 62.2163 45.648C62.5336 45.4213 62.9149 45.2467 63.3603 45.124C63.8056 45.0013 64.2989 44.94 64.8403 44.94Z" fill="white"/>
</svg>
