<svg width="40" height="58" viewBox="0 0 40 58" fill="none" xmlns="http://www.w3.org/2000/svg">
<g clip-path="url(#clip0_1587_2292)">
<path d="M15.3573 50.036C15.0692 49.4161 14.6442 48.9542 14.0824 48.6554C13.5181 48.3565 12.9011 48.1812 11.5278 48.1812H9.06197H8.71143V57.4998H11.5278C12.9011 57.4998 13.5181 57.3244 14.0824 57.0256C14.6442 56.7267 15.0692 56.2649 15.3573 55.645C15.643 55.0226 15.6886 54.5978 15.691 52.9207V52.7602C15.691 51.0807 15.643 50.6559 15.3573 50.036ZM13.8735 52.9158C13.8735 53.19 13.8735 53.7358 13.8735 54.0075C13.8735 54.9238 13.1964 56.0031 11.8447 56.0031H10.5242V49.6803H11.8447C13.1964 49.6803 13.8735 50.7596 13.8735 51.676C13.8735 51.9501 13.8735 52.4935 13.8735 52.7676V52.9183V52.9158Z" fill="#AC1F23"/>
<path d="M16.3774 57.4998L19.261 48.1812H21.5587L24.4423 57.4998H22.4999L22.0941 56.2303C22.0101 55.971 21.7628 55.7932 21.4819 55.7932H18.7928L18.2478 57.4998H16.3822H16.3774ZM19.2226 54.3681H21.5203C21.5203 54.3681 20.4375 49.9051 20.4039 49.789H20.327C20.2934 49.9372 19.2226 54.3681 19.2226 54.3681Z" fill="#AC1F23"/>
<path d="M25.8123 57.4998V49.705L23.3369 49.6803V48.1812H30.1172V49.705H27.6418V57.4998H25.8123Z" fill="#AC1F23"/>
<path d="M30.8027 57.4998V48.1812H32.6179V57.4998H30.8027Z" fill="#AC1F23"/>
<path d="M36.6746 57.4997C36.2184 57.4997 35.7838 57.4528 35.3733 57.3565C34.9627 57.2602 34.6026 57.1021 34.2928 56.8773C33.9831 56.6551 33.7406 56.3661 33.5629 56.0129C33.3829 55.6523 33.294 55.2028 33.2964 54.6669C33.2964 54.6347 33.2988 54.6026 33.3012 54.5705C33.306 54.5236 33.3084 54.4841 33.3084 54.447H35.0996C35.0996 54.4742 35.0996 54.5088 35.0924 54.5508C35.09 54.5804 35.0876 54.6273 35.0852 54.657C35.0828 54.9657 35.1428 55.2152 35.27 55.4078C35.3925 55.5955 35.5701 55.7338 35.803 55.8203C36.0359 55.9067 36.3168 55.9512 36.6482 55.9512C36.8427 55.9512 37.0203 55.9388 37.1812 55.9116C37.3421 55.8845 37.4837 55.845 37.6062 55.7882C37.7286 55.7314 37.8294 55.6597 37.9111 55.5708C37.9903 55.4844 38.0527 55.3856 38.096 55.2769C38.1392 55.1682 38.1584 55.0423 38.1584 54.904C38.1584 54.6693 38.0936 54.4742 37.9615 54.3211C37.8294 54.168 37.6518 54.0395 37.4285 53.9358C37.2052 53.8321 36.9531 53.7357 36.6722 53.6468C36.3937 53.5604 36.1056 53.469 35.8078 53.3727C35.5125 53.2763 35.2244 53.1627 34.9435 53.0318C34.665 52.9009 34.4153 52.7379 34.1944 52.5403C33.9735 52.3427 33.7982 52.1007 33.6686 51.8142C33.5365 51.5252 33.4717 51.1819 33.4717 50.7794C33.4717 50.3249 33.5533 49.9347 33.719 49.6062C33.8847 49.2777 34.1152 49.011 34.4105 48.801C34.7058 48.5911 35.0467 48.4355 35.4333 48.3367C35.8174 48.2354 36.2304 48.186 36.6722 48.186C37.114 48.186 37.5197 48.2354 37.8967 48.3367C38.2736 48.438 38.6026 48.5911 38.8883 48.7961C39.1716 49.0011 39.3949 49.2678 39.5557 49.5963C39.7166 49.9248 39.7982 50.32 39.7982 50.7818V50.9794H38.0455V50.8485C38.0455 50.6139 37.9927 50.4113 37.8871 50.2459C37.7814 50.0804 37.6278 49.952 37.4309 49.8606C37.2316 49.7692 36.9843 49.7223 36.689 49.7223C36.4105 49.7223 36.1656 49.7544 35.9591 49.8211C35.7526 49.8877 35.5918 49.9865 35.4837 50.1224C35.3733 50.2582 35.318 50.4262 35.318 50.6262C35.318 50.8436 35.3829 51.0288 35.5149 51.177C35.647 51.3252 35.8246 51.4511 36.0479 51.5499C36.2712 51.6512 36.5233 51.7451 36.8042 51.8315C37.0827 51.9179 37.3709 52.0093 37.6686 52.1007C37.9639 52.1921 38.2496 52.3032 38.5257 52.4341C38.8018 52.565 39.0515 52.728 39.2748 52.9182C39.4981 53.1109 39.6758 53.348 39.8078 53.632C39.9399 53.916 40.0047 54.2593 40.0047 54.6594C40.0047 55.3312 39.8631 55.8771 39.5798 56.2969C39.2964 56.7168 38.9051 57.0231 38.4057 57.2132C37.9063 57.4059 37.3301 57.5022 36.6794 57.5022L36.6746 57.4997Z" fill="#AC1F23"/>
<path d="M39.8968 16.0588V42.8243H13.8872C11.0132 42.8243 8.68427 40.4261 8.68427 37.4722H34.6963V16.0588C34.6963 10.1337 30.0504 5.35211 24.2881 5.35211H5.20288C2.33133 5.35211 0 2.95391 0 0H24.2857C32.8884 0 39.8968 7.20942 39.8968 16.0588Z" fill="#AC1F23"/>
<path d="M29.4879 26.7646H8.68115V32.1168H29.4879V26.7646Z" fill="#AC1F23"/>
<path d="M29.4879 18.7358H8.68115V24.088H29.4879V18.7358Z" fill="#AC1F23"/>
<path d="M8.68115 16.0577V10.7056H24.285C27.1613 10.7056 29.4879 13.1013 29.4879 16.0577H8.68115Z" fill="#AC1F23"/>
</g>
<defs>
<clipPath id="clip0_1587_2292">
<rect width="40" height="57.5" fill="white"/>
</clipPath>
</defs>
</svg>
