<svg width="72" height="58" viewBox="0 0 72 58" fill="none" xmlns="http://www.w3.org/2000/svg">
<path d="M42.4676 35.9999L13.5 19.3246L29.7146 9.7959L58.5 26.6544L42.4676 35.9999Z" fill="white" stroke="black" stroke-width="0.5"/>
<path d="M42.4676 31.6015L13.5 14.9262L29.7146 5.39746L58.5 22.256L42.4676 31.6015Z" fill="white" stroke="black" stroke-width="0.5"/>
<path d="M42.4676 27.204L13.5 10.5287L29.7146 1L58.5 17.8585L42.4676 27.204Z" fill="#363636" stroke="black" stroke-width="0.5"/>
<path d="M1.06888 54V52.588C1.06888 52.1453 1.12488 51.756 1.23688 51.42C1.35154 51.084 1.50488 50.7893 1.69688 50.536C1.89154 50.28 2.11821 50.0613 2.37688 49.88C2.63554 49.696 2.91021 49.5373 3.20088 49.404C3.49154 49.2707 3.79154 49.156 4.10088 49.06C4.41021 48.964 4.71154 48.8773 5.00488 48.8L5.49688 48.664C5.78221 48.5867 6.05688 48.5107 6.32088 48.436C6.58754 48.3613 6.83554 48.2773 7.06488 48.184C7.29688 48.0907 7.50888 47.984 7.70088 47.864C7.89288 47.744 8.05688 47.6013 8.19288 47.436C8.32888 47.2707 8.43421 47.08 8.50888 46.864C8.58621 46.6453 8.62488 46.3907 8.62488 46.1C8.62488 45.724 8.55288 45.376 8.40888 45.056C8.26754 44.7333 8.06354 44.4547 7.79688 44.22C7.53021 43.9853 7.20754 43.8013 6.82888 43.668C6.45021 43.5347 6.02621 43.468 5.55688 43.468C5.06621 43.468 4.62354 43.5413 4.22888 43.688C3.83421 43.832 3.49821 44.0387 3.22088 44.308C2.94354 44.5747 2.72888 44.8987 2.57688 45.28C2.42754 45.6587 2.35287 46.0813 2.35287 46.548V46.772H1.12088V46.528C1.12088 45.8827 1.22488 45.3013 1.43288 44.784C1.64088 44.264 1.93821 43.8213 2.32488 43.456C2.71421 43.0907 3.18621 42.8107 3.74088 42.616C4.29821 42.4187 4.92354 42.32 5.61688 42.32C6.28354 42.32 6.87954 42.4107 7.40488 42.592C7.93021 42.7707 8.37421 43.0253 8.73688 43.356C9.09954 43.6867 9.37688 44.0827 9.56888 44.544C9.76088 45.0053 9.85688 45.5187 9.85688 46.084C9.85688 46.5213 9.80221 46.904 9.69288 47.232C9.58354 47.5573 9.43421 47.8413 9.24487 48.084C9.05554 48.3267 8.83554 48.5333 8.58488 48.704C8.33421 48.8747 8.06621 49.0213 7.78088 49.144C7.49821 49.264 7.20621 49.3667 6.90488 49.452C6.60621 49.5347 6.31421 49.612 6.02888 49.684L5.42488 49.848C5.17688 49.9093 4.92621 49.9773 4.67288 50.052C4.42221 50.124 4.18088 50.2093 3.94888 50.308C3.71688 50.4067 3.49954 50.5227 3.29688 50.656C3.09421 50.7893 2.91821 50.948 2.76888 51.132C2.61954 51.3133 2.50221 51.524 2.41688 51.764C2.33154 52.0013 2.28888 52.276 2.28888 52.588V52.852H9.82088V54H1.06888ZM20.649 50.172C20.649 50.572 20.597 50.9507 20.493 51.308C20.389 51.6627 20.2397 51.9907 20.045 52.292C19.853 52.5933 19.6183 52.864 19.341 53.104C19.0663 53.344 18.7557 53.548 18.409 53.716C18.0623 53.884 17.6837 54.012 17.273 54.1C16.8623 54.1907 16.4263 54.236 15.965 54.236C15.5357 54.236 15.1237 54.1973 14.729 54.12C14.337 54.0427 13.9717 53.9333 13.633 53.792C13.2943 53.648 12.9877 53.476 12.713 53.276C12.4383 53.0733 12.2037 52.848 12.009 52.6C11.8143 52.352 11.6637 52.0853 11.557 51.8C11.4503 51.512 11.397 51.2107 11.397 50.896V50.808H12.629V50.876C12.629 51.076 12.669 51.2693 12.749 51.456C12.829 51.6427 12.941 51.8173 13.085 51.98C13.2317 52.1427 13.4063 52.2907 13.609 52.424C13.8143 52.5573 14.041 52.672 14.289 52.768C14.537 52.864 14.8023 52.9387 15.085 52.992C15.3703 53.0427 15.6663 53.068 15.973 53.068C16.477 53.068 16.9397 52.9973 17.361 52.856C17.7823 52.712 18.145 52.512 18.449 52.256C18.7557 52 18.993 51.6947 19.161 51.34C19.3317 50.9827 19.417 50.592 19.417 50.168C19.417 49.7547 19.333 49.3893 19.165 49.072C18.997 48.752 18.7623 48.484 18.461 48.268C18.1623 48.0493 17.8063 47.884 17.393 47.772C16.9797 47.66 16.5277 47.604 16.037 47.604C15.629 47.604 15.2397 47.644 14.869 47.724C14.501 47.8013 14.1717 47.9093 13.881 48.048C13.593 48.184 13.3543 48.3453 13.165 48.532C12.9783 48.7187 12.8623 48.92 12.817 49.136H11.585V42.56H19.893V43.708H12.817V48.364C12.9343 48.1053 13.1103 47.8707 13.345 47.66C13.5823 47.4467 13.8623 47.264 14.185 47.112C14.5103 46.96 14.8703 46.8427 15.265 46.76C15.6623 46.6747 16.081 46.632 16.521 46.632C17.1157 46.632 17.665 46.7107 18.169 46.868C18.673 47.0253 19.109 47.256 19.477 47.56C19.845 47.8613 20.1317 48.232 20.337 48.672C20.545 49.1093 20.649 49.6093 20.649 50.172ZM25.5689 42.556H30.6569C31.0622 42.556 31.4449 42.596 31.8049 42.676C32.1649 42.7533 32.4969 42.8667 32.8009 43.016C33.1049 43.1627 33.3782 43.3413 33.6209 43.552C33.8635 43.7627 34.0689 44.0013 34.2369 44.268C34.4049 44.532 34.5342 44.8213 34.6249 45.136C34.7155 45.4507 34.7609 45.784 34.7609 46.136C34.7609 46.6667 34.6609 47.1533 34.4609 47.596C34.2609 48.036 33.9795 48.4147 33.6169 48.732C33.2569 49.0467 32.8249 49.292 32.3209 49.468C31.8195 49.644 31.2649 49.732 30.6569 49.732H26.8009V54H25.5689V42.556ZM30.5689 48.584C31.0222 48.584 31.4315 48.5267 31.7969 48.412C32.1622 48.2973 32.4729 48.1347 32.7289 47.924C32.9849 47.7107 33.1822 47.4533 33.3209 47.152C33.4595 46.8507 33.5289 46.5133 33.5289 46.14C33.5289 45.7667 33.4595 45.4307 33.3209 45.132C33.1849 44.8307 32.9889 44.5747 32.7329 44.364C32.4795 44.1507 32.1715 43.988 31.8089 43.876C31.4462 43.7613 31.0395 43.704 30.5889 43.704H26.8009V48.584H30.5689ZM35.6186 48.12C35.6186 47.6373 35.7093 47.2 35.8906 46.808C36.0746 46.416 36.336 46.0827 36.6746 45.808C37.0133 45.5307 37.4226 45.3173 37.9026 45.168C38.3853 45.0187 38.924 44.944 39.5186 44.944C40.156 44.944 40.7266 45.032 41.2306 45.208C41.7373 45.3813 42.1666 45.632 42.5186 45.96C42.8706 46.288 43.14 46.6893 43.3266 47.164C43.5133 47.636 43.6066 48.172 43.6066 48.772V54H42.4146V51.54C42.3053 51.9427 42.1306 52.3093 41.8906 52.64C41.6506 52.9707 41.3586 53.2547 41.0146 53.492C40.6733 53.7293 40.288 53.9133 39.8586 54.044C39.432 54.1747 38.9773 54.24 38.4946 54.24C38.0226 54.24 37.5933 54.1773 37.2066 54.052C36.82 53.9267 36.4893 53.7507 36.2146 53.524C35.9426 53.2947 35.732 53.02 35.5826 52.7C35.4333 52.3773 35.3586 52.0187 35.3586 51.624C35.3586 51.2293 35.436 50.8787 35.5906 50.572C35.7453 50.2627 35.9706 50.0027 36.2666 49.792C36.5626 49.5813 36.9266 49.4213 37.3586 49.312C37.7933 49.2027 38.2906 49.148 38.8506 49.148H42.4146V48.772C42.4146 48.3453 42.348 47.9627 42.2146 47.624C42.0813 47.2827 41.8893 46.9947 41.6386 46.76C41.388 46.5227 41.0813 46.3413 40.7186 46.216C40.3586 46.0907 39.952 46.028 39.4986 46.028C39.0586 46.028 38.6706 46.0787 38.3346 46.18C38.0013 46.2787 37.7213 46.4187 37.4946 46.6C37.2706 46.7813 37.1 47.0013 36.9826 47.26C36.868 47.516 36.8106 47.8027 36.8106 48.12H35.6186ZM38.8426 50.16C38.0693 50.16 37.4906 50.2787 37.1066 50.516C36.7253 50.7533 36.5346 51.112 36.5346 51.592C36.5346 51.8427 36.5853 52.068 36.6866 52.268C36.788 52.4653 36.9346 52.6333 37.1266 52.772C37.3213 52.908 37.5586 53.012 37.8386 53.084C38.1186 53.156 38.4373 53.192 38.7946 53.192C39.1306 53.192 39.4533 53.1613 39.7626 53.1C40.072 53.036 40.36 52.948 40.6266 52.836C40.896 52.7213 41.14 52.584 41.3586 52.424C41.58 52.264 41.768 52.0867 41.9226 51.892C42.08 51.6947 42.2013 51.484 42.2866 51.26C42.372 51.0333 42.4146 50.7987 42.4146 50.556V50.16H38.8426ZM53.1489 45.18V52.64C53.1489 53.0987 53.1035 53.532 53.0129 53.94C52.9222 54.3453 52.7915 54.7187 52.6209 55.06C52.4502 55.404 52.2422 55.712 51.9969 55.984C51.7542 56.2587 51.4795 56.4907 51.1729 56.68C50.8662 56.872 50.5302 57.0187 50.1649 57.12C49.7995 57.2213 49.4115 57.272 49.0009 57.272C48.6409 57.272 48.2969 57.2333 47.9689 57.156C47.6435 57.0787 47.3395 56.968 47.0569 56.824C46.7769 56.6827 46.5222 56.5107 46.2929 56.308C46.0662 56.1053 45.8715 55.8787 45.7089 55.628C45.5489 55.3773 45.4249 55.1053 45.3369 54.812C45.2515 54.5213 45.2089 54.2147 45.2089 53.892H46.4009C46.4009 54.2253 46.4675 54.5347 46.6009 54.82C46.7342 55.1053 46.9182 55.352 47.1529 55.56C47.3875 55.7707 47.6635 55.9347 47.9809 56.052C48.2982 56.172 48.6409 56.232 49.0089 56.232C49.4489 56.232 49.8502 56.1453 50.2129 55.972C50.5755 55.7987 50.8862 55.5547 51.1449 55.24C51.4035 54.9253 51.6035 54.5467 51.7449 54.104C51.8862 53.664 51.9569 53.176 51.9569 52.64V50.892C51.8449 51.34 51.6822 51.7467 51.4689 52.112C51.2582 52.4747 51.0049 52.784 50.7089 53.04C50.4155 53.296 50.0835 53.4933 49.7129 53.632C49.3449 53.7707 48.9475 53.84 48.5209 53.84C48.1609 53.84 47.8182 53.7907 47.4929 53.692C47.1702 53.5933 46.8715 53.452 46.5969 53.268C46.3249 53.084 46.0782 52.86 45.8569 52.596C45.6382 52.332 45.4515 52.036 45.2969 51.708C45.1422 51.3773 45.0235 51.0173 44.9409 50.628C44.8582 50.236 44.8169 49.8227 44.8169 49.388C44.8169 48.9533 44.8582 48.5413 44.9409 48.152C45.0235 47.7627 45.1422 47.404 45.2969 47.076C45.4515 46.7453 45.6382 46.448 45.8569 46.184C46.0782 45.92 46.3249 45.696 46.5969 45.512C46.8715 45.328 47.1702 45.1867 47.4929 45.088C47.8182 44.9893 48.1609 44.94 48.5209 44.94C48.9502 44.94 49.3489 45.0093 49.7169 45.148C50.0875 45.2867 50.4195 45.484 50.7129 45.74C51.0062 45.9933 51.2582 46.3013 51.4689 46.664C51.6822 47.0267 51.8449 47.432 51.9569 47.88V45.18H53.1489ZM51.9569 49.388C51.9569 48.876 51.8849 48.412 51.7409 47.996C51.5969 47.5773 51.3915 47.22 51.1249 46.924C50.8582 46.628 50.5355 46.4 50.1569 46.24C49.7809 46.0773 49.3595 45.996 48.8929 45.996C48.4422 45.996 48.0382 46.0733 47.6809 46.228C47.3235 46.38 47.0209 46.6013 46.7729 46.892C46.5249 47.1827 46.3355 47.5387 46.2049 47.96C46.0742 48.3787 46.0089 48.8547 46.0089 49.388C46.0089 49.9213 46.0742 50.3987 46.2049 50.82C46.3382 51.2387 46.5289 51.5947 46.7769 51.888C47.0249 52.1787 47.3262 52.4013 47.6809 52.556C48.0382 52.708 48.4422 52.784 48.8929 52.784C49.3595 52.784 49.7809 52.704 50.1569 52.544C50.5355 52.3813 50.8582 52.152 51.1249 51.856C51.3915 51.56 51.5969 51.2027 51.7409 50.784C51.8849 50.3653 51.9569 49.9 51.9569 49.388ZM62.551 51.168C62.4283 51.6533 62.247 52.0867 62.007 52.468C61.767 52.8467 61.479 53.168 61.143 53.432C60.807 53.6933 60.427 53.8933 60.003 54.032C59.579 54.1707 59.1203 54.24 58.627 54.24C58.2057 54.24 57.8083 54.1893 57.435 54.088C57.0617 53.9867 56.7177 53.8413 56.403 53.652C56.091 53.46 55.8097 53.228 55.559 52.956C55.311 52.6813 55.1003 52.372 54.927 52.028C54.7563 51.6813 54.6243 51.3027 54.531 50.892C54.4403 50.4787 54.395 50.04 54.395 49.576C54.395 49.112 54.4403 48.676 54.531 48.268C54.6217 47.86 54.7523 47.484 54.923 47.14C55.0937 46.796 55.3017 46.488 55.547 46.216C55.795 45.944 56.0737 45.7133 56.383 45.524C56.6923 45.3347 57.031 45.1907 57.399 45.092C57.7697 44.9907 58.1643 44.94 58.583 44.94C59.1777 44.94 59.7203 45.0453 60.211 45.256C60.7017 45.464 61.123 45.7627 61.475 46.152C61.827 46.5387 62.1003 47.0093 62.295 47.564C62.4897 48.116 62.587 48.736 62.587 49.424C62.587 49.5147 62.5857 49.6067 62.583 49.7C62.5803 49.7933 62.5737 49.8933 62.563 50H55.599C55.6337 50.4827 55.7297 50.9187 55.887 51.308C56.0443 51.6973 56.255 52.0293 56.519 52.304C56.783 52.5787 57.095 52.7893 57.455 52.936C57.815 53.0827 58.215 53.156 58.655 53.156C59.3163 53.156 59.8723 52.9893 60.323 52.656C60.7737 52.32 61.119 51.824 61.359 51.168H62.551ZM61.375 48.96C61.3377 48.496 61.2443 48.0827 61.095 47.72C60.9483 47.3547 60.755 47.0467 60.515 46.796C60.275 46.5453 59.9923 46.3547 59.667 46.224C59.3417 46.0907 58.9817 46.024 58.587 46.024C58.1737 46.024 57.7963 46.092 57.455 46.228C57.1137 46.364 56.815 46.5587 56.559 46.812C56.303 47.0653 56.095 47.3733 55.935 47.736C55.775 48.0987 55.6697 48.5067 55.619 48.96H61.375ZM67.2934 44.94C67.8534 44.94 68.3587 45.0053 68.8094 45.136C69.26 45.2667 69.644 45.4533 69.9614 45.696C70.2787 45.936 70.5227 46.228 70.6934 46.572C70.8667 46.9133 70.9534 47.2947 70.9534 47.716H69.7894C69.7894 47.4547 69.7294 47.2173 69.6094 47.004C69.492 46.7907 69.324 46.608 69.1054 46.456C68.8894 46.304 68.6267 46.1867 68.3174 46.104C68.0107 46.0213 67.6694 45.98 67.2934 45.98C66.944 45.98 66.6187 46.0173 66.3174 46.092C66.0187 46.164 65.7587 46.2667 65.5374 46.4C65.3187 46.5333 65.1467 46.6947 65.0214 46.884C64.8987 47.0707 64.8374 47.2787 64.8374 47.508C64.8374 47.6733 64.8694 47.8187 64.9334 47.944C65 48.0667 65.0894 48.1733 65.2014 48.264C65.316 48.3547 65.4494 48.432 65.6014 48.496C65.756 48.56 65.9214 48.616 66.0974 48.664C66.2734 48.7093 66.4574 48.7493 66.6494 48.784C66.844 48.8187 67.036 48.8507 67.2254 48.88L67.7814 48.968C68.0294 49.008 68.288 49.0533 68.5574 49.104C68.8267 49.152 69.0907 49.216 69.3494 49.296C69.608 49.376 69.8547 49.476 70.0894 49.596C70.324 49.716 70.5294 49.8653 70.7054 50.044C70.8814 50.2227 71.0214 50.4373 71.1254 50.688C71.2294 50.936 71.2814 51.2293 71.2814 51.568C71.2814 51.9947 71.1947 52.3733 71.0214 52.704C70.848 53.0347 70.596 53.3147 70.2654 53.544C69.9374 53.7707 69.5347 53.9427 69.0574 54.06C68.5827 54.18 68.0427 54.24 67.4374 54.24C66.8107 54.24 66.2534 54.176 65.7654 54.048C65.28 53.9227 64.8707 53.74 64.5374 53.5C64.204 53.2573 63.9494 52.96 63.7734 52.608C63.6 52.2533 63.5134 51.8493 63.5134 51.396H64.6814C64.6814 51.684 64.7414 51.94 64.8614 52.164C64.984 52.3853 65.1614 52.5733 65.3934 52.728C65.628 52.8827 65.916 53 66.2574 53.08C66.5987 53.16 66.9907 53.2 67.4334 53.2C67.844 53.2 68.2147 53.1653 68.5454 53.096C68.876 53.024 69.1574 52.92 69.3894 52.784C69.624 52.648 69.804 52.48 69.9294 52.28C70.0547 52.08 70.1174 51.852 70.1174 51.596C70.1174 51.4013 70.0827 51.232 70.0134 51.088C69.944 50.9413 69.848 50.8147 69.7254 50.708C69.6027 50.6013 69.4587 50.5107 69.2934 50.436C69.128 50.3587 68.9494 50.2933 68.7574 50.24C68.5654 50.184 68.364 50.136 68.1534 50.096C67.9427 50.056 67.732 50.0187 67.5214 49.984L66.9734 49.892C66.7387 49.852 66.4947 49.808 66.2414 49.76C65.988 49.712 65.7387 49.6507 65.4934 49.576C65.248 49.5013 65.0147 49.4093 64.7934 49.3C64.5747 49.1907 64.3814 49.056 64.2134 48.896C64.048 48.7333 63.916 48.5413 63.8174 48.32C63.7187 48.0987 63.6694 47.8373 63.6694 47.536C63.6694 47.1413 63.756 46.784 63.9294 46.464C64.1054 46.144 64.352 45.872 64.6694 45.648C64.9867 45.4213 65.368 45.2467 65.8134 45.124C66.2587 45.0013 66.752 44.94 67.2934 44.94Z" fill="white"/>
</svg>
