<svg width="56" height="60" viewBox="0 0 56 60" fill="none" xmlns="http://www.w3.org/2000/svg">
<path d="M19.9967 7.19703e-08C20.325 -9.83562e-05 20.6454 0.100765 20.9143 0.288894C21.1833 0.477024 21.3878 0.743305 21.5 1.05158L26.1091 13.7185L24.3339 18.1901L23.5295 15.9815H16.4656L15.103 19.7244C14.958 20.1228 14.6605 20.4473 14.276 20.6265C13.8915 20.8058 13.4515 20.825 13.0528 20.6801C12.6541 20.5351 12.3293 20.2378 12.15 19.8536C11.9706 19.4693 11.9513 19.0297 12.0964 18.6312L18.495 1.05158C18.6073 0.743305 18.8118 0.477024 19.0807 0.288894C19.3497 0.100765 19.6685 -9.83562e-05 19.9967 7.19703e-08ZM17.6298 12.7852H22.3668L19.9967 6.27434L17.6298 12.7852ZM33.3793 7.23642C33.2614 6.93833 33.0566 6.68255 32.7913 6.50231C32.5261 6.32207 32.2128 6.22569 31.892 6.22569C31.5713 6.22569 31.2579 6.32207 30.9927 6.50231C30.7275 6.68255 30.5226 6.93833 30.4047 7.23642L21.8375 28.8018H21.5976C21.1734 28.8018 20.7667 28.9702 20.4668 29.2699C20.1668 29.5697 19.9983 29.9761 19.9983 30.4C19.9983 30.8239 20.1668 31.2304 20.4668 31.5301C20.7667 31.8298 21.1734 31.9981 21.5976 31.9981H22.8914C22.9127 31.9986 22.934 31.9986 22.9554 31.9981H26.3938C26.8179 31.9981 27.2247 31.8298 27.5246 31.5301C27.8245 31.2304 27.993 30.8239 27.993 30.4C27.993 29.9761 27.8245 29.5697 27.5246 29.2699C27.2247 28.9702 26.8179 28.8018 26.3938 28.8018H25.2791L26.5633 25.5704H37.2032L38.4826 28.8034H37.5886C37.1644 28.8034 36.7576 28.9718 36.4577 29.2715C36.1578 29.5712 35.9893 29.9777 35.9893 30.4016C35.9893 30.8255 36.1578 31.2319 36.4577 31.5317C36.7576 31.8314 37.1644 31.9998 37.5886 31.9998H40.8095C40.8281 32.0001 40.8468 32.0001 40.8655 31.9998H42.4007C42.8249 31.9998 43.2317 31.8314 43.5316 31.5317C43.8315 31.2319 44 30.8255 44 30.4016C44 29.9777 43.8315 29.5712 43.5316 29.2715C43.2317 28.9718 42.8249 28.8034 42.4007 28.8034H41.9242L33.3793 7.23642ZM35.9365 22.3741H27.8331L31.8904 12.1619L35.9365 22.3741Z" fill="white"/>
<path d="M10.58 56H9.348V50.864H2.504V56H1.272V44.556H2.504V49.716H9.348V44.556H10.58V56ZM12.0718 50.12C12.0718 49.6373 12.1624 49.2 12.3438 48.808C12.5278 48.416 12.7891 48.0827 13.1278 47.808C13.4664 47.5307 13.8758 47.3173 14.3558 47.168C14.8384 47.0187 15.3771 46.944 15.9718 46.944C16.6091 46.944 17.1798 47.032 17.6838 47.208C18.1904 47.3813 18.6198 47.632 18.9718 47.96C19.3238 48.288 19.5931 48.6893 19.7798 49.164C19.9664 49.636 20.0598 50.172 20.0598 50.772V56H18.8678V53.54C18.7584 53.9427 18.5838 54.3093 18.3438 54.64C18.1038 54.9707 17.8118 55.2547 17.4678 55.492C17.1264 55.7293 16.7411 55.9133 16.3118 56.044C15.8851 56.1747 15.4304 56.24 14.9478 56.24C14.4758 56.24 14.0464 56.1773 13.6598 56.052C13.2731 55.9267 12.9424 55.7507 12.6678 55.524C12.3958 55.2947 12.1851 55.02 12.0358 54.7C11.8864 54.3773 11.8118 54.0187 11.8118 53.624C11.8118 53.2293 11.8891 52.8787 12.0438 52.572C12.1984 52.2627 12.4238 52.0027 12.7198 51.792C13.0158 51.5813 13.3798 51.4213 13.8118 51.312C14.2464 51.2027 14.7438 51.148 15.3038 51.148H18.8678V50.772C18.8678 50.3453 18.8011 49.9627 18.6678 49.624C18.5344 49.2827 18.3424 48.9947 18.0918 48.76C17.8411 48.5227 17.5344 48.3413 17.1718 48.216C16.8118 48.0907 16.4051 48.028 15.9518 48.028C15.5118 48.028 15.1238 48.0787 14.7878 48.18C14.4544 48.2787 14.1744 48.4187 13.9478 48.6C13.7238 48.7813 13.5531 49.0013 13.4358 49.26C13.3211 49.516 13.2638 49.8027 13.2638 50.12H12.0718ZM15.2958 52.16C14.5224 52.16 13.9438 52.2787 13.5598 52.516C13.1784 52.7533 12.9878 53.112 12.9878 53.592C12.9878 53.8427 13.0384 54.068 13.1398 54.268C13.2411 54.4653 13.3878 54.6333 13.5798 54.772C13.7744 54.908 14.0118 55.012 14.2918 55.084C14.5718 55.156 14.8904 55.192 15.2478 55.192C15.5838 55.192 15.9064 55.1613 16.2158 55.1C16.5251 55.036 16.8131 54.948 17.0798 54.836C17.3491 54.7213 17.5931 54.584 17.8118 54.424C18.0331 54.264 18.2211 54.0867 18.3758 53.892C18.5331 53.6947 18.6544 53.484 18.7398 53.26C18.8251 53.0333 18.8678 52.7987 18.8678 52.556V52.16H15.2958ZM28.142 47.18H29.334V56H28.142V53.38C28.0327 53.8173 27.8727 54.2133 27.662 54.568C27.4513 54.92 27.1993 55.22 26.906 55.468C26.6127 55.716 26.282 55.9067 25.914 56.04C25.546 56.1733 25.1487 56.24 24.722 56.24C24.2153 56.24 23.7593 56.1453 23.354 55.956C22.9513 55.7667 22.6073 55.496 22.322 55.144C22.0393 54.7893 21.822 54.3613 21.67 53.86C21.518 53.356 21.442 52.7907 21.442 52.164V47.18H22.634V52.164C22.634 52.644 22.69 53.0707 22.802 53.444C22.914 53.8147 23.078 54.128 23.294 54.384C23.51 54.6373 23.7767 54.8293 24.094 54.96C24.414 55.0907 24.7807 55.156 25.194 55.156C25.6393 55.156 26.0433 55.0813 26.406 54.932C26.7687 54.78 27.078 54.5653 27.334 54.288C27.5927 54.0107 27.7913 53.676 27.93 53.284C28.0713 52.8893 28.142 52.4493 28.142 51.964V47.18ZM30.5825 51.588C30.5825 51.124 30.6278 50.6867 30.7185 50.276C30.8092 49.8653 30.9398 49.488 31.1105 49.144C31.2838 48.8 31.4932 48.492 31.7385 48.22C31.9865 47.9453 32.2665 47.7133 32.5785 47.524C32.8905 47.3347 33.2318 47.1907 33.6025 47.092C33.9732 46.9907 34.3692 46.94 34.7905 46.94C35.2118 46.94 35.6078 46.9907 35.9785 47.092C36.3492 47.1907 36.6892 47.3347 36.9985 47.524C37.3105 47.7133 37.5892 47.9453 37.8345 48.22C38.0825 48.492 38.2918 48.8 38.4625 49.144C38.6358 49.488 38.7678 49.8653 38.8585 50.276C38.9492 50.6867 38.9945 51.124 38.9945 51.588C38.9945 52.052 38.9492 52.4893 38.8585 52.9C38.7678 53.3107 38.6358 53.6893 38.4625 54.036C38.2918 54.38 38.0825 54.688 37.8345 54.96C37.5892 55.232 37.3105 55.464 36.9985 55.656C36.6892 55.8453 36.3492 55.9893 35.9785 56.088C35.6078 56.1893 35.2118 56.24 34.7905 56.24C34.3718 56.24 33.9758 56.1893 33.6025 56.088C33.2318 55.9893 32.8905 55.8453 32.5785 55.656C32.2665 55.464 31.9865 55.232 31.7385 54.96C31.4932 54.688 31.2838 54.38 31.1105 54.036C30.9398 53.6893 30.8092 53.3107 30.7185 52.9C30.6278 52.4893 30.5825 52.052 30.5825 51.588ZM31.7745 51.588C31.7745 52.1347 31.8452 52.6293 31.9865 53.072C32.1278 53.512 32.3292 53.8867 32.5905 54.196C32.8545 54.5027 33.1718 54.74 33.5425 54.908C33.9158 55.0733 34.3318 55.156 34.7905 55.156C35.2518 55.156 35.6678 55.0733 36.0385 54.908C36.4092 54.74 36.7252 54.5027 36.9865 54.196C37.2478 53.8867 37.4492 53.512 37.5905 53.072C37.7318 52.6293 37.8025 52.1347 37.8025 51.588C37.8025 51.0387 37.7318 50.5453 37.5905 50.108C37.4492 49.668 37.2478 49.2933 36.9865 48.984C36.7252 48.6747 36.4092 48.4373 36.0385 48.272C35.6678 48.1067 35.2518 48.024 34.7905 48.024C34.3318 48.024 33.9158 48.1067 33.5425 48.272C33.1718 48.4373 32.8545 48.6747 32.5905 48.984C32.3292 49.2933 32.1278 49.668 31.9865 50.108C31.8452 50.5453 31.7745 51.0387 31.7745 51.588ZM41.4396 56H40.2476V47.18H41.4396V50.056C41.541 49.5973 41.689 49.1907 41.8836 48.836C42.081 48.4787 42.3236 48.1773 42.6116 47.932C42.9023 47.6867 43.2396 47.5 43.6236 47.372C44.0076 47.244 44.437 47.18 44.9116 47.18H45.3116V48.328H44.9116C44.285 48.328 43.7503 48.3973 43.3076 48.536C42.8676 48.672 42.509 48.88 42.2316 49.16C41.957 49.4373 41.7556 49.7853 41.6276 50.204C41.5023 50.62 41.4396 51.108 41.4396 51.668V56ZM46.1186 50.12C46.1186 49.6373 46.2093 49.2 46.3906 48.808C46.5746 48.416 46.836 48.0827 47.1746 47.808C47.5133 47.5307 47.9226 47.3173 48.4026 47.168C48.8853 47.0187 49.424 46.944 50.0186 46.944C50.656 46.944 51.2266 47.032 51.7306 47.208C52.2373 47.3813 52.6666 47.632 53.0186 47.96C53.3706 48.288 53.64 48.6893 53.8266 49.164C54.0133 49.636 54.1066 50.172 54.1066 50.772V56H52.9146V53.54C52.8053 53.9427 52.6306 54.3093 52.3906 54.64C52.1506 54.9707 51.8586 55.2547 51.5146 55.492C51.1733 55.7293 50.788 55.9133 50.3586 56.044C49.932 56.1747 49.4773 56.24 48.9946 56.24C48.5226 56.24 48.0933 56.1773 47.7066 56.052C47.32 55.9267 46.9893 55.7507 46.7146 55.524C46.4426 55.2947 46.232 55.02 46.0826 54.7C45.9333 54.3773 45.8586 54.0187 45.8586 53.624C45.8586 53.2293 45.936 52.8787 46.0906 52.572C46.2453 52.2627 46.4706 52.0027 46.7666 51.792C47.0626 51.5813 47.4266 51.4213 47.8586 51.312C48.2933 51.2027 48.7906 51.148 49.3506 51.148H52.9146V50.772C52.9146 50.3453 52.848 49.9627 52.7146 49.624C52.5813 49.2827 52.3893 48.9947 52.1386 48.76C51.888 48.5227 51.5813 48.3413 51.2186 48.216C50.8586 48.0907 50.452 48.028 49.9986 48.028C49.5586 48.028 49.1706 48.0787 48.8346 48.18C48.5013 48.2787 48.2213 48.4187 47.9946 48.6C47.7706 48.7813 47.6 49.0013 47.4826 49.26C47.368 49.516 47.3106 49.8027 47.3106 50.12H46.1186ZM49.3426 52.16C48.5693 52.16 47.9906 52.2787 47.6066 52.516C47.2253 52.7533 47.0346 53.112 47.0346 53.592C47.0346 53.8427 47.0853 54.068 47.1866 54.268C47.288 54.4653 47.4346 54.6333 47.6266 54.772C47.8213 54.908 48.0586 55.012 48.3386 55.084C48.6186 55.156 48.9373 55.192 49.2946 55.192C49.6306 55.192 49.9533 55.1613 50.2626 55.1C50.572 55.036 50.86 54.948 51.1266 54.836C51.396 54.7213 51.64 54.584 51.8586 54.424C52.08 54.264 52.268 54.0867 52.4226 53.892C52.58 53.6947 52.7013 53.484 52.7866 53.26C52.872 53.0333 52.9146 52.7987 52.9146 52.556V52.16H49.3426Z" fill="white"/>
</svg>
