<svg width="57" height="57" viewBox="0 0 57 57" fill="none" xmlns="http://www.w3.org/2000/svg">
<rect width="57" height="57" rx="14" fill="#0A1265"/>
<path d="M20.768 40H16.96V19.84H29.28V23.648H20.768V28.016H27.6V31.824H20.768V40ZM24.6077 40V19.84H31.1317C32.121 19.84 32.9237 19.8773 33.5397 19.952C35.117 20.1387 36.475 20.694 37.6137 21.618C38.7617 22.542 39.6343 23.7273 40.2317 25.174C40.829 26.6113 41.1277 28.1933 41.1277 29.92C41.1277 31.6467 40.829 33.2333 40.2317 34.68C39.6343 36.1173 38.7617 37.298 37.6137 38.222C36.475 39.146 35.117 39.7013 33.5397 39.888C32.9237 39.9627 32.121 40 31.1317 40H24.6077ZM31.1317 36.416C32.121 36.416 32.849 36.3693 33.3157 36.276C34.1557 36.108 34.8557 35.7113 35.4157 35.086C35.985 34.4513 36.405 33.686 36.6757 32.79C36.9557 31.8847 37.0957 30.928 37.0957 29.92C37.0957 28.884 36.951 27.9133 36.6617 27.008C36.3817 26.1027 35.957 25.342 35.3877 24.726C34.8277 24.11 34.137 23.7227 33.3157 23.564C32.849 23.4707 32.121 23.424 31.1317 23.424H28.4717V36.416H31.1317Z" fill="#EAF5A6"/>
</svg>
