<svg width="58" height="60" viewBox="0 0 58 60" fill="none" xmlns="http://www.w3.org/2000/svg">
<path d="M20.9967 7.19703e-08C21.325 -9.83562e-05 21.6454 0.100765 21.9143 0.288894C22.1833 0.477024 22.3878 0.743305 22.5 1.05158L27.1091 13.7185L25.3339 18.1901L24.5295 15.9815H17.4656L16.103 19.7244C15.958 20.1228 15.6605 20.4473 15.276 20.6265C14.8915 20.8058 14.4515 20.825 14.0528 20.6801C13.6541 20.5351 13.3293 20.2378 13.15 19.8536C12.9706 19.4693 12.9513 19.0297 13.0964 18.6312L19.495 1.05158C19.6073 0.743305 19.8118 0.477024 20.0807 0.288894C20.3497 0.100765 20.6685 -9.83562e-05 20.9967 7.19703e-08ZM18.6298 12.7852H23.3668L20.9967 6.27434L18.6298 12.7852ZM34.3793 7.23642C34.2614 6.93833 34.0566 6.68255 33.7913 6.50231C33.5261 6.32207 33.2128 6.22569 32.892 6.22569C32.5713 6.22569 32.2579 6.32207 31.9927 6.50231C31.7275 6.68255 31.5226 6.93833 31.4047 7.23642L22.8375 28.8018H22.5976C22.1734 28.8018 21.7667 28.9702 21.4668 29.2699C21.1668 29.5697 20.9983 29.9761 20.9983 30.4C20.9983 30.8239 21.1668 31.2304 21.4668 31.5301C21.7667 31.8298 22.1734 31.9981 22.5976 31.9981H23.8914C23.9127 31.9986 23.934 31.9986 23.9554 31.9981H27.3938C27.8179 31.9981 28.2247 31.8298 28.5246 31.5301C28.8245 31.2304 28.993 30.8239 28.993 30.4C28.993 29.9761 28.8245 29.5697 28.5246 29.2699C28.2247 28.9702 27.8179 28.8018 27.3938 28.8018H26.2791L27.5633 25.5704H38.2032L39.4826 28.8034H38.5886C38.1644 28.8034 37.7576 28.9718 37.4577 29.2715C37.1578 29.5712 36.9893 29.9777 36.9893 30.4016C36.9893 30.8255 37.1578 31.2319 37.4577 31.5317C37.7576 31.8314 38.1644 31.9998 38.5886 31.9998H41.8095C41.8281 32.0001 41.8468 32.0001 41.8655 31.9998H43.4007C43.8249 31.9998 44.2317 31.8314 44.5316 31.5317C44.8315 31.2319 45 30.8255 45 30.4016C45 29.9777 44.8315 29.5712 44.5316 29.2715C44.2317 28.9718 43.8249 28.8034 43.4007 28.8034H42.9242L34.3793 7.23642ZM36.9365 22.3741H28.8331L32.8904 12.1619L36.9365 22.3741Z" fill="white"/>
<path d="M10.716 56H8.756L1.98 45.416V56H0.772V44.56H2.892L9.512 54.856V44.56H10.716V56ZM12.0044 51.588C12.0044 51.124 12.0497 50.6867 12.1404 50.276C12.231 49.8653 12.3617 49.488 12.5324 49.144C12.7057 48.8 12.915 48.492 13.1604 48.22C13.4084 47.9453 13.6884 47.7133 14.0004 47.524C14.3124 47.3347 14.6537 47.1907 15.0244 47.092C15.395 46.9907 15.791 46.94 16.2124 46.94C16.6337 46.94 17.0297 46.9907 17.4004 47.092C17.771 47.1907 18.111 47.3347 18.4204 47.524C18.7324 47.7133 19.011 47.9453 19.2564 48.22C19.5044 48.492 19.7137 48.8 19.8844 49.144C20.0577 49.488 20.1897 49.8653 20.2804 50.276C20.371 50.6867 20.4164 51.124 20.4164 51.588C20.4164 52.052 20.371 52.4893 20.2804 52.9C20.1897 53.3107 20.0577 53.6893 19.8844 54.036C19.7137 54.38 19.5044 54.688 19.2564 54.96C19.011 55.232 18.7324 55.464 18.4204 55.656C18.111 55.8453 17.771 55.9893 17.4004 56.088C17.0297 56.1893 16.6337 56.24 16.2124 56.24C15.7937 56.24 15.3977 56.1893 15.0244 56.088C14.6537 55.9893 14.3124 55.8453 14.0004 55.656C13.6884 55.464 13.4084 55.232 13.1604 54.96C12.915 54.688 12.7057 54.38 12.5324 54.036C12.3617 53.6893 12.231 53.3107 12.1404 52.9C12.0497 52.4893 12.0044 52.052 12.0044 51.588ZM13.1964 51.588C13.1964 52.1347 13.267 52.6293 13.4084 53.072C13.5497 53.512 13.751 53.8867 14.0124 54.196C14.2764 54.5027 14.5937 54.74 14.9644 54.908C15.3377 55.0733 15.7537 55.156 16.2124 55.156C16.6737 55.156 17.0897 55.0733 17.4604 54.908C17.831 54.74 18.147 54.5027 18.4084 54.196C18.6697 53.8867 18.871 53.512 19.0124 53.072C19.1537 52.6293 19.2244 52.1347 19.2244 51.588C19.2244 51.0387 19.1537 50.5453 19.0124 50.108C18.871 49.668 18.6697 49.2933 18.4084 48.984C18.147 48.6747 17.831 48.4373 17.4604 48.272C17.0897 48.1067 16.6737 48.024 16.2124 48.024C15.7537 48.024 15.3377 48.1067 14.9644 48.272C14.5937 48.4373 14.2764 48.6747 14.0124 48.984C13.751 49.2933 13.5497 49.668 13.4084 50.108C13.267 50.5453 13.1964 51.0387 13.1964 51.588ZM22.8615 56H21.6695V44.16H22.8615V49.8C22.9708 49.3627 23.1308 48.968 23.3415 48.616C23.5522 48.2613 23.8042 47.96 24.0975 47.712C24.3908 47.464 24.7215 47.2733 25.0895 47.14C25.4575 47.0067 25.8548 46.94 26.2815 46.94C26.7882 46.94 27.2428 47.0347 27.6455 47.224C28.0508 47.4133 28.3948 47.6853 28.6775 48.04C28.9628 48.392 29.1815 48.82 29.3335 49.324C29.4855 49.8253 29.5615 50.3893 29.5615 51.016V56H28.3695V51.016C28.3695 50.536 28.3135 50.1107 28.2015 49.74C28.0895 49.3667 27.9255 49.0533 27.7095 48.8C27.4935 48.544 27.2268 48.3507 26.9095 48.22C26.5922 48.0893 26.2268 48.024 25.8135 48.024C25.3655 48.024 24.9602 48.1 24.5975 48.252C24.2348 48.4013 23.9242 48.6147 23.6655 48.892C23.4095 49.1693 23.2108 49.5053 23.0695 49.9C22.9308 50.292 22.8615 50.7307 22.8615 51.216V56ZM38.926 53.168C38.8033 53.6533 38.622 54.0867 38.382 54.468C38.142 54.8467 37.854 55.168 37.518 55.432C37.182 55.6933 36.802 55.8933 36.378 56.032C35.954 56.1707 35.4953 56.24 35.002 56.24C34.5807 56.24 34.1833 56.1893 33.81 56.088C33.4367 55.9867 33.0927 55.8413 32.778 55.652C32.466 55.46 32.1847 55.228 31.934 54.956C31.686 54.6813 31.4753 54.372 31.302 54.028C31.1313 53.6813 30.9993 53.3027 30.906 52.892C30.8153 52.4787 30.77 52.04 30.77 51.576C30.77 51.112 30.8153 50.676 30.906 50.268C30.9967 49.86 31.1273 49.484 31.298 49.14C31.4687 48.796 31.6767 48.488 31.922 48.216C32.17 47.944 32.4487 47.7133 32.758 47.524C33.0673 47.3347 33.406 47.1907 33.774 47.092C34.1447 46.9907 34.5393 46.94 34.958 46.94C35.5527 46.94 36.0953 47.0453 36.586 47.256C37.0767 47.464 37.498 47.7627 37.85 48.152C38.202 48.5387 38.4753 49.0093 38.67 49.564C38.8647 50.116 38.962 50.736 38.962 51.424C38.962 51.5147 38.9607 51.6067 38.958 51.7C38.9553 51.7933 38.9487 51.8933 38.938 52H31.974C32.0087 52.4827 32.1047 52.9187 32.262 53.308C32.4193 53.6973 32.63 54.0293 32.894 54.304C33.158 54.5787 33.47 54.7893 33.83 54.936C34.19 55.0827 34.59 55.156 35.03 55.156C35.6913 55.156 36.2473 54.9893 36.698 54.656C37.1487 54.32 37.494 53.824 37.734 53.168H38.926ZM37.75 50.96C37.7127 50.496 37.6193 50.0827 37.47 49.72C37.3233 49.3547 37.13 49.0467 36.89 48.796C36.65 48.5453 36.3673 48.3547 36.042 48.224C35.7167 48.0907 35.3567 48.024 34.962 48.024C34.5487 48.024 34.1713 48.092 33.83 48.228C33.4887 48.364 33.19 48.5587 32.934 48.812C32.678 49.0653 32.47 49.3733 32.31 49.736C32.15 50.0987 32.0447 50.5067 31.994 50.96H37.75ZM41.4084 56H40.2164V47.18H41.4084V49.72C41.5124 49.2933 41.6617 48.9093 41.8564 48.568C42.051 48.224 42.2817 47.932 42.5484 47.692C42.815 47.4493 43.115 47.264 43.4484 47.136C43.7817 47.0053 44.1404 46.94 44.5244 46.94C44.9244 46.94 45.2897 47.0107 45.6204 47.152C45.9537 47.2933 46.2457 47.4973 46.4964 47.764C46.7497 48.028 46.9577 48.3507 47.1204 48.732C47.2857 49.1133 47.4017 49.544 47.4684 50.024C47.5564 49.5547 47.695 49.1307 47.8844 48.752C48.0764 48.3707 48.3084 48.0467 48.5804 47.78C48.855 47.5107 49.167 47.304 49.5164 47.16C49.8657 47.0133 50.243 46.94 50.6484 46.94C51.1124 46.94 51.5297 47.0347 51.9004 47.224C52.2737 47.4133 52.5897 47.6853 52.8484 48.04C53.1097 48.392 53.3097 48.82 53.4484 49.324C53.5897 49.8253 53.6604 50.3893 53.6604 51.016V56H52.4684V51.016C52.4684 50.536 52.4177 50.1107 52.3164 49.74C52.2177 49.3667 52.071 49.0533 51.8764 48.8C51.6844 48.544 51.4457 48.3507 51.1604 48.22C50.875 48.0893 50.547 48.024 50.1764 48.024C49.7764 48.024 49.4137 48.1 49.0884 48.252C48.763 48.4013 48.4857 48.6147 48.2564 48.892C48.027 49.1693 47.8497 49.5053 47.7244 49.9C47.599 50.292 47.5364 50.7307 47.5364 51.216V56H46.3444V51.016C46.3444 50.536 46.2937 50.1107 46.1924 49.74C46.0937 49.3667 45.947 49.0533 45.7524 48.8C45.5604 48.544 45.3217 48.3507 45.0364 48.22C44.751 48.0893 44.423 48.024 44.0524 48.024C43.6524 48.024 43.2897 48.1 42.9644 48.252C42.639 48.4013 42.3604 48.6147 42.1284 48.892C41.899 49.1693 41.7217 49.5053 41.5964 49.9C41.471 50.292 41.4084 50.7307 41.4084 51.216V56ZM56.3874 45.92H54.9874V44.292H56.3874V45.92ZM56.2834 56H55.0914V47.18H56.2834V56Z" fill="white"/>
</svg>
