<svg width="62" height="58" viewBox="0 0 62 58" fill="none" xmlns="http://www.w3.org/2000/svg">
<path d="M37.4676 35.9999L8.5 19.3246L24.7146 9.7959L53.5 26.6544L37.4676 35.9999Z" fill="white" stroke="black" stroke-width="0.5"/>
<path d="M37.4676 31.6015L8.5 14.9262L24.7146 5.39746L53.5 22.256L37.4676 31.6015Z" fill="white" stroke="black" stroke-width="0.5"/>
<path d="M37.4676 27.204L8.5 10.5287L24.7146 1L53.5 17.8585L37.4676 27.204Z" fill="#363636" stroke="black" stroke-width="0.5"/>
<path d="M5.75744 54.24C5.01344 54.24 4.34144 54.1627 3.74144 54.008C3.1441 53.856 2.6361 53.6373 2.21744 53.352C1.79877 53.0667 1.4761 52.72 1.24944 52.312C1.02544 51.904 0.913438 51.4467 0.913438 50.94C0.913438 50.5507 0.980104 50.196 1.11344 49.876C1.24677 49.5533 1.44144 49.2693 1.69744 49.024C1.95344 48.7787 2.2681 48.5733 2.64144 48.408C3.01744 48.2427 3.44544 48.124 3.92544 48.052C3.50944 47.988 3.13877 47.8827 2.81344 47.736C2.4881 47.5893 2.2121 47.4067 1.98544 47.188C1.76144 46.9693 1.58944 46.7173 1.46944 46.432C1.3521 46.144 1.29344 45.8307 1.29344 45.492C1.29344 45.18 1.34277 44.8853 1.44144 44.608C1.54277 44.328 1.68677 44.0707 1.87344 43.836C2.0601 43.6013 2.28677 43.3907 2.55344 43.204C2.8201 43.0147 3.12144 42.8547 3.45744 42.724C3.79344 42.5933 4.15877 42.4933 4.55344 42.424C4.95077 42.3547 5.3721 42.32 5.81744 42.32C6.4841 42.32 7.09344 42.3973 7.64544 42.552C8.19744 42.704 8.67077 42.92 9.06544 43.2C9.46277 43.4773 9.77077 43.8107 9.98944 44.2C10.2081 44.5893 10.3174 45.0187 10.3174 45.488C10.3174 45.832 10.2574 46.1467 10.1374 46.432C10.0201 46.7173 9.8481 46.9707 9.62144 47.192C9.39477 47.4107 9.1161 47.5933 8.78544 47.74C8.45744 47.884 8.0841 47.988 7.66544 48.052C8.1481 48.1187 8.57477 48.2307 8.94544 48.388C9.31877 48.5427 9.6321 48.74 9.88544 48.98C10.1414 49.22 10.3348 49.4987 10.4654 49.816C10.5961 50.1333 10.6614 50.4867 10.6614 50.876C10.6614 51.3933 10.5468 51.86 10.3174 52.276C10.0908 52.6893 9.76544 53.0427 9.34144 53.336C8.91744 53.6267 8.40277 53.8493 7.79744 54.004C7.1921 54.1613 6.5121 54.24 5.75744 54.24ZM5.79344 47.616C6.32944 47.616 6.80144 47.572 7.20944 47.484C7.61744 47.396 7.9601 47.2667 8.23744 47.096C8.51477 46.9227 8.7241 46.7093 8.86544 46.456C9.00677 46.2027 9.07744 45.9107 9.07744 45.58C9.07744 45.244 9.0041 44.9453 8.85744 44.684C8.71344 44.4227 8.50277 44.2027 8.22544 44.024C7.9481 43.8427 7.60544 43.7053 7.19744 43.612C6.7921 43.516 6.32944 43.468 5.80944 43.468C5.28677 43.468 4.82144 43.516 4.41344 43.612C4.00544 43.7053 3.66144 43.844 3.38144 44.028C3.10144 44.2093 2.8881 44.432 2.74144 44.696C2.59477 44.9573 2.52144 45.256 2.52144 45.592C2.52144 46.2507 2.8001 46.7533 3.35744 47.1C3.91477 47.444 4.72677 47.616 5.79344 47.616ZM5.78944 53.092C6.37344 53.092 6.8921 53.0413 7.34544 52.94C7.79877 52.8387 8.17877 52.6893 8.48544 52.492C8.79477 52.292 9.02944 52.048 9.18944 51.76C9.34944 51.4693 9.42944 51.136 9.42944 50.76C9.42944 50.04 9.1281 49.5 8.52544 49.14C7.92277 48.7773 7.01077 48.596 5.78944 48.596C4.5761 48.596 3.66544 48.7747 3.05744 49.132C2.44944 49.4893 2.14544 50.0307 2.14544 50.756C2.14544 51.132 2.22544 51.4653 2.38544 51.756C2.54544 52.044 2.7801 52.288 3.08944 52.488C3.39877 52.6853 3.77877 52.836 4.22944 52.94C4.68277 53.0413 5.20277 53.092 5.78944 53.092ZM15.5923 42.556H20.6803C21.0856 42.556 21.4683 42.596 21.8283 42.676C22.1883 42.7533 22.5203 42.8667 22.8243 43.016C23.1283 43.1627 23.4016 43.3413 23.6443 43.552C23.887 43.7627 24.0923 44.0013 24.2603 44.268C24.4283 44.532 24.5576 44.8213 24.6483 45.136C24.739 45.4507 24.7843 45.784 24.7843 46.136C24.7843 46.6667 24.6843 47.1533 24.4843 47.596C24.2843 48.036 24.003 48.4147 23.6403 48.732C23.2803 49.0467 22.8483 49.292 22.3443 49.468C21.843 49.644 21.2883 49.732 20.6803 49.732H16.8243V54H15.5923V42.556ZM20.5923 48.584C21.0456 48.584 21.455 48.5267 21.8203 48.412C22.1856 48.2973 22.4963 48.1347 22.7523 47.924C23.0083 47.7107 23.2056 47.4533 23.3443 47.152C23.483 46.8507 23.5523 46.5133 23.5523 46.14C23.5523 45.7667 23.483 45.4307 23.3443 45.132C23.2083 44.8307 23.0123 44.5747 22.7563 44.364C22.503 44.1507 22.195 43.988 21.8323 43.876C21.4696 43.7613 21.063 43.704 20.6123 43.704H16.8243V48.584H20.5923ZM25.6421 48.12C25.6421 47.6373 25.7327 47.2 25.9141 46.808C26.0981 46.416 26.3594 46.0827 26.6981 45.808C27.0367 45.5307 27.4461 45.3173 27.9261 45.168C28.4087 45.0187 28.9474 44.944 29.5421 44.944C30.1794 44.944 30.7501 45.032 31.2541 45.208C31.7607 45.3813 32.1901 45.632 32.5421 45.96C32.8941 46.288 33.1634 46.6893 33.3501 47.164C33.5367 47.636 33.6301 48.172 33.6301 48.772V54H32.4381V51.54C32.3287 51.9427 32.1541 52.3093 31.9141 52.64C31.6741 52.9707 31.3821 53.2547 31.0381 53.492C30.6967 53.7293 30.3114 53.9133 29.8821 54.044C29.4554 54.1747 29.0007 54.24 28.5181 54.24C28.0461 54.24 27.6167 54.1773 27.2301 54.052C26.8434 53.9267 26.5127 53.7507 26.2381 53.524C25.9661 53.2947 25.7554 53.02 25.6061 52.7C25.4567 52.3773 25.3821 52.0187 25.3821 51.624C25.3821 51.2293 25.4594 50.8787 25.6141 50.572C25.7687 50.2627 25.9941 50.0027 26.2901 49.792C26.5861 49.5813 26.9501 49.4213 27.3821 49.312C27.8167 49.2027 28.3141 49.148 28.8741 49.148H32.4381V48.772C32.4381 48.3453 32.3714 47.9627 32.2381 47.624C32.1047 47.2827 31.9127 46.9947 31.6621 46.76C31.4114 46.5227 31.1047 46.3413 30.7421 46.216C30.3821 46.0907 29.9754 46.028 29.5221 46.028C29.0821 46.028 28.6941 46.0787 28.3581 46.18C28.0247 46.2787 27.7447 46.4187 27.5181 46.6C27.2941 46.7813 27.1234 47.0013 27.0061 47.26C26.8914 47.516 26.8341 47.8027 26.8341 48.12H25.6421ZM28.8661 50.16C28.0927 50.16 27.5141 50.2787 27.1301 50.516C26.7487 50.7533 26.5581 51.112 26.5581 51.592C26.5581 51.8427 26.6087 52.068 26.7101 52.268C26.8114 52.4653 26.9581 52.6333 27.1501 52.772C27.3447 52.908 27.5821 53.012 27.8621 53.084C28.1421 53.156 28.4607 53.192 28.8181 53.192C29.1541 53.192 29.4767 53.1613 29.7861 53.1C30.0954 53.036 30.3834 52.948 30.6501 52.836C30.9194 52.7213 31.1634 52.584 31.3821 52.424C31.6034 52.264 31.7914 52.0867 31.9461 51.892C32.1034 51.6947 32.2247 51.484 32.3101 51.26C32.3954 51.0333 32.4381 50.7987 32.4381 50.556V50.16H28.8661ZM43.1723 45.18V52.64C43.1723 53.0987 43.127 53.532 43.0363 53.94C42.9456 54.3453 42.815 54.7187 42.6443 55.06C42.4736 55.404 42.2656 55.712 42.0203 55.984C41.7776 56.2587 41.503 56.4907 41.1963 56.68C40.8896 56.872 40.5536 57.0187 40.1883 57.12C39.823 57.2213 39.435 57.272 39.0243 57.272C38.6643 57.272 38.3203 57.2333 37.9923 57.156C37.667 57.0787 37.363 56.968 37.0803 56.824C36.8003 56.6827 36.5456 56.5107 36.3163 56.308C36.0896 56.1053 35.895 55.8787 35.7323 55.628C35.5723 55.3773 35.4483 55.1053 35.3603 54.812C35.275 54.5213 35.2323 54.2147 35.2323 53.892H36.4243C36.4243 54.2253 36.491 54.5347 36.6243 54.82C36.7576 55.1053 36.9416 55.352 37.1763 55.56C37.411 55.7707 37.687 55.9347 38.0043 56.052C38.3216 56.172 38.6643 56.232 39.0323 56.232C39.4723 56.232 39.8736 56.1453 40.2363 55.972C40.599 55.7987 40.9096 55.5547 41.1683 55.24C41.427 54.9253 41.627 54.5467 41.7683 54.104C41.9096 53.664 41.9803 53.176 41.9803 52.64V50.892C41.8683 51.34 41.7056 51.7467 41.4923 52.112C41.2816 52.4747 41.0283 52.784 40.7323 53.04C40.439 53.296 40.107 53.4933 39.7363 53.632C39.3683 53.7707 38.971 53.84 38.5443 53.84C38.1843 53.84 37.8416 53.7907 37.5163 53.692C37.1936 53.5933 36.895 53.452 36.6203 53.268C36.3483 53.084 36.1016 52.86 35.8803 52.596C35.6616 52.332 35.475 52.036 35.3203 51.708C35.1656 51.3773 35.047 51.0173 34.9643 50.628C34.8816 50.236 34.8403 49.8227 34.8403 49.388C34.8403 48.9533 34.8816 48.5413 34.9643 48.152C35.047 47.7627 35.1656 47.404 35.3203 47.076C35.475 46.7453 35.6616 46.448 35.8803 46.184C36.1016 45.92 36.3483 45.696 36.6203 45.512C36.895 45.328 37.1936 45.1867 37.5163 45.088C37.8416 44.9893 38.1843 44.94 38.5443 44.94C38.9736 44.94 39.3723 45.0093 39.7403 45.148C40.111 45.2867 40.443 45.484 40.7363 45.74C41.0296 45.9933 41.2816 46.3013 41.4923 46.664C41.7056 47.0267 41.8683 47.432 41.9803 47.88V45.18H43.1723ZM41.9803 49.388C41.9803 48.876 41.9083 48.412 41.7643 47.996C41.6203 47.5773 41.415 47.22 41.1483 46.924C40.8816 46.628 40.559 46.4 40.1803 46.24C39.8043 46.0773 39.383 45.996 38.9163 45.996C38.4656 45.996 38.0616 46.0733 37.7043 46.228C37.347 46.38 37.0443 46.6013 36.7963 46.892C36.5483 47.1827 36.359 47.5387 36.2283 47.96C36.0976 48.3787 36.0323 48.8547 36.0323 49.388C36.0323 49.9213 36.0976 50.3987 36.2283 50.82C36.3616 51.2387 36.5523 51.5947 36.8003 51.888C37.0483 52.1787 37.3496 52.4013 37.7043 52.556C38.0616 52.708 38.4656 52.784 38.9163 52.784C39.383 52.784 39.8043 52.704 40.1803 52.544C40.559 52.3813 40.8816 52.152 41.1483 51.856C41.415 51.56 41.6203 51.2027 41.7643 50.784C41.9083 50.3653 41.9803 49.9 41.9803 49.388ZM52.5744 51.168C52.4518 51.6533 52.2704 52.0867 52.0304 52.468C51.7904 52.8467 51.5024 53.168 51.1664 53.432C50.8304 53.6933 50.4504 53.8933 50.0264 54.032C49.6024 54.1707 49.1438 54.24 48.6504 54.24C48.2291 54.24 47.8318 54.1893 47.4584 54.088C47.0851 53.9867 46.7411 53.8413 46.4264 53.652C46.1144 53.46 45.8331 53.228 45.5824 52.956C45.3344 52.6813 45.1238 52.372 44.9504 52.028C44.7798 51.6813 44.6478 51.3027 44.5544 50.892C44.4638 50.4787 44.4184 50.04 44.4184 49.576C44.4184 49.112 44.4638 48.676 44.5544 48.268C44.6451 47.86 44.7758 47.484 44.9464 47.14C45.1171 46.796 45.3251 46.488 45.5704 46.216C45.8184 45.944 46.0971 45.7133 46.4064 45.524C46.7158 45.3347 47.0544 45.1907 47.4224 45.092C47.7931 44.9907 48.1878 44.94 48.6064 44.94C49.2011 44.94 49.7438 45.0453 50.2344 45.256C50.7251 45.464 51.1464 45.7627 51.4984 46.152C51.8504 46.5387 52.1238 47.0093 52.3184 47.564C52.5131 48.116 52.6104 48.736 52.6104 49.424C52.6104 49.5147 52.6091 49.6067 52.6064 49.7C52.6038 49.7933 52.5971 49.8933 52.5864 50H45.6224C45.6571 50.4827 45.7531 50.9187 45.9104 51.308C46.0678 51.6973 46.2784 52.0293 46.5424 52.304C46.8064 52.5787 47.1184 52.7893 47.4784 52.936C47.8384 53.0827 48.2384 53.156 48.6784 53.156C49.3398 53.156 49.8958 52.9893 50.3464 52.656C50.7971 52.32 51.1424 51.824 51.3824 51.168H52.5744ZM51.3984 48.96C51.3611 48.496 51.2678 48.0827 51.1184 47.72C50.9718 47.3547 50.7784 47.0467 50.5384 46.796C50.2984 46.5453 50.0158 46.3547 49.6904 46.224C49.3651 46.0907 49.0051 46.024 48.6104 46.024C48.1971 46.024 47.8198 46.092 47.4784 46.228C47.1371 46.364 46.8384 46.5587 46.5824 46.812C46.3264 47.0653 46.1184 47.3733 45.9584 47.736C45.7984 48.0987 45.6931 48.5067 45.6424 48.96H51.3984ZM57.3168 44.94C57.8768 44.94 58.3821 45.0053 58.8328 45.136C59.2835 45.2667 59.6675 45.4533 59.9848 45.696C60.3021 45.936 60.5461 46.228 60.7168 46.572C60.8901 46.9133 60.9768 47.2947 60.9768 47.716H59.8128C59.8128 47.4547 59.7528 47.2173 59.6328 47.004C59.5155 46.7907 59.3475 46.608 59.1288 46.456C58.9128 46.304 58.6501 46.1867 58.3408 46.104C58.0341 46.0213 57.6928 45.98 57.3168 45.98C56.9675 45.98 56.6421 46.0173 56.3408 46.092C56.0421 46.164 55.7821 46.2667 55.5608 46.4C55.3421 46.5333 55.1701 46.6947 55.0448 46.884C54.9221 47.0707 54.8608 47.2787 54.8608 47.508C54.8608 47.6733 54.8928 47.8187 54.9568 47.944C55.0235 48.0667 55.1128 48.1733 55.2248 48.264C55.3395 48.3547 55.4728 48.432 55.6248 48.496C55.7795 48.56 55.9448 48.616 56.1208 48.664C56.2968 48.7093 56.4808 48.7493 56.6728 48.784C56.8675 48.8187 57.0595 48.8507 57.2488 48.88L57.8048 48.968C58.0528 49.008 58.3115 49.0533 58.5808 49.104C58.8501 49.152 59.1141 49.216 59.3728 49.296C59.6315 49.376 59.8781 49.476 60.1128 49.596C60.3475 49.716 60.5528 49.8653 60.7288 50.044C60.9048 50.2227 61.0448 50.4373 61.1488 50.688C61.2528 50.936 61.3048 51.2293 61.3048 51.568C61.3048 51.9947 61.2181 52.3733 61.0448 52.704C60.8715 53.0347 60.6195 53.3147 60.2888 53.544C59.9608 53.7707 59.5581 53.9427 59.0808 54.06C58.6061 54.18 58.0661 54.24 57.4608 54.24C56.8341 54.24 56.2768 54.176 55.7888 54.048C55.3035 53.9227 54.8941 53.74 54.5608 53.5C54.2275 53.2573 53.9728 52.96 53.7968 52.608C53.6235 52.2533 53.5368 51.8493 53.5368 51.396H54.7048C54.7048 51.684 54.7648 51.94 54.8848 52.164C55.0075 52.3853 55.1848 52.5733 55.4168 52.728C55.6515 52.8827 55.9395 53 56.2808 53.08C56.6221 53.16 57.0141 53.2 57.4568 53.2C57.8675 53.2 58.2381 53.1653 58.5688 53.096C58.8995 53.024 59.1808 52.92 59.4128 52.784C59.6475 52.648 59.8275 52.48 59.9528 52.28C60.0781 52.08 60.1408 51.852 60.1408 51.596C60.1408 51.4013 60.1061 51.232 60.0368 51.088C59.9675 50.9413 59.8715 50.8147 59.7488 50.708C59.6261 50.6013 59.4821 50.5107 59.3168 50.436C59.1515 50.3587 58.9728 50.2933 58.7808 50.24C58.5888 50.184 58.3875 50.136 58.1768 50.096C57.9661 50.056 57.7555 50.0187 57.5448 49.984L56.9968 49.892C56.7621 49.852 56.5181 49.808 56.2648 49.76C56.0115 49.712 55.7621 49.6507 55.5168 49.576C55.2715 49.5013 55.0381 49.4093 54.8168 49.3C54.5981 49.1907 54.4048 49.056 54.2368 48.896C54.0715 48.7333 53.9395 48.5413 53.8408 48.32C53.7421 48.0987 53.6928 47.8373 53.6928 47.536C53.6928 47.1413 53.7795 46.784 53.9528 46.464C54.1288 46.144 54.3755 45.872 54.6928 45.648C55.0101 45.4213 55.3915 45.2467 55.8368 45.124C56.2821 45.0013 56.7755 44.94 57.3168 44.94Z" fill="white"/>
</svg>
