<svg width="66" height="60" viewBox="0 0 66 60" fill="none" xmlns="http://www.w3.org/2000/svg">
<path d="M24.9967 7.19703e-08C25.325 -9.83562e-05 25.6454 0.100765 25.9143 0.288894C26.1833 0.477024 26.3878 0.743305 26.5 1.05158L31.1091 13.7185L29.3339 18.1901L28.5295 15.9815H21.4656L20.103 19.7244C19.958 20.1228 19.6605 20.4473 19.276 20.6265C18.8915 20.8058 18.4515 20.825 18.0528 20.6801C17.6541 20.5351 17.3293 20.2378 17.15 19.8536C16.9706 19.4693 16.9513 19.0297 17.0964 18.6312L23.495 1.05158C23.6073 0.743305 23.8118 0.477024 24.0807 0.288894C24.3497 0.100765 24.6685 -9.83562e-05 24.9967 7.19703e-08ZM22.6298 12.7852H27.3668L24.9967 6.27434L22.6298 12.7852ZM38.3793 7.23642C38.2614 6.93833 38.0566 6.68255 37.7913 6.50231C37.5261 6.32207 37.2128 6.22569 36.892 6.22569C36.5713 6.22569 36.2579 6.32207 35.9927 6.50231C35.7275 6.68255 35.5226 6.93833 35.4047 7.23642L26.8375 28.8018H26.5976C26.1734 28.8018 25.7667 28.9702 25.4668 29.2699C25.1668 29.5697 24.9983 29.9761 24.9983 30.4C24.9983 30.8239 25.1668 31.2304 25.4668 31.5301C25.7667 31.8298 26.1734 31.9981 26.5976 31.9981H27.8914C27.9127 31.9986 27.934 31.9986 27.9554 31.9981H31.3938C31.8179 31.9981 32.2247 31.8298 32.5246 31.5301C32.8245 31.2304 32.993 30.8239 32.993 30.4C32.993 29.9761 32.8245 29.5697 32.5246 29.2699C32.2247 28.9702 31.8179 28.8018 31.3938 28.8018H30.2791L31.5633 25.5704H42.2032L43.4826 28.8034H42.5886C42.1644 28.8034 41.7576 28.9718 41.4577 29.2715C41.1578 29.5712 40.9893 29.9777 40.9893 30.4016C40.9893 30.8255 41.1578 31.2319 41.4577 31.5317C41.7576 31.8314 42.1644 31.9998 42.5886 31.9998H45.8095C45.8281 32.0001 45.8468 32.0001 45.8655 31.9998H47.4007C47.8249 31.9998 48.2317 31.8314 48.5316 31.5317C48.8315 31.2319 49 30.8255 49 30.4016C49 29.9777 48.8315 29.5712 48.5316 29.2715C48.2317 28.9718 47.8249 28.8034 47.4007 28.8034H46.9242L38.3793 7.23642ZM40.9365 22.3741H32.8331L36.8904 12.1619L40.9365 22.3741Z" fill="white"/>
<path d="M2.504 56H1.272V44.56H2.504V56ZM5.20525 56H4.01325V47.18H5.20525V50.056C5.30658 49.5973 5.45458 49.1907 5.64925 48.836C5.84658 48.4787 6.08925 48.1773 6.37725 47.932C6.66792 47.6867 7.00525 47.5 7.38925 47.372C7.77325 47.244 8.20258 47.18 8.67725 47.18H9.07725V48.328H8.67725C8.05058 48.328 7.51592 48.3973 7.07325 48.536C6.63325 48.672 6.27458 48.88 5.99725 49.16C5.72258 49.4373 5.52125 49.7853 5.39325 50.204C5.26792 50.62 5.20525 51.108 5.20525 51.668V56ZM9.88425 50.12C9.88425 49.6373 9.97492 49.2 10.1562 48.808C10.3403 48.416 10.6016 48.0827 10.9403 47.808C11.2789 47.5307 11.6883 47.3173 12.1683 47.168C12.6509 47.0187 13.1896 46.944 13.7843 46.944C14.4216 46.944 14.9923 47.032 15.4963 47.208C16.0029 47.3813 16.4323 47.632 16.7843 47.96C17.1363 48.288 17.4056 48.6893 17.5923 49.164C17.7789 49.636 17.8723 50.172 17.8723 50.772V56H16.6803V53.54C16.5709 53.9427 16.3963 54.3093 16.1563 54.64C15.9163 54.9707 15.6243 55.2547 15.2803 55.492C14.9389 55.7293 14.5536 55.9133 14.1243 56.044C13.6976 56.1747 13.2429 56.24 12.7603 56.24C12.2883 56.24 11.8589 56.1773 11.4723 56.052C11.0856 55.9267 10.7549 55.7507 10.4803 55.524C10.2083 55.2947 9.99758 55.02 9.84825 54.7C9.69892 54.3773 9.62425 54.0187 9.62425 53.624C9.62425 53.2293 9.70158 52.8787 9.85625 52.572C10.0109 52.2627 10.2363 52.0027 10.5323 51.792C10.8283 51.5813 11.1923 51.4213 11.6243 51.312C12.0589 51.2027 12.5563 51.148 13.1163 51.148H16.6803V50.772C16.6803 50.3453 16.6136 49.9627 16.4803 49.624C16.3469 49.2827 16.1549 48.9947 15.9043 48.76C15.6536 48.5227 15.3469 48.3413 14.9843 48.216C14.6243 48.0907 14.2176 48.028 13.7643 48.028C13.3243 48.028 12.9363 48.0787 12.6003 48.18C12.2669 48.2787 11.9869 48.4187 11.7603 48.6C11.5363 48.7813 11.3656 49.0013 11.2483 49.26C11.1336 49.516 11.0763 49.8027 11.0763 50.12H9.88425ZM13.1083 52.16C12.3349 52.16 11.7563 52.2787 11.3723 52.516C10.9909 52.7533 10.8003 53.112 10.8003 53.592C10.8003 53.8427 10.8509 54.068 10.9523 54.268C11.0536 54.4653 11.2003 54.6333 11.3923 54.772C11.5869 54.908 11.8243 55.012 12.1043 55.084C12.3843 55.156 12.7029 55.192 13.0603 55.192C13.3963 55.192 13.7189 55.1613 14.0283 55.1C14.3376 55.036 14.6256 54.948 14.8923 54.836C15.1616 54.7213 15.4056 54.584 15.6243 54.424C15.8456 54.264 16.0336 54.0867 16.1883 53.892C16.3456 53.6947 16.4669 53.484 16.5523 53.26C16.6376 53.0333 16.6803 52.7987 16.6803 52.556V52.16H13.1083ZM20.4865 56H19.2945V47.18H20.4865V49.8C20.5958 49.3627 20.7545 48.968 20.9625 48.616C21.1732 48.2613 21.4252 47.96 21.7185 47.712C22.0145 47.464 22.3465 47.2733 22.7145 47.14C23.0825 47.0067 23.4785 46.94 23.9025 46.94C24.4092 46.94 24.8652 47.0347 25.2705 47.224C25.6758 47.4133 26.0198 47.6853 26.3025 48.04C26.5878 48.392 26.8065 48.82 26.9585 49.324C27.1105 49.8253 27.1865 50.3893 27.1865 51.016V56H25.9945V51.016C25.9945 50.536 25.9385 50.1107 25.8265 49.74C25.7145 49.3667 25.5505 49.0533 25.3345 48.8C25.1185 48.544 24.8505 48.3507 24.5305 48.22C24.2132 48.0893 23.8478 48.024 23.4345 48.024C22.9892 48.024 22.5852 48.1 22.2225 48.252C21.8598 48.4013 21.5492 48.6147 21.2905 48.892C21.0345 49.1693 20.8358 49.5053 20.6945 49.9C20.5558 50.292 20.4865 50.7307 20.4865 51.216V56ZM32.907 44.32C33.5523 44.32 34.139 44.4027 34.667 44.568C35.1977 44.7307 35.6523 44.9667 36.031 45.276C36.4123 45.5827 36.707 45.956 36.915 46.396C37.123 46.8333 37.227 47.3267 37.227 47.876H36.023C36.023 47.5027 35.9457 47.1653 35.791 46.864C35.6363 46.5627 35.4203 46.3067 35.143 46.096C34.8683 45.8853 34.539 45.724 34.155 45.612C33.771 45.4973 33.351 45.44 32.895 45.44C32.6257 45.44 32.3603 45.4613 32.099 45.504C31.8377 45.544 31.591 45.6053 31.359 45.688C31.127 45.7707 30.9123 45.8733 30.715 45.996C30.5177 46.1187 30.347 46.2613 30.203 46.424C30.059 46.5867 29.947 46.7693 29.867 46.972C29.787 47.1747 29.747 47.396 29.747 47.636C29.747 47.8627 29.783 48.0613 29.855 48.232C29.927 48.4 30.0297 48.5467 30.163 48.672C30.2963 48.7947 30.4563 48.8987 30.643 48.984C30.8297 49.0693 31.0377 49.144 31.267 49.208C31.4963 49.272 31.743 49.328 32.007 49.376C32.2737 49.4213 32.5523 49.468 32.843 49.516L33.523 49.628C33.8297 49.676 34.1443 49.7307 34.467 49.792C34.7897 49.8533 35.103 49.932 35.407 50.028C35.7137 50.124 36.0017 50.244 36.271 50.388C36.543 50.532 36.7803 50.7133 36.983 50.932C37.1857 51.1507 37.3457 51.412 37.463 51.716C37.583 52.02 37.643 52.38 37.643 52.796C37.643 53.364 37.5297 53.864 37.303 54.296C37.079 54.7253 36.7643 55.084 36.359 55.372C35.9537 55.66 35.4697 55.876 34.907 56.02C34.347 56.1667 33.7297 56.24 33.055 56.24C32.3323 56.24 31.6803 56.1587 31.099 55.996C30.5177 55.8307 30.023 55.592 29.615 55.28C29.207 54.9653 28.8923 54.5813 28.671 54.128C28.4523 53.6747 28.343 53.1587 28.343 52.58H29.547C29.547 52.98 29.6297 53.3373 29.795 53.652C29.963 53.964 30.199 54.2293 30.503 54.448C30.807 54.6667 31.1737 54.8333 31.603 54.948C32.035 55.0627 32.515 55.12 33.043 55.12C33.5177 55.12 33.9617 55.072 34.375 54.976C34.7883 54.8773 35.147 54.732 35.451 54.54C35.7577 54.3453 35.9977 54.1013 36.171 53.808C36.347 53.5147 36.435 53.172 36.435 52.78C36.435 52.524 36.3977 52.3027 36.323 52.116C36.2483 51.9293 36.143 51.768 36.007 51.632C35.8737 51.496 35.7137 51.3813 35.527 51.288C35.3403 51.1947 35.1337 51.116 34.907 51.052C34.683 50.9853 34.443 50.9293 34.187 50.884C33.9337 50.836 33.671 50.7907 33.399 50.748L32.619 50.62C32.315 50.572 32.0017 50.5187 31.679 50.46C31.359 50.4013 31.0483 50.3267 30.747 50.236C30.4457 50.1453 30.1603 50.0333 29.891 49.9C29.6243 49.764 29.391 49.5947 29.191 49.392C28.991 49.1893 28.8323 48.948 28.715 48.668C28.6003 48.3853 28.543 48.0507 28.543 47.664C28.543 47.304 28.595 46.972 28.699 46.668C28.803 46.3613 28.9497 46.084 29.139 45.836C29.331 45.588 29.559 45.3707 29.823 45.184C30.0897 44.9947 30.3843 44.836 30.707 44.708C31.0323 44.58 31.3803 44.484 31.751 44.42C32.1217 44.3533 32.507 44.32 32.907 44.32ZM38.8843 50.12C38.8843 49.6373 38.9749 49.2 39.1562 48.808C39.3403 48.416 39.6016 48.0827 39.9403 47.808C40.2789 47.5307 40.6883 47.3173 41.1683 47.168C41.6509 47.0187 42.1896 46.944 42.7843 46.944C43.4216 46.944 43.9923 47.032 44.4963 47.208C45.0029 47.3813 45.4323 47.632 45.7843 47.96C46.1363 48.288 46.4056 48.6893 46.5923 49.164C46.7789 49.636 46.8723 50.172 46.8723 50.772V56H45.6803V53.54C45.5709 53.9427 45.3963 54.3093 45.1563 54.64C44.9163 54.9707 44.6243 55.2547 44.2803 55.492C43.9389 55.7293 43.5536 55.9133 43.1243 56.044C42.6976 56.1747 42.2429 56.24 41.7603 56.24C41.2883 56.24 40.8589 56.1773 40.4723 56.052C40.0856 55.9267 39.7549 55.7507 39.4803 55.524C39.2083 55.2947 38.9976 55.02 38.8483 54.7C38.6989 54.3773 38.6243 54.0187 38.6243 53.624C38.6243 53.2293 38.7016 52.8787 38.8563 52.572C39.0109 52.2627 39.2363 52.0027 39.5323 51.792C39.8283 51.5813 40.1923 51.4213 40.6243 51.312C41.0589 51.2027 41.5563 51.148 42.1163 51.148H45.6803V50.772C45.6803 50.3453 45.6136 49.9627 45.4803 49.624C45.3469 49.2827 45.1549 48.9947 44.9043 48.76C44.6536 48.5227 44.3469 48.3413 43.9843 48.216C43.6243 48.0907 43.2176 48.028 42.7643 48.028C42.3243 48.028 41.9363 48.0787 41.6003 48.18C41.2669 48.2787 40.9869 48.4187 40.7603 48.6C40.5363 48.7813 40.3656 49.0013 40.2483 49.26C40.1336 49.516 40.0763 49.8027 40.0763 50.12H38.8843ZM42.1083 52.16C41.3349 52.16 40.7563 52.2787 40.3723 52.516C39.9909 52.7533 39.8003 53.112 39.8003 53.592C39.8003 53.8427 39.8509 54.068 39.9523 54.268C40.0536 54.4653 40.2003 54.6333 40.3923 54.772C40.5869 54.908 40.8243 55.012 41.1043 55.084C41.3843 55.156 41.7029 55.192 42.0603 55.192C42.3963 55.192 42.7189 55.1613 43.0283 55.1C43.3376 55.036 43.6256 54.948 43.8923 54.836C44.1616 54.7213 44.4056 54.584 44.6243 54.424C44.8456 54.264 45.0336 54.0867 45.1883 53.892C45.3456 53.6947 45.4669 53.484 45.5523 53.26C45.6376 53.0333 45.6803 52.7987 45.6803 52.556V52.16H42.1083ZM49.4865 56H48.2945V47.18H49.4865V49.8C49.5958 49.3627 49.7545 48.968 49.9625 48.616C50.1732 48.2613 50.4252 47.96 50.7185 47.712C51.0145 47.464 51.3465 47.2733 51.7145 47.14C52.0825 47.0067 52.4785 46.94 52.9025 46.94C53.4092 46.94 53.8652 47.0347 54.2705 47.224C54.6758 47.4133 55.0198 47.6853 55.3025 48.04C55.5878 48.392 55.8065 48.82 55.9585 49.324C56.1105 49.8253 56.1865 50.3893 56.1865 51.016V56H54.9945V51.016C54.9945 50.536 54.9385 50.1107 54.8265 49.74C54.7145 49.3667 54.5505 49.0533 54.3345 48.8C54.1185 48.544 53.8505 48.3507 53.5305 48.22C53.2132 48.0893 52.8478 48.024 52.4345 48.024C51.9892 48.024 51.5852 48.1 51.2225 48.252C50.8598 48.4013 50.5492 48.6147 50.2905 48.892C50.0345 49.1693 49.8358 49.5053 49.6945 49.9C49.5558 50.292 49.4865 50.7307 49.4865 51.216V56ZM61.059 46.94C61.619 46.94 62.1243 47.0053 62.575 47.136C63.0257 47.2667 63.4097 47.4533 63.727 47.696C64.0443 47.936 64.2883 48.228 64.459 48.572C64.6323 48.9133 64.719 49.2947 64.719 49.716H63.555C63.555 49.4547 63.495 49.2173 63.375 49.004C63.2577 48.7907 63.0897 48.608 62.871 48.456C62.655 48.304 62.3923 48.1867 62.083 48.104C61.7763 48.0213 61.435 47.98 61.059 47.98C60.7097 47.98 60.3843 48.0173 60.083 48.092C59.7843 48.164 59.5243 48.2667 59.303 48.4C59.0843 48.5333 58.9123 48.6947 58.787 48.884C58.6643 49.0707 58.603 49.2787 58.603 49.508C58.603 49.6733 58.635 49.8187 58.699 49.944C58.7657 50.0667 58.855 50.1733 58.967 50.264C59.0817 50.3547 59.215 50.432 59.367 50.496C59.5217 50.56 59.687 50.616 59.863 50.664C60.039 50.7093 60.223 50.7493 60.415 50.784C60.6097 50.8187 60.8017 50.8507 60.991 50.88L61.547 50.968C61.795 51.008 62.0537 51.0533 62.323 51.104C62.5923 51.152 62.8563 51.216 63.115 51.296C63.3737 51.376 63.6203 51.476 63.855 51.596C64.0897 51.716 64.295 51.8653 64.471 52.044C64.647 52.2227 64.787 52.4373 64.891 52.688C64.995 52.936 65.047 53.2293 65.047 53.568C65.047 53.9947 64.9603 54.3733 64.787 54.704C64.6137 55.0347 64.3617 55.3147 64.031 55.544C63.703 55.7707 63.3003 55.9427 62.823 56.06C62.3483 56.18 61.8083 56.24 61.203 56.24C60.5763 56.24 60.019 56.176 59.531 56.048C59.0457 55.9227 58.6363 55.74 58.303 55.5C57.9697 55.2573 57.715 54.96 57.539 54.608C57.3657 54.2533 57.279 53.8493 57.279 53.396H58.447C58.447 53.684 58.507 53.94 58.627 54.164C58.7497 54.3853 58.927 54.5733 59.159 54.728C59.3937 54.8827 59.6817 55 60.023 55.08C60.3643 55.16 60.7563 55.2 61.199 55.2C61.6097 55.2 61.9803 55.1653 62.311 55.096C62.6417 55.024 62.923 54.92 63.155 54.784C63.3897 54.648 63.5697 54.48 63.695 54.28C63.8203 54.08 63.883 53.852 63.883 53.596C63.883 53.4013 63.8483 53.232 63.779 53.088C63.7097 52.9413 63.6137 52.8147 63.491 52.708C63.3683 52.6013 63.2243 52.5107 63.059 52.436C62.8937 52.3587 62.715 52.2933 62.523 52.24C62.331 52.184 62.1297 52.136 61.919 52.096C61.7083 52.056 61.4977 52.0187 61.287 51.984L60.739 51.892C60.5043 51.852 60.2603 51.808 60.007 51.76C59.7537 51.712 59.5043 51.6507 59.259 51.576C59.0137 51.5013 58.7803 51.4093 58.559 51.3C58.3403 51.1907 58.147 51.056 57.979 50.896C57.8137 50.7333 57.6817 50.5413 57.583 50.32C57.4843 50.0987 57.435 49.8373 57.435 49.536C57.435 49.1413 57.5217 48.784 57.695 48.464C57.871 48.144 58.1177 47.872 58.435 47.648C58.7523 47.4213 59.1337 47.2467 59.579 47.124C60.0243 47.0013 60.5177 46.94 61.059 46.94Z" fill="white"/>
</svg>
