<svg width="56" height="56" viewBox="0 0 56 56" fill="none" xmlns="http://www.w3.org/2000/svg">
<path d="M9.79688 1.5H45.7031C50.2853 1.5001 53.9999 5.21468 54 9.79688V45.7031C53.9999 50.2853 50.2853 53.9999 45.7031 54H9.79688C5.21468 53.9999 1.5001 50.2853 1.5 45.7031V9.79688C1.5001 5.21468 5.21468 1.5001 9.79688 1.5Z" stroke="white" stroke-width="2"/>
<path d="M45.7031 1.46191H9.79721C5.19375 1.46191 1.46191 5.19375 1.46191 9.79721V45.7031C1.46191 50.3065 5.19375 54.0384 9.79721 54.0384H45.7031C50.3065 54.0384 54.0384 50.3065 54.0384 45.7031V9.79721C54.0384 5.19375 50.3065 1.46191 45.7031 1.46191Z" stroke="white" stroke-width="2"/>
<path d="M12.041 7.91211H20.6973C22.8007 7.91218 24.5057 9.6173 24.5059 11.7207V20.377C24.5058 22.4804 22.8007 24.1855 20.6973 24.1855H12.041C9.93761 24.1854 8.2325 22.4804 8.23242 20.377V11.7207C8.23255 9.61733 9.93764 7.91223 12.041 7.91211Z" stroke="white" stroke-width="2"/>
<path d="M20.6968 7.87354H12.0409C9.91623 7.87354 8.19385 9.59592 8.19385 11.7206V20.3765C8.19385 22.5011 9.91623 24.2235 12.0409 24.2235H20.6968C22.8215 24.2235 24.5438 22.5011 24.5438 20.3765V11.7206C24.5438 9.59592 22.8215 7.87354 20.6968 7.87354Z" stroke="white" stroke-width="2"/>
<path d="M22.9404 23.582L24.5273 25.1689" stroke="white" stroke-width="2" stroke-linecap="round"/>
<path d="M30.6348 8.19385V13.0027" stroke="white" stroke-width="2" stroke-linecap="round"/>
<path d="M46.9849 8.19385V13.0027" stroke="white" stroke-width="2" stroke-linecap="round"/>
<path d="M46.9848 11.7202V20.3761C46.9848 21.3964 46.5795 22.3749 45.858 23.0964C45.1365 23.8178 44.158 24.2232 43.1377 24.2232H34.4818C33.4615 24.2232 32.483 23.8178 31.7615 23.0964C31.0401 22.3749 30.6348 21.3964 30.6348 20.3761V11.7202" stroke="white" stroke-width="2"/>
<path d="M46.7446 31.4775L38.8105 39.4117" stroke="white" stroke-width="2" stroke-linecap="round"/>
<path d="M38.8105 39.1309V47.4662" stroke="white" stroke-width="2" stroke-linecap="round"/>
<path d="M30.8765 31.4775L38.8106 39.4117" stroke="white" stroke-width="2" stroke-linecap="round"/>
<path d="M21.0176 31.3145C21.9427 31.3145 22.8302 31.6818 23.4844 32.3359C24.1385 32.9901 24.5059 33.8776 24.5059 34.8027V35.7646C24.5058 36.6897 24.1385 37.5773 23.4844 38.2314C22.8302 38.8855 21.9426 39.2529 21.0176 39.2529H8.23242V31.3145H21.0176Z" stroke="white" stroke-width="2"/>
<path d="M8.51444 31.2764H21.0174C21.9527 31.2764 22.8496 31.6479 23.511 32.3092C24.1723 32.9706 24.5438 33.8676 24.5438 34.8028V35.7646C24.5438 36.6999 24.1723 37.5969 23.511 38.2582C22.8496 38.9195 21.9527 39.2911 21.0174 39.2911H8.51444C8.42941 39.2911 8.34787 39.2573 8.28775 39.1972C8.22762 39.1371 8.19385 39.0555 8.19385 38.9705V31.597C8.19385 31.5119 8.22762 31.4304 8.28775 31.3703C8.34787 31.3101 8.42941 31.2764 8.51444 31.2764V31.2764Z" stroke="white" stroke-width="2"/>
<path d="M21.0176 39.3286C21.9427 39.3286 22.8302 39.696 23.4844 40.3501C24.1385 41.0043 24.5059 41.8918 24.5059 42.8169V44.0991C24.5059 45.0243 24.1385 45.9117 23.4844 46.5659C22.8302 47.2201 21.9427 47.5874 21.0176 47.5874H8.23242V39.3286H21.0176Z" stroke="white" stroke-width="2"/>
<path d="M8.51444 39.2905H21.0174C21.9527 39.2905 22.8496 39.6621 23.511 40.3234C24.1723 40.9847 24.5438 41.8817 24.5438 42.817V44.0994C24.5438 45.0346 24.1723 45.9316 23.511 46.5929C22.8496 47.2543 21.9527 47.6258 21.0174 47.6258H8.51444C8.42941 47.6258 8.34787 47.592 8.28775 47.5319C8.22762 47.4718 8.19385 47.3903 8.19385 47.3052V39.6111C8.19385 39.5261 8.22762 39.4445 8.28775 39.3844C8.34787 39.3243 8.42941 39.2905 8.51444 39.2905V39.2905Z" stroke="white" stroke-width="2"/>
</svg>
