<svg width="87" height="63" viewBox="0 0 87 63" fill="none" xmlns="http://www.w3.org/2000/svg">
<path d="M34.7771 0.209961C35.1464 0.20985 35.5068 0.323321 35.8094 0.534967C36.1119 0.746613 36.342 1.04618 36.4683 1.39299L41.6535 15.6433L39.6564 20.6739L38.7514 18.1891H30.8045L29.2716 22.3999C29.1085 22.8481 28.7738 23.2132 28.3412 23.4148C27.9087 23.6164 27.4137 23.6381 26.9651 23.475C26.5166 23.3119 26.1512 22.9775 25.9495 22.5452C25.7477 22.113 25.726 21.6183 25.8892 21.1701L33.0877 1.39299C33.214 1.04618 33.444 0.746613 33.7466 0.534967C34.0492 0.323321 34.4078 0.20985 34.7771 0.209961ZM32.1143 14.5933H37.4435L34.7771 7.26859L32.1143 14.5933ZM49.8325 8.35093C49.6999 8.01558 49.4694 7.72783 49.171 7.52506C48.8726 7.32229 48.5201 7.21386 48.1593 7.21386C47.7984 7.21386 47.4459 7.32229 47.1476 7.52506C46.8492 7.72783 46.6187 8.01558 46.4861 8.35093L36.8479 32.612H36.5781C36.1009 32.612 35.6433 32.8015 35.3059 33.1386C34.9684 33.4758 34.7789 33.9331 34.7789 34.41C34.7789 34.8868 34.9684 35.3441 35.3059 35.6813C35.6433 36.0185 36.1009 36.2079 36.5781 36.2079H38.0336C38.0576 36.2084 38.0816 36.2084 38.1055 36.2079H41.9738C42.4509 36.2079 42.9085 36.0185 43.246 35.6813C43.5834 35.3441 43.7729 34.8868 43.7729 34.41C43.7729 33.9331 43.5834 33.4758 43.246 33.1386C42.9085 32.8015 42.4509 32.612 41.9738 32.612H40.7197L42.1645 28.9767H54.1343L55.5736 32.6138H54.5679C54.0907 32.6138 53.6331 32.8033 53.2957 33.1404C52.9583 33.4776 52.7687 33.9349 52.7687 34.4118C52.7687 34.8886 52.9583 35.3459 53.2957 35.6831C53.6331 36.0203 54.0907 36.2097 54.5679 36.2097H58.1914C58.2124 36.2101 58.2334 36.2101 58.2544 36.2097H59.9816C60.4588 36.2097 60.9164 36.0203 61.2538 35.6831C61.5912 35.3459 61.7808 34.8886 61.7808 34.4118C61.7808 33.9349 61.5912 33.4776 61.2538 33.1404C60.9164 32.8033 60.4588 32.6138 59.9816 32.6138H59.4454L49.8325 8.35093ZM52.7094 25.3808H43.593L48.1575 13.8921L52.7094 25.3808Z" fill="white"/>
<path d="M0.932762 58.6812L5.44076 47.2372H7.25276L11.7128 58.6812H10.4008L9.18876 55.5572H3.44076L2.21676 58.6812H0.932762ZM8.75676 54.4372L6.33276 48.1932L3.88076 54.4372H8.75676ZM19.5386 49.8572L16.1226 58.6772H14.3066L10.9346 49.8572H12.1786L15.2306 57.8892L18.3226 49.8572H19.5386ZM27.9099 55.8452C27.7872 56.3306 27.6059 56.7639 27.3659 57.1452C27.1259 57.5239 26.8379 57.8452 26.5019 58.1092C26.1659 58.3706 25.7859 58.5706 25.3619 58.7092C24.9379 58.8479 24.4792 58.9172 23.9859 58.9172C23.5646 58.9172 23.1672 58.8666 22.7939 58.7652C22.4206 58.6639 22.0766 58.5186 21.7619 58.3292C21.4499 58.1372 21.1686 57.9052 20.9179 57.6332C20.6699 57.3586 20.4592 57.0492 20.2859 56.7052C20.1152 56.3586 19.9832 55.9799 19.8899 55.5692C19.7992 55.1559 19.7539 54.7172 19.7539 54.2532C19.7539 53.7892 19.7992 53.3532 19.8899 52.9452C19.9806 52.5372 20.1112 52.1612 20.2819 51.8172C20.4526 51.4732 20.6606 51.1652 20.9059 50.8932C21.1539 50.6212 21.4326 50.3906 21.7419 50.2012C22.0512 50.0119 22.3899 49.8679 22.7579 49.7692C23.1286 49.6679 23.5232 49.6172 23.9419 49.6172C24.5366 49.6172 25.0792 49.7226 25.5699 49.9332C26.0606 50.1412 26.4819 50.4399 26.8339 50.8292C27.1859 51.2159 27.4592 51.6866 27.6539 52.2412C27.8486 52.7932 27.9459 53.4132 27.9459 54.1012C27.9459 54.1919 27.9446 54.2839 27.9419 54.3772C27.9392 54.4706 27.9326 54.5706 27.9219 54.6772H20.9579C20.9926 55.1599 21.0886 55.5959 21.2459 55.9852C21.4032 56.3746 21.6139 56.7066 21.8779 56.9812C22.1419 57.2559 22.4539 57.4666 22.8139 57.6132C23.1739 57.7599 23.5739 57.8332 24.0139 57.8332C24.6752 57.8332 25.2312 57.6666 25.6819 57.3332C26.1326 56.9972 26.4779 56.5012 26.7179 55.8452H27.9099ZM26.7339 53.6372C26.6966 53.1732 26.6032 52.7599 26.4539 52.3972C26.3072 52.0319 26.1139 51.7239 25.8739 51.4732C25.6339 51.2226 25.3512 51.0319 25.0259 50.9012C24.7006 50.7679 24.3406 50.7012 23.9459 50.7012C23.5326 50.7012 23.1552 50.7692 22.8139 50.9052C22.4726 51.0412 22.1739 51.2359 21.9179 51.4892C21.6619 51.7426 21.4539 52.0506 21.2939 52.4132C21.1339 52.7759 21.0286 53.1839 20.9779 53.6372H26.7339ZM30.3923 58.6772H29.2003V49.8572H30.3923V52.4772C30.5016 52.0399 30.6603 51.6452 30.8683 51.2932C31.0789 50.9386 31.3309 50.6372 31.6243 50.3892C31.9203 50.1412 32.2523 49.9506 32.6203 49.8172C32.9883 49.6839 33.3843 49.6172 33.8083 49.6172C34.3149 49.6172 34.7709 49.7119 35.1763 49.9012C35.5816 50.0906 35.9256 50.3626 36.2083 50.7172C36.4936 51.0692 36.7123 51.4972 36.8643 52.0012C37.0163 52.5026 37.0923 53.0666 37.0923 53.6932V58.6772H35.9003V53.6932C35.9003 53.2132 35.8443 52.7879 35.7323 52.4172C35.6203 52.0439 35.4563 51.7306 35.2403 51.4772C35.0243 51.2212 34.7563 51.0279 34.4363 50.8972C34.1189 50.7666 33.7536 50.7012 33.3403 50.7012C32.8949 50.7012 32.4909 50.7772 32.1283 50.9292C31.7656 51.0786 31.4549 51.2919 31.1963 51.5692C30.9403 51.8466 30.7416 52.1826 30.6003 52.5772C30.4616 52.9692 30.3923 53.4079 30.3923 53.8932V58.6772ZM39.8088 48.5972H38.4088V46.9692H39.8088V48.5972ZM39.7048 58.6772H38.5128V49.8572H39.7048V58.6772ZM42.361 58.6772H41.169V49.8572H42.361V52.7332C42.4623 52.2746 42.6103 51.8679 42.805 51.5132C43.0023 51.1559 43.245 50.8546 43.533 50.6092C43.8237 50.3639 44.161 50.1772 44.545 50.0492C44.929 49.9212 45.3583 49.8572 45.833 49.8572H46.233V51.0052H45.833C45.2063 51.0052 44.6717 51.0746 44.229 51.2132C43.789 51.3492 43.4303 51.5572 43.153 51.8372C42.8783 52.1146 42.677 52.4626 42.549 52.8812C42.4237 53.2972 42.361 53.7852 42.361 54.3452V58.6772ZM60.903 58.6772H58.943L52.167 48.0932V58.6772H50.959V47.2372H53.079L59.699 57.5332V47.2372H60.903V58.6772ZM70.3474 55.8452C70.2247 56.3306 70.0434 56.7639 69.8034 57.1452C69.5634 57.5239 69.2754 57.8452 68.9394 58.1092C68.6034 58.3706 68.2234 58.5706 67.7994 58.7092C67.3754 58.8479 66.9167 58.9172 66.4234 58.9172C66.0021 58.9172 65.6047 58.8666 65.2314 58.7652C64.8581 58.6639 64.5141 58.5186 64.1994 58.3292C63.8874 58.1372 63.6061 57.9052 63.3554 57.6332C63.1074 57.3586 62.8967 57.0492 62.7234 56.7052C62.5527 56.3586 62.4207 55.9799 62.3274 55.5692C62.2367 55.1559 62.1914 54.7172 62.1914 54.2532C62.1914 53.7892 62.2367 53.3532 62.3274 52.9452C62.4181 52.5372 62.5487 52.1612 62.7194 51.8172C62.8901 51.4732 63.0981 51.1652 63.3434 50.8932C63.5914 50.6212 63.8701 50.3906 64.1794 50.2012C64.4887 50.0119 64.8274 49.8679 65.1954 49.7692C65.5661 49.6679 65.9607 49.6172 66.3794 49.6172C66.9741 49.6172 67.5167 49.7226 68.0074 49.9332C68.4981 50.1412 68.9194 50.4399 69.2714 50.8292C69.6234 51.2159 69.8967 51.6866 70.0914 52.2412C70.2861 52.7932 70.3834 53.4132 70.3834 54.1012C70.3834 54.1919 70.3821 54.2839 70.3794 54.3772C70.3767 54.4706 70.3701 54.5706 70.3594 54.6772H63.3954C63.4301 55.1599 63.5261 55.5959 63.6834 55.9852C63.8407 56.3746 64.0514 56.7066 64.3154 56.9812C64.5794 57.2559 64.8914 57.4666 65.2514 57.6132C65.6114 57.7599 66.0114 57.8332 66.4514 57.8332C67.1127 57.8332 67.6687 57.6666 68.1194 57.3332C68.5701 56.9972 68.9154 56.5012 69.1554 55.8452H70.3474ZM69.1714 53.6372C69.1341 53.1732 69.0407 52.7599 68.8914 52.3972C68.7447 52.0319 68.5514 51.7239 68.3114 51.4732C68.0714 51.2226 67.7887 51.0319 67.4634 50.9012C67.1381 50.7679 66.7781 50.7012 66.3834 50.7012C65.9701 50.7012 65.5927 50.7692 65.2514 50.9052C64.9101 51.0412 64.6114 51.2359 64.3554 51.4892C64.0994 51.7426 63.8914 52.0506 63.7314 52.4132C63.5714 52.7759 63.4661 53.1839 63.4154 53.6372H69.1714ZM75.7068 54.2092L79.4308 58.6772H77.9988L74.7948 54.8652L71.6668 58.6772H70.3028L73.9668 54.2172L70.4228 49.8572H71.8548L74.8788 53.5532L77.8228 49.8572H79.1828L75.7068 54.2092ZM85.6026 58.6332C84.984 58.8199 84.424 58.9132 83.9226 58.9132C83.096 58.9132 82.4653 58.6572 82.0306 58.1452C81.5986 57.6332 81.3826 56.8812 81.3826 55.8892V50.8692H80.0746V49.8572H81.3826V47.8252H82.5746V49.8572H85.6026V50.8692H82.5746V55.8932C82.5746 56.5546 82.6986 57.0452 82.9466 57.3652C83.1946 57.6852 83.5826 57.8452 84.1106 57.8452C84.3026 57.8452 84.52 57.8252 84.7626 57.7852C85.008 57.7426 85.288 57.6786 85.6026 57.5932V58.6332Z" fill="white"/>
</svg>
