<svg width="62" height="60" viewBox="0 0 62 60" fill="none" xmlns="http://www.w3.org/2000/svg">
<path d="M38.1767 38.3903L5.99048 20.2858L24.0067 9.94043L55.9905 28.2438L38.1767 38.3903Z" fill="white" stroke="black" stroke-width="0.436145"/>
<path d="M38.1767 33.6139L5.99048 15.5095L24.0067 5.16406L55.9905 23.4675L38.1767 33.6139Z" fill="white" stroke="black" stroke-width="0.436145"/>
<path d="M38.1767 28.84L5.99048 10.7355L24.0067 0.390137L55.9905 18.6935L38.1767 28.84Z" fill="#363636" stroke="black" stroke-width="0.436145"/>
<path d="M10.4754 51.7955C10.4754 52.1955 10.4234 52.5742 10.3194 52.9315C10.2154 53.2862 10.0661 53.6142 9.87142 53.9155C9.67942 54.2169 9.44475 54.4875 9.16742 54.7275C8.89275 54.9675 8.58208 55.1715 8.23542 55.3395C7.88875 55.5075 7.51008 55.6355 7.09942 55.7235C6.68875 55.8142 6.25275 55.8595 5.79142 55.8595C5.36208 55.8595 4.95008 55.8209 4.55542 55.7435C4.16342 55.6662 3.79808 55.5569 3.45942 55.4155C3.12075 55.2715 2.81408 55.0995 2.53942 54.8995C2.26475 54.6969 2.03008 54.4715 1.83542 54.2235C1.64075 53.9755 1.49008 53.7089 1.38342 53.4235C1.27675 53.1355 1.22342 52.8342 1.22342 52.5195V52.4315H2.45542V52.4995C2.45542 52.6995 2.49542 52.8929 2.57542 53.0795C2.65542 53.2662 2.76742 53.4409 2.91142 53.6035C3.05808 53.7662 3.23275 53.9142 3.43542 54.0475C3.64075 54.1809 3.86742 54.2955 4.11542 54.3915C4.36342 54.4875 4.62875 54.5622 4.91142 54.6155C5.19675 54.6662 5.49275 54.6915 5.79942 54.6915C6.30342 54.6915 6.76608 54.6209 7.18742 54.4795C7.60875 54.3355 7.97142 54.1355 8.27542 53.8795C8.58208 53.6235 8.81942 53.3182 8.98742 52.9635C9.15808 52.6062 9.24342 52.2155 9.24342 51.7915C9.24342 51.3782 9.15942 51.0129 8.99142 50.6955C8.82342 50.3755 8.58875 50.1075 8.28742 49.8915C7.98875 49.6729 7.63275 49.5075 7.21942 49.3955C6.80608 49.2835 6.35408 49.2275 5.86342 49.2275C5.45542 49.2275 5.06608 49.2675 4.69542 49.3475C4.32742 49.4249 3.99808 49.5329 3.70742 49.6715C3.41942 49.8075 3.18075 49.9689 2.99142 50.1555C2.80475 50.3422 2.68875 50.5435 2.64342 50.7595H1.41142V44.1835H9.71942V45.3315H2.64342V49.9875C2.76075 49.7289 2.93675 49.4942 3.17142 49.2835C3.40875 49.0702 3.68875 48.8875 4.01142 48.7355C4.33675 48.5835 4.69675 48.4662 5.09142 48.3835C5.48875 48.2982 5.90742 48.2555 6.34742 48.2555C6.94208 48.2555 7.49142 48.3342 7.99542 48.4915C8.49942 48.6489 8.93542 48.8795 9.30342 49.1835C9.67142 49.4849 9.95808 49.8555 10.1634 50.2955C10.3714 50.7329 10.4754 51.2329 10.4754 51.7955ZM15.3953 44.1795H20.4833C20.8886 44.1795 21.2713 44.2195 21.6313 44.2995C21.9913 44.3769 22.3233 44.4902 22.6273 44.6395C22.9313 44.7862 23.2046 44.9649 23.4473 45.1755C23.69 45.3862 23.8953 45.6249 24.0633 45.8915C24.2313 46.1555 24.3606 46.4449 24.4513 46.7595C24.542 47.0742 24.5873 47.4075 24.5873 47.7595C24.5873 48.2902 24.4873 48.7769 24.2873 49.2195C24.0873 49.6595 23.806 50.0382 23.4433 50.3555C23.0833 50.6702 22.6513 50.9155 22.1473 51.0915C21.646 51.2675 21.0913 51.3555 20.4833 51.3555H16.6273V55.6235H15.3953V44.1795ZM20.3953 50.2075C20.8486 50.2075 21.258 50.1502 21.6233 50.0355C21.9886 49.9209 22.2993 49.7582 22.5553 49.5475C22.8113 49.3342 23.0086 49.0769 23.1473 48.7755C23.286 48.4742 23.3553 48.1369 23.3553 47.7635C23.3553 47.3902 23.286 47.0542 23.1473 46.7555C23.0113 46.4542 22.8153 46.1982 22.5593 45.9875C22.306 45.7742 21.998 45.6115 21.6353 45.4995C21.2726 45.3849 20.866 45.3275 20.4153 45.3275H16.6273V50.2075H20.3953ZM25.445 49.7435C25.445 49.2609 25.5357 48.8235 25.717 48.4315C25.901 48.0395 26.1624 47.7062 26.501 47.4315C26.8397 47.1542 27.249 46.9409 27.729 46.7915C28.2117 46.6422 28.7504 46.5675 29.345 46.5675C29.9824 46.5675 30.553 46.6555 31.057 46.8315C31.5637 47.0049 31.993 47.2555 32.345 47.5835C32.697 47.9115 32.9664 48.3129 33.153 48.7875C33.3397 49.2595 33.433 49.7955 33.433 50.3955V55.6235H32.241V53.1635C32.1317 53.5662 31.957 53.9329 31.717 54.2635C31.477 54.5942 31.185 54.8782 30.841 55.1155C30.4997 55.3529 30.1144 55.5369 29.685 55.6675C29.2584 55.7982 28.8037 55.8635 28.321 55.8635C27.849 55.8635 27.4197 55.8009 27.033 55.6755C26.6464 55.5502 26.3157 55.3742 26.041 55.1475C25.769 54.9182 25.5584 54.6435 25.409 54.3235C25.2597 54.0009 25.185 53.6422 25.185 53.2475C25.185 52.8529 25.2624 52.5022 25.417 52.1955C25.5717 51.8862 25.797 51.6262 26.093 51.4155C26.389 51.2049 26.753 51.0449 27.185 50.9355C27.6197 50.8262 28.117 50.7715 28.677 50.7715H32.241V50.3955C32.241 49.9689 32.1744 49.5862 32.041 49.2475C31.9077 48.9062 31.7157 48.6182 31.465 48.3835C31.2144 48.1462 30.9077 47.9649 30.545 47.8395C30.185 47.7142 29.7784 47.6515 29.325 47.6515C28.885 47.6515 28.497 47.7022 28.161 47.8035C27.8277 47.9022 27.5477 48.0422 27.321 48.2235C27.097 48.4049 26.9264 48.6249 26.809 48.8835C26.6944 49.1395 26.637 49.4262 26.637 49.7435H25.445ZM28.669 51.7835C27.8957 51.7835 27.317 51.9022 26.933 52.1395C26.5517 52.3769 26.361 52.7355 26.361 53.2155C26.361 53.4662 26.4117 53.6915 26.513 53.8915C26.6144 54.0889 26.761 54.2569 26.953 54.3955C27.1477 54.5315 27.385 54.6355 27.665 54.7075C27.945 54.7795 28.2637 54.8155 28.621 54.8155C28.957 54.8155 29.2797 54.7849 29.589 54.7235C29.8984 54.6595 30.1864 54.5715 30.453 54.4595C30.7224 54.3449 30.9664 54.2075 31.185 54.0475C31.4064 53.8875 31.5944 53.7102 31.749 53.5155C31.9064 53.3182 32.0277 53.1075 32.113 52.8835C32.1984 52.6569 32.241 52.4222 32.241 52.1795V51.7835H28.669ZM42.9753 46.8035V54.2635C42.9753 54.7222 42.93 55.1555 42.8393 55.5635C42.7486 55.9689 42.618 56.3422 42.4473 56.6835C42.2766 57.0275 42.0686 57.3355 41.8233 57.6075C41.5806 57.8822 41.306 58.1142 40.9993 58.3035C40.6926 58.4955 40.3566 58.6422 39.9913 58.7435C39.626 58.8449 39.238 58.8955 38.8273 58.8955C38.4673 58.8955 38.1233 58.8569 37.7953 58.7795C37.47 58.7022 37.166 58.5915 36.8833 58.4475C36.6033 58.3062 36.3486 58.1342 36.1193 57.9315C35.8926 57.7289 35.698 57.5022 35.5353 57.2515C35.3753 57.0009 35.2513 56.7289 35.1633 56.4355C35.078 56.1449 35.0353 55.8382 35.0353 55.5155H36.2273C36.2273 55.8489 36.294 56.1582 36.4273 56.4435C36.5606 56.7289 36.7446 56.9755 36.9793 57.1835C37.214 57.3942 37.49 57.5582 37.8073 57.6755C38.1246 57.7955 38.4673 57.8555 38.8353 57.8555C39.2753 57.8555 39.6766 57.7689 40.0393 57.5955C40.402 57.4222 40.7126 57.1782 40.9713 56.8635C41.23 56.5489 41.43 56.1702 41.5713 55.7275C41.7126 55.2875 41.7833 54.7995 41.7833 54.2635V52.5155C41.6713 52.9635 41.5086 53.3702 41.2953 53.7355C41.0846 54.0982 40.8313 54.4075 40.5353 54.6635C40.242 54.9195 39.91 55.1169 39.5393 55.2555C39.1713 55.3942 38.774 55.4635 38.3473 55.4635C37.9873 55.4635 37.6446 55.4142 37.3193 55.3155C36.9966 55.2169 36.698 55.0755 36.4233 54.8915C36.1513 54.7075 35.9046 54.4835 35.6833 54.2195C35.4646 53.9555 35.278 53.6595 35.1233 53.3315C34.9686 53.0009 34.85 52.6409 34.7673 52.2515C34.6846 51.8595 34.6433 51.4462 34.6433 51.0115C34.6433 50.5769 34.6846 50.1649 34.7673 49.7755C34.85 49.3862 34.9686 49.0275 35.1233 48.6995C35.278 48.3689 35.4646 48.0715 35.6833 47.8075C35.9046 47.5435 36.1513 47.3195 36.4233 47.1355C36.698 46.9515 36.9966 46.8102 37.3193 46.7115C37.6446 46.6129 37.9873 46.5635 38.3473 46.5635C38.7766 46.5635 39.1753 46.6329 39.5433 46.7715C39.914 46.9102 40.246 47.1075 40.5393 47.3635C40.8326 47.6169 41.0846 47.9249 41.2953 48.2875C41.5086 48.6502 41.6713 49.0555 41.7833 49.5035V46.8035H42.9753ZM41.7833 51.0115C41.7833 50.4995 41.7113 50.0355 41.5673 49.6195C41.4233 49.2009 41.218 48.8435 40.9513 48.5475C40.6846 48.2515 40.362 48.0235 39.9833 47.8635C39.6073 47.7009 39.186 47.6195 38.7193 47.6195C38.2686 47.6195 37.8646 47.6969 37.5073 47.8515C37.15 48.0035 36.8473 48.2249 36.5993 48.5155C36.3513 48.8062 36.162 49.1622 36.0313 49.5835C35.9006 50.0022 35.8353 50.4782 35.8353 51.0115C35.8353 51.5449 35.9006 52.0222 36.0313 52.4435C36.1646 52.8622 36.3553 53.2182 36.6033 53.5115C36.8513 53.8022 37.1526 54.0249 37.5073 54.1795C37.8646 54.3315 38.2686 54.4075 38.7193 54.4075C39.186 54.4075 39.6073 54.3275 39.9833 54.1675C40.362 54.0049 40.6846 53.7755 40.9513 53.4795C41.218 53.1835 41.4233 52.8262 41.5673 52.4075C41.7113 51.9889 41.7833 51.5235 41.7833 51.0115ZM52.3774 52.7915C52.2547 53.2769 52.0734 53.7102 51.8334 54.0915C51.5934 54.4702 51.3054 54.7915 50.9694 55.0555C50.6334 55.3169 50.2534 55.5169 49.8294 55.6555C49.4054 55.7942 48.9467 55.8635 48.4534 55.8635C48.0321 55.8635 47.6347 55.8129 47.2614 55.7115C46.8881 55.6102 46.5441 55.4649 46.2294 55.2755C45.9174 55.0835 45.6361 54.8515 45.3854 54.5795C45.1374 54.3049 44.9267 53.9955 44.7534 53.6515C44.5827 53.3049 44.4507 52.9262 44.3574 52.5155C44.2667 52.1022 44.2214 51.6635 44.2214 51.1995C44.2214 50.7355 44.2667 50.2995 44.3574 49.8915C44.4481 49.4835 44.5787 49.1075 44.7494 48.7635C44.9201 48.4195 45.1281 48.1115 45.3734 47.8395C45.6214 47.5675 45.9001 47.3369 46.2094 47.1475C46.5187 46.9582 46.8574 46.8142 47.2254 46.7155C47.5961 46.6142 47.9907 46.5635 48.4094 46.5635C49.0041 46.5635 49.5467 46.6689 50.0374 46.8795C50.5281 47.0875 50.9494 47.3862 51.3014 47.7755C51.6534 48.1622 51.9267 48.6329 52.1214 49.1875C52.3161 49.7395 52.4134 50.3595 52.4134 51.0475C52.4134 51.1382 52.4121 51.2302 52.4094 51.3235C52.4067 51.4169 52.4001 51.5169 52.3894 51.6235H45.4254C45.4601 52.1062 45.5561 52.5422 45.7134 52.9315C45.8707 53.3209 46.0814 53.6529 46.3454 53.9275C46.6094 54.2022 46.9214 54.4129 47.2814 54.5595C47.6414 54.7062 48.0414 54.7795 48.4814 54.7795C49.1427 54.7795 49.6987 54.6129 50.1494 54.2795C50.6001 53.9435 50.9454 53.4475 51.1854 52.7915H52.3774ZM51.2014 50.5835C51.1641 50.1195 51.0707 49.7062 50.9214 49.3435C50.7747 48.9782 50.5814 48.6702 50.3414 48.4195C50.1014 48.1689 49.8187 47.9782 49.4934 47.8475C49.1681 47.7142 48.8081 47.6475 48.4134 47.6475C48.0001 47.6475 47.6227 47.7155 47.2814 47.8515C46.9401 47.9875 46.6414 48.1822 46.3854 48.4355C46.1294 48.6889 45.9214 48.9969 45.7614 49.3595C45.6014 49.7222 45.4961 50.1302 45.4454 50.5835H51.2014ZM57.1198 46.5635C57.6798 46.5635 58.1851 46.6289 58.6358 46.7595C59.0865 46.8902 59.4705 47.0769 59.7878 47.3195C60.1051 47.5595 60.3491 47.8515 60.5198 48.1955C60.6931 48.5369 60.7798 48.9182 60.7798 49.3395H59.6158C59.6158 49.0782 59.5558 48.8409 59.4358 48.6275C59.3185 48.4142 59.1505 48.2315 58.9318 48.0795C58.7158 47.9275 58.4531 47.8102 58.1438 47.7275C57.8371 47.6449 57.4958 47.6035 57.1198 47.6035C56.7705 47.6035 56.4451 47.6409 56.1438 47.7155C55.8451 47.7875 55.5851 47.8902 55.3638 48.0235C55.1451 48.1569 54.9731 48.3182 54.8478 48.5075C54.7251 48.6942 54.6638 48.9022 54.6638 49.1315C54.6638 49.2969 54.6958 49.4422 54.7598 49.5675C54.8265 49.6902 54.9158 49.7969 55.0278 49.8875C55.1425 49.9782 55.2758 50.0555 55.4278 50.1195C55.5825 50.1835 55.7478 50.2395 55.9238 50.2875C56.0998 50.3329 56.2838 50.3729 56.4758 50.4075C56.6705 50.4422 56.8625 50.4742 57.0518 50.5035L57.6078 50.5915C57.8558 50.6315 58.1145 50.6769 58.3838 50.7275C58.6531 50.7755 58.9171 50.8395 59.1758 50.9195C59.4345 50.9995 59.6811 51.0995 59.9158 51.2195C60.1505 51.3395 60.3558 51.4889 60.5318 51.6675C60.7078 51.8462 60.8478 52.0609 60.9518 52.3115C61.0558 52.5595 61.1078 52.8529 61.1078 53.1915C61.1078 53.6182 61.0211 53.9969 60.8478 54.3275C60.6745 54.6582 60.4225 54.9382 60.0918 55.1675C59.7638 55.3942 59.3611 55.5662 58.8838 55.6835C58.4091 55.8035 57.8691 55.8635 57.2638 55.8635C56.6371 55.8635 56.0798 55.7995 55.5918 55.6715C55.1065 55.5462 54.6971 55.3635 54.3638 55.1235C54.0305 54.8809 53.7758 54.5835 53.5998 54.2315C53.4265 53.8769 53.3398 53.4729 53.3398 53.0195H54.5078C54.5078 53.3075 54.5678 53.5635 54.6878 53.7875C54.8105 54.0089 54.9878 54.1969 55.2198 54.3515C55.4545 54.5062 55.7425 54.6235 56.0838 54.7035C56.4251 54.7835 56.8171 54.8235 57.2598 54.8235C57.6705 54.8235 58.0411 54.7889 58.3718 54.7195C58.7025 54.6475 58.9838 54.5435 59.2158 54.4075C59.4505 54.2715 59.6305 54.1035 59.7558 53.9035C59.8811 53.7035 59.9438 53.4755 59.9438 53.2195C59.9438 53.0249 59.9091 52.8555 59.8398 52.7115C59.7705 52.5649 59.6745 52.4382 59.5518 52.3315C59.4291 52.2249 59.2851 52.1342 59.1198 52.0595C58.9545 51.9822 58.7758 51.9169 58.5838 51.8635C58.3918 51.8075 58.1905 51.7595 57.9798 51.7195C57.7691 51.6795 57.5585 51.6422 57.3478 51.6075L56.7998 51.5155C56.5651 51.4755 56.3211 51.4315 56.0678 51.3835C55.8145 51.3355 55.5651 51.2742 55.3198 51.1995C55.0745 51.1249 54.8411 51.0329 54.6198 50.9235C54.4011 50.8142 54.2078 50.6795 54.0398 50.5195C53.8745 50.3569 53.7425 50.1649 53.6438 49.9435C53.5451 49.7222 53.4958 49.4609 53.4958 49.1595C53.4958 48.7649 53.5825 48.4075 53.7558 48.0875C53.9318 47.7675 54.1785 47.4955 54.4958 47.2715C54.8131 47.0449 55.1945 46.8702 55.6398 46.7475C56.0851 46.6249 56.5785 46.5635 57.1198 46.5635Z" fill="white"/>
</svg>
