<svg width="92" height="11" viewBox="0 0 92 11" fill="none" xmlns="http://www.w3.org/2000/svg">
<path d="M8.2832 1.86426H2.36523V5.4873H8.2832C8.71289 5.4873 9.00586 5.40918 9.16211 5.25293C9.31836 5.09668 9.39648 4.82324 9.39648 4.43262V2.92871C9.39648 2.53809 9.3151 2.26465 9.15234 2.1084C8.99609 1.94564 8.70638 1.86426 8.2832 1.86426ZM0.636719 10.8486V0.526367H8.95703C9.73177 0.526367 10.2884 0.685872 10.627 1.00488C10.972 1.31738 11.1445 1.8252 11.1445 2.52832V4.83301C11.1445 5.52962 10.972 6.03743 10.627 6.35645C10.2884 6.66895 9.73177 6.8252 8.95703 6.8252H7.44336L12.1602 10.8486H9.60156L5.40234 6.8252H2.36523V10.8486H0.636719ZM25.0996 6.99121H30.6562L27.873 1.70801L25.0996 6.99121ZM21.3594 10.8486L26.9941 0.526367H28.8398L34.5723 10.8486H32.6777L31.3594 8.30957H24.377L23.0586 10.8486H21.3594ZM45.4023 10.8486V0.526367H47.1309V4.9502L53.5664 0.526367H56.0859L48.6055 5.46777L56.9062 10.8486H54.0254L47.1309 6.20996V10.8486H45.4023ZM67.4727 10.8486V0.526367H69.2012V10.8486H67.4727ZM80.6855 10.8486V10.1455L88.332 1.93262H81.3496V0.526367H91.0859V1.1123L83.3027 9.41309H91.0859V10.8486H80.6855Z" fill="white"/>
</svg>
