<svg width="54" height="60" viewBox="0 0 54 60" fill="none" xmlns="http://www.w3.org/2000/svg">
<path d="M18.9967 7.19703e-08C19.325 -9.83562e-05 19.6454 0.100765 19.9143 0.288894C20.1833 0.477024 20.3878 0.743305 20.5 1.05158L25.1091 13.7185L23.3339 18.1901L22.5295 15.9815H15.4656L14.103 19.7244C13.958 20.1228 13.6605 20.4473 13.276 20.6265C12.8915 20.8058 12.4515 20.825 12.0528 20.6801C11.6541 20.5351 11.3293 20.2378 11.15 19.8536C10.9706 19.4693 10.9513 19.0297 11.0964 18.6312L17.495 1.05158C17.6073 0.743305 17.8118 0.477024 18.0807 0.288894C18.3497 0.100765 18.6685 -9.83562e-05 18.9967 7.19703e-08ZM16.6298 12.7852H21.3668L18.9967 6.27434L16.6298 12.7852ZM32.3793 7.23642C32.2614 6.93833 32.0566 6.68255 31.7913 6.50231C31.5261 6.32207 31.2128 6.22569 30.892 6.22569C30.5713 6.22569 30.2579 6.32207 29.9927 6.50231C29.7275 6.68255 29.5226 6.93833 29.4047 7.23642L20.8375 28.8018H20.5976C20.1734 28.8018 19.7667 28.9702 19.4668 29.2699C19.1668 29.5697 18.9983 29.9761 18.9983 30.4C18.9983 30.8239 19.1668 31.2304 19.4668 31.5301C19.7667 31.8298 20.1734 31.9981 20.5976 31.9981H21.8914C21.9127 31.9986 21.934 31.9986 21.9554 31.9981H25.3938C25.8179 31.9981 26.2247 31.8298 26.5246 31.5301C26.8245 31.2304 26.993 30.8239 26.993 30.4C26.993 29.9761 26.8245 29.5697 26.5246 29.2699C26.2247 28.9702 25.8179 28.8018 25.3938 28.8018H24.2791L25.5633 25.5704H36.2032L37.4826 28.8034H36.5886C36.1644 28.8034 35.7576 28.9718 35.4577 29.2715C35.1578 29.5712 34.9893 29.9777 34.9893 30.4016C34.9893 30.8255 35.1578 31.2319 35.4577 31.5317C35.7576 31.8314 36.1644 31.9998 36.5886 31.9998H39.8095C39.8281 32.0001 39.8468 32.0001 39.8655 31.9998H41.4007C41.8249 31.9998 42.2317 31.8314 42.5316 31.5317C42.8315 31.2319 43 30.8255 43 30.4016C43 29.9777 42.8315 29.5712 42.5316 29.2715C42.2317 28.9718 41.8249 28.8034 41.4007 28.8034H40.9242L32.3793 7.23642ZM34.9365 22.3741H26.8331L30.8904 12.1619L34.9365 22.3741Z" fill="white"/>
<path d="M0.772 56V44.56H6.096C6.66933 44.56 7.19333 44.6413 7.668 44.804C8.14267 44.964 8.54933 45.1907 8.888 45.484C9.22933 45.7747 9.49467 46.124 9.684 46.532C9.87333 46.9373 9.968 47.384 9.968 47.872C9.968 48.312 9.89067 48.7147 9.736 49.08C9.58133 49.4427 9.36267 49.7547 9.08 50.016C8.8 50.2773 8.46133 50.484 8.064 50.636C7.66667 50.7853 7.22533 50.8667 6.74 50.88C7.16667 50.9147 7.55333 51.088 7.9 51.4C8.24933 51.712 8.54933 52.148 8.8 52.708L10.276 56H8.924L7.452 52.712C7.34533 52.4773 7.22133 52.2747 7.08 52.104C6.93867 51.9307 6.77467 51.788 6.588 51.676C6.40133 51.564 6.19067 51.4813 5.956 51.428C5.72133 51.372 5.45733 51.344 5.164 51.344H2.004V56H0.772ZM5.952 50.2C6.38133 50.2 6.76667 50.148 7.108 50.044C7.452 49.9373 7.744 49.7867 7.984 49.592C8.22667 49.3947 8.412 49.156 8.54 48.876C8.67067 48.596 8.736 48.2813 8.736 47.932C8.736 47.5853 8.672 47.2747 8.544 47C8.41867 46.7253 8.236 46.492 7.996 46.3C7.756 46.108 7.46267 45.9613 7.116 45.86C6.772 45.7587 6.38267 45.708 5.948 45.708H2.004V50.2H5.952ZM10.7544 51.588C10.7544 51.124 10.7997 50.6867 10.8904 50.276C10.981 49.8653 11.1117 49.488 11.2824 49.144C11.4557 48.8 11.665 48.492 11.9104 48.22C12.1584 47.9453 12.4384 47.7133 12.7504 47.524C13.0624 47.3347 13.4037 47.1907 13.7744 47.092C14.145 46.9907 14.541 46.94 14.9624 46.94C15.3837 46.94 15.7797 46.9907 16.1504 47.092C16.521 47.1907 16.861 47.3347 17.1704 47.524C17.4824 47.7133 17.761 47.9453 18.0064 48.22C18.2544 48.492 18.4637 48.8 18.6344 49.144C18.8077 49.488 18.9397 49.8653 19.0304 50.276C19.121 50.6867 19.1664 51.124 19.1664 51.588C19.1664 52.052 19.121 52.4893 19.0304 52.9C18.9397 53.3107 18.8077 53.6893 18.6344 54.036C18.4637 54.38 18.2544 54.688 18.0064 54.96C17.761 55.232 17.4824 55.464 17.1704 55.656C16.861 55.8453 16.521 55.9893 16.1504 56.088C15.7797 56.1893 15.3837 56.24 14.9624 56.24C14.5437 56.24 14.1477 56.1893 13.7744 56.088C13.4037 55.9893 13.0624 55.8453 12.7504 55.656C12.4384 55.464 12.1584 55.232 11.9104 54.96C11.665 54.688 11.4557 54.38 11.2824 54.036C11.1117 53.6893 10.981 53.3107 10.8904 52.9C10.7997 52.4893 10.7544 52.052 10.7544 51.588ZM11.9464 51.588C11.9464 52.1347 12.017 52.6293 12.1584 53.072C12.2997 53.512 12.501 53.8867 12.7624 54.196C13.0264 54.5027 13.3437 54.74 13.7144 54.908C14.0877 55.0733 14.5037 55.156 14.9624 55.156C15.4237 55.156 15.8397 55.0733 16.2104 54.908C16.581 54.74 16.897 54.5027 17.1584 54.196C17.4197 53.8867 17.621 53.512 17.7624 53.072C17.9037 52.6293 17.9744 52.1347 17.9744 51.588C17.9744 51.0387 17.9037 50.5453 17.7624 50.108C17.621 49.668 17.4197 49.2933 17.1584 48.984C16.897 48.6747 16.581 48.4373 16.2104 48.272C15.8397 48.1067 15.4237 48.024 14.9624 48.024C14.5037 48.024 14.0877 48.1067 13.7144 48.272C13.3437 48.4373 13.0264 48.6747 12.7624 48.984C12.501 49.2933 12.2997 49.668 12.1584 50.108C12.017 50.5453 11.9464 51.0387 11.9464 51.588ZM21.6115 50.012C21.7235 49.5427 21.8848 49.12 22.0955 48.744C22.3062 48.3653 22.5568 48.0427 22.8475 47.776C23.1408 47.5067 23.4702 47.3 23.8355 47.156C24.2035 47.012 24.5982 46.94 25.0195 46.94C25.3848 46.94 25.7302 46.992 26.0555 47.096C26.3835 47.1973 26.6848 47.3453 26.9595 47.54C27.2368 47.732 27.4862 47.9653 27.7075 48.24C27.9288 48.5147 28.1168 48.824 28.2715 49.168C28.4262 49.512 28.5448 49.888 28.6275 50.296C28.7102 50.7013 28.7515 51.132 28.7515 51.588C28.7515 52.044 28.7102 52.476 28.6275 52.884C28.5448 53.2893 28.4262 53.664 28.2715 54.008C28.1168 54.352 27.9288 54.6627 27.7075 54.94C27.4862 55.2147 27.2368 55.4493 26.9595 55.644C26.6848 55.836 26.3835 55.9827 26.0555 56.084C25.7302 56.188 25.3848 56.24 25.0195 56.24C24.5982 56.24 24.2035 56.168 23.8355 56.024C23.4702 55.88 23.1408 55.6747 22.8475 55.408C22.5568 55.1387 22.3062 54.8147 22.0955 54.436C21.8848 54.0573 21.7235 53.6333 21.6115 53.164V56H20.4195V44.16H21.6115V50.012ZM21.6115 51.588C21.6115 52.132 21.6835 52.6253 21.8275 53.068C21.9715 53.508 22.1755 53.8853 22.4395 54.2C22.7062 54.5147 23.0262 54.7573 23.3995 54.928C23.7728 55.0987 24.1888 55.184 24.6475 55.184C25.1062 55.184 25.5155 55.1027 25.8755 54.94C26.2355 54.7773 26.5395 54.5427 26.7875 54.236C27.0382 53.9267 27.2288 53.5493 27.3595 53.104C27.4928 52.6587 27.5595 52.1533 27.5595 51.588C27.5595 51.0227 27.4928 50.5187 27.3595 50.076C27.2288 49.6307 27.0382 49.2547 26.7875 48.948C26.5395 48.6387 26.2355 48.4027 25.8755 48.24C25.5155 48.0773 25.1062 47.996 24.6475 47.996C24.1888 47.996 23.7728 48.0813 23.3995 48.252C23.0262 48.4227 22.7062 48.6653 22.4395 48.98C22.1755 49.292 21.9715 49.6693 21.8275 50.112C21.6835 50.552 21.6115 51.044 21.6115 51.588ZM29.7856 51.588C29.7856 51.124 29.831 50.6867 29.9216 50.276C30.0123 49.8653 30.143 49.488 30.3136 49.144C30.487 48.8 30.6963 48.492 30.9416 48.22C31.1896 47.9453 31.4696 47.7133 31.7816 47.524C32.0936 47.3347 32.435 47.1907 32.8056 47.092C33.1763 46.9907 33.5723 46.94 33.9936 46.94C34.415 46.94 34.811 46.9907 35.1816 47.092C35.5523 47.1907 35.8923 47.3347 36.2016 47.524C36.5136 47.7133 36.7923 47.9453 37.0376 48.22C37.2856 48.492 37.495 48.8 37.6656 49.144C37.839 49.488 37.971 49.8653 38.0616 50.276C38.1523 50.6867 38.1976 51.124 38.1976 51.588C38.1976 52.052 38.1523 52.4893 38.0616 52.9C37.971 53.3107 37.839 53.6893 37.6656 54.036C37.495 54.38 37.2856 54.688 37.0376 54.96C36.7923 55.232 36.5136 55.464 36.2016 55.656C35.8923 55.8453 35.5523 55.9893 35.1816 56.088C34.811 56.1893 34.415 56.24 33.9936 56.24C33.575 56.24 33.179 56.1893 32.8056 56.088C32.435 55.9893 32.0936 55.8453 31.7816 55.656C31.4696 55.464 31.1896 55.232 30.9416 54.96C30.6963 54.688 30.487 54.38 30.3136 54.036C30.143 53.6893 30.0123 53.3107 29.9216 52.9C29.831 52.4893 29.7856 52.052 29.7856 51.588ZM30.9776 51.588C30.9776 52.1347 31.0483 52.6293 31.1896 53.072C31.331 53.512 31.5323 53.8867 31.7936 54.196C32.0576 54.5027 32.375 54.74 32.7456 54.908C33.119 55.0733 33.535 55.156 33.9936 55.156C34.455 55.156 34.871 55.0733 35.2416 54.908C35.6123 54.74 35.9283 54.5027 36.1896 54.196C36.451 53.8867 36.6523 53.512 36.7936 53.072C36.935 52.6293 37.0056 52.1347 37.0056 51.588C37.0056 51.0387 36.935 50.5453 36.7936 50.108C36.6523 49.668 36.451 49.2933 36.1896 48.984C35.9283 48.6747 35.6123 48.4373 35.2416 48.272C34.871 48.1067 34.455 48.024 33.9936 48.024C33.535 48.024 33.119 48.1067 32.7456 48.272C32.375 48.4373 32.0576 48.6747 31.7936 48.984C31.5323 49.2933 31.331 49.668 31.1896 50.108C31.0483 50.5453 30.9776 51.0387 30.9776 51.588ZM44.4156 55.956C43.797 56.1427 43.237 56.236 42.7356 56.236C41.909 56.236 41.2783 55.98 40.8436 55.468C40.4116 54.956 40.1956 54.204 40.1956 53.212V48.192H38.8876V47.18H40.1956V45.148H41.3876V47.18H44.4156V48.192H41.3876V53.216C41.3876 53.8773 41.5116 54.368 41.7596 54.688C42.0076 55.008 42.3956 55.168 42.9236 55.168C43.1156 55.168 43.333 55.148 43.5756 55.108C43.821 55.0653 44.101 55.0013 44.4156 54.916V55.956ZM45.0044 51.588C45.0044 51.124 45.0497 50.6867 45.1404 50.276C45.231 49.8653 45.3617 49.488 45.5324 49.144C45.7057 48.8 45.915 48.492 46.1604 48.22C46.4084 47.9453 46.6884 47.7133 47.0004 47.524C47.3124 47.3347 47.6537 47.1907 48.0244 47.092C48.395 46.9907 48.791 46.94 49.2124 46.94C49.6337 46.94 50.0297 46.9907 50.4004 47.092C50.771 47.1907 51.111 47.3347 51.4204 47.524C51.7324 47.7133 52.011 47.9453 52.2564 48.22C52.5044 48.492 52.7137 48.8 52.8844 49.144C53.0577 49.488 53.1897 49.8653 53.2804 50.276C53.371 50.6867 53.4164 51.124 53.4164 51.588C53.4164 52.052 53.371 52.4893 53.2804 52.9C53.1897 53.3107 53.0577 53.6893 52.8844 54.036C52.7137 54.38 52.5044 54.688 52.2564 54.96C52.011 55.232 51.7324 55.464 51.4204 55.656C51.111 55.8453 50.771 55.9893 50.4004 56.088C50.0297 56.1893 49.6337 56.24 49.2124 56.24C48.7937 56.24 48.3977 56.1893 48.0244 56.088C47.6537 55.9893 47.3124 55.8453 47.0004 55.656C46.6884 55.464 46.4084 55.232 46.1604 54.96C45.915 54.688 45.7057 54.38 45.5324 54.036C45.3617 53.6893 45.231 53.3107 45.1404 52.9C45.0497 52.4893 45.0044 52.052 45.0044 51.588ZM46.1964 51.588C46.1964 52.1347 46.267 52.6293 46.4084 53.072C46.5497 53.512 46.751 53.8867 47.0124 54.196C47.2764 54.5027 47.5937 54.74 47.9644 54.908C48.3377 55.0733 48.7537 55.156 49.2124 55.156C49.6737 55.156 50.0897 55.0733 50.4604 54.908C50.831 54.74 51.147 54.5027 51.4084 54.196C51.6697 53.8867 51.871 53.512 52.0124 53.072C52.1537 52.6293 52.2244 52.1347 52.2244 51.588C52.2244 51.0387 52.1537 50.5453 52.0124 50.108C51.871 49.668 51.6697 49.2933 51.4084 48.984C51.147 48.6747 50.831 48.4373 50.4604 48.272C50.0897 48.1067 49.6737 48.024 49.2124 48.024C48.7537 48.024 48.3377 48.1067 47.9644 48.272C47.5937 48.4373 47.2764 48.6747 47.0124 48.984C46.751 49.2933 46.5497 49.668 46.4084 50.108C46.267 50.5453 46.1964 51.0387 46.1964 51.588Z" fill="white"/>
</svg>
