<svg width="74" height="58" viewBox="0 0 74 58" fill="none" xmlns="http://www.w3.org/2000/svg">
<path d="M43.4676 35.9999L14.5 19.3246L30.7146 9.7959L59.5 26.6544L43.4676 35.9999Z" fill="white" stroke="black" stroke-width="0.5"/>
<path d="M43.4676 31.6015L14.5 14.9262L30.7146 5.39746L59.5 22.256L43.4676 31.6015Z" fill="white" stroke="black" stroke-width="0.5"/>
<path d="M43.4676 27.204L14.5 10.5287L30.7146 1L59.5 17.8585L43.4676 27.204Z" fill="#363636" stroke="black" stroke-width="0.5"/>
<path d="M1.41344 45.972C1.41344 45.4093 1.51344 44.9027 1.71344 44.452C1.9161 44.0013 2.2081 43.6187 2.58944 43.304C2.97344 42.9867 3.44144 42.744 3.99344 42.576C4.5481 42.4053 5.1761 42.32 5.87744 42.32C6.3201 42.32 6.7361 42.3547 7.12544 42.424C7.51477 42.4907 7.87344 42.588 8.20144 42.716C8.52944 42.844 8.82277 43 9.08144 43.184C9.3401 43.3653 9.55877 43.5733 9.73744 43.808C9.91877 44.04 10.0561 44.2947 10.1494 44.572C10.2454 44.8493 10.2934 45.1453 10.2934 45.46C10.2934 45.82 10.2321 46.1547 10.1094 46.464C9.98944 46.7707 9.8201 47.0413 9.60144 47.276C9.38544 47.508 9.12677 47.6973 8.82544 47.844C8.52677 47.988 8.19744 48.0773 7.83744 48.112C8.30944 48.136 8.73077 48.2147 9.10144 48.348C9.47477 48.4813 9.79077 48.664 10.0494 48.896C10.3081 49.1253 10.5054 49.4013 10.6414 49.724C10.7774 50.0467 10.8454 50.408 10.8454 50.808C10.8454 51.3227 10.7334 51.792 10.5094 52.216C10.2881 52.6373 9.97477 52.9987 9.56944 53.3C9.1641 53.5987 8.67477 53.8307 8.10144 53.996C7.53077 54.1587 6.8961 54.24 6.19744 54.24C5.45877 54.24 4.79344 54.148 4.20144 53.964C3.6121 53.78 3.11077 53.52 2.69744 53.184C2.2841 52.848 1.96677 52.4427 1.74544 51.968C1.5241 51.4933 1.41344 50.964 1.41344 50.38V50.36H2.64544V50.452C2.64544 50.844 2.72677 51.2027 2.88944 51.528C3.0521 51.8507 3.28277 52.128 3.58144 52.36C3.88277 52.592 4.24677 52.772 4.67344 52.9C5.1001 53.028 5.57877 53.092 6.10944 53.092C6.45344 53.092 6.77877 53.0653 7.08544 53.012C7.3921 52.956 7.67477 52.876 7.93344 52.772C8.19477 52.668 8.4281 52.5427 8.63344 52.396C8.84144 52.2467 9.01744 52.08 9.16144 51.896C9.3081 51.712 9.4201 51.5107 9.49744 51.292C9.57477 51.0707 9.61344 50.8373 9.61344 50.592C9.61344 49.9653 9.34944 49.5 8.82144 49.196C8.29344 48.892 7.48544 48.74 6.39744 48.74H4.98944V47.644H6.40144C6.80944 47.644 7.17744 47.5987 7.50544 47.508C7.8361 47.4173 8.11744 47.288 8.34944 47.12C8.58144 46.952 8.75877 46.748 8.88144 46.508C9.00677 46.2653 9.06944 45.9947 9.06944 45.696C9.06944 45.36 8.99077 45.0547 8.83344 44.78C8.67877 44.5053 8.45877 44.272 8.17344 44.08C7.8881 43.8853 7.5441 43.7347 7.14144 43.628C6.74144 43.5213 6.2961 43.468 5.80544 43.468C5.29877 43.468 4.84944 43.5253 4.45744 43.64C4.06544 43.7547 3.73477 43.92 3.46544 44.136C3.19877 44.3493 2.99477 44.6107 2.85344 44.92C2.71477 45.2293 2.64544 45.5787 2.64544 45.968V45.992H1.41344V45.972ZM12.1322 48.28C12.1322 47.688 12.1869 47.1307 12.2962 46.608C12.4055 46.0827 12.5629 45.6 12.7682 45.16C12.9735 44.7173 13.2242 44.3213 13.5202 43.972C13.8162 43.62 14.1495 43.3227 14.5202 43.08C14.8909 42.8347 15.2962 42.6467 15.7362 42.516C16.1789 42.3853 16.6482 42.32 17.1442 42.32C17.6429 42.32 18.1122 42.3853 18.5522 42.516C18.9922 42.6467 19.3975 42.8347 19.7682 43.08C20.1415 43.3227 20.4749 43.62 20.7682 43.972C21.0642 44.3213 21.3149 44.7173 21.5202 45.16C21.7282 45.6 21.8869 46.0827 21.9962 46.608C22.1055 47.1307 22.1602 47.688 22.1602 48.28C22.1602 48.8693 22.1055 49.4267 21.9962 49.952C21.8869 50.4773 21.7295 50.9613 21.5242 51.404C21.3189 51.844 21.0682 52.24 20.7722 52.592C20.4762 52.9413 20.1415 53.2387 19.7682 53.484C19.3975 53.7267 18.9909 53.9133 18.5482 54.044C18.1082 54.1747 17.6402 54.24 17.1442 54.24C16.6482 54.24 16.1789 54.1747 15.7362 54.044C15.2962 53.9133 14.8909 53.7267 14.5202 53.484C14.1495 53.2387 13.8162 52.9413 13.5202 52.592C13.2242 52.24 12.9735 51.844 12.7682 51.404C12.5629 50.9613 12.4055 50.4773 12.2962 49.952C12.1869 49.4267 12.1322 48.8693 12.1322 48.28ZM13.3642 48.28C13.3642 49.0187 13.4522 49.6853 13.6282 50.28C13.8042 50.872 14.0562 51.3773 14.3842 51.796C14.7122 52.212 15.1095 52.532 15.5762 52.756C16.0429 52.98 16.5655 53.092 17.1442 53.092C17.7255 53.092 18.2495 52.98 18.7162 52.756C19.1829 52.532 19.5802 52.212 19.9082 51.796C20.2362 51.3773 20.4882 50.872 20.6642 50.28C20.8402 49.6853 20.9282 49.0187 20.9282 48.28C20.9282 47.5413 20.8402 46.876 20.6642 46.284C20.4882 45.6893 20.2362 45.184 19.9082 44.768C19.5802 44.3493 19.1829 44.028 18.7162 43.804C18.2495 43.58 17.7255 43.468 17.1442 43.468C16.5655 43.468 16.0429 43.58 15.5762 43.804C15.1095 44.028 14.7122 44.3493 14.3842 44.768C14.0562 45.184 13.8042 45.6893 13.6282 46.284C13.4522 46.876 13.3642 47.5413 13.3642 48.28ZM27.0923 42.556H32.1803C32.5856 42.556 32.9683 42.596 33.3283 42.676C33.6883 42.7533 34.0203 42.8667 34.3243 43.016C34.6283 43.1627 34.9016 43.3413 35.1443 43.552C35.387 43.7627 35.5923 44.0013 35.7603 44.268C35.9283 44.532 36.0576 44.8213 36.1483 45.136C36.239 45.4507 36.2843 45.784 36.2843 46.136C36.2843 46.6667 36.1843 47.1533 35.9843 47.596C35.7843 48.036 35.503 48.4147 35.1403 48.732C34.7803 49.0467 34.3483 49.292 33.8443 49.468C33.343 49.644 32.7883 49.732 32.1803 49.732H28.3243V54H27.0923V42.556ZM32.0923 48.584C32.5456 48.584 32.955 48.5267 33.3203 48.412C33.6856 48.2973 33.9963 48.1347 34.2523 47.924C34.5083 47.7107 34.7056 47.4533 34.8443 47.152C34.983 46.8507 35.0523 46.5133 35.0523 46.14C35.0523 45.7667 34.983 45.4307 34.8443 45.132C34.7083 44.8307 34.5123 44.5747 34.2563 44.364C34.003 44.1507 33.695 43.988 33.3323 43.876C32.9696 43.7613 32.563 43.704 32.1123 43.704H28.3243V48.584H32.0923ZM37.1421 48.12C37.1421 47.6373 37.2327 47.2 37.4141 46.808C37.5981 46.416 37.8594 46.0827 38.1981 45.808C38.5367 45.5307 38.9461 45.3173 39.4261 45.168C39.9087 45.0187 40.4474 44.944 41.0421 44.944C41.6794 44.944 42.2501 45.032 42.7541 45.208C43.2607 45.3813 43.6901 45.632 44.0421 45.96C44.3941 46.288 44.6634 46.6893 44.8501 47.164C45.0367 47.636 45.1301 48.172 45.1301 48.772V54H43.9381V51.54C43.8287 51.9427 43.6541 52.3093 43.4141 52.64C43.1741 52.9707 42.8821 53.2547 42.5381 53.492C42.1967 53.7293 41.8114 53.9133 41.3821 54.044C40.9554 54.1747 40.5007 54.24 40.0181 54.24C39.5461 54.24 39.1167 54.1773 38.7301 54.052C38.3434 53.9267 38.0127 53.7507 37.7381 53.524C37.4661 53.2947 37.2554 53.02 37.1061 52.7C36.9567 52.3773 36.8821 52.0187 36.8821 51.624C36.8821 51.2293 36.9594 50.8787 37.1141 50.572C37.2687 50.2627 37.4941 50.0027 37.7901 49.792C38.0861 49.5813 38.4501 49.4213 38.8821 49.312C39.3167 49.2027 39.8141 49.148 40.3741 49.148H43.9381V48.772C43.9381 48.3453 43.8714 47.9627 43.7381 47.624C43.6047 47.2827 43.4127 46.9947 43.1621 46.76C42.9114 46.5227 42.6047 46.3413 42.2421 46.216C41.8821 46.0907 41.4754 46.028 41.0221 46.028C40.5821 46.028 40.1941 46.0787 39.8581 46.18C39.5247 46.2787 39.2447 46.4187 39.0181 46.6C38.7941 46.7813 38.6234 47.0013 38.5061 47.26C38.3914 47.516 38.3341 47.8027 38.3341 48.12H37.1421ZM40.3661 50.16C39.5927 50.16 39.0141 50.2787 38.6301 50.516C38.2487 50.7533 38.0581 51.112 38.0581 51.592C38.0581 51.8427 38.1087 52.068 38.2101 52.268C38.3114 52.4653 38.4581 52.6333 38.6501 52.772C38.8447 52.908 39.0821 53.012 39.3621 53.084C39.6421 53.156 39.9607 53.192 40.3181 53.192C40.6541 53.192 40.9767 53.1613 41.2861 53.1C41.5954 53.036 41.8834 52.948 42.1501 52.836C42.4194 52.7213 42.6634 52.584 42.8821 52.424C43.1034 52.264 43.2914 52.0867 43.4461 51.892C43.6034 51.6947 43.7247 51.484 43.8101 51.26C43.8954 51.0333 43.9381 50.7987 43.9381 50.556V50.16H40.3661ZM54.6723 45.18V52.64C54.6723 53.0987 54.627 53.532 54.5363 53.94C54.4456 54.3453 54.315 54.7187 54.1443 55.06C53.9736 55.404 53.7656 55.712 53.5203 55.984C53.2776 56.2587 53.003 56.4907 52.6963 56.68C52.3896 56.872 52.0536 57.0187 51.6883 57.12C51.323 57.2213 50.935 57.272 50.5243 57.272C50.1643 57.272 49.8203 57.2333 49.4923 57.156C49.167 57.0787 48.863 56.968 48.5803 56.824C48.3003 56.6827 48.0456 56.5107 47.8163 56.308C47.5896 56.1053 47.395 55.8787 47.2323 55.628C47.0723 55.3773 46.9483 55.1053 46.8603 54.812C46.775 54.5213 46.7323 54.2147 46.7323 53.892H47.9243C47.9243 54.2253 47.991 54.5347 48.1243 54.82C48.2576 55.1053 48.4416 55.352 48.6763 55.56C48.911 55.7707 49.187 55.9347 49.5043 56.052C49.8216 56.172 50.1643 56.232 50.5323 56.232C50.9723 56.232 51.3736 56.1453 51.7363 55.972C52.099 55.7987 52.4096 55.5547 52.6683 55.24C52.927 54.9253 53.127 54.5467 53.2683 54.104C53.4096 53.664 53.4803 53.176 53.4803 52.64V50.892C53.3683 51.34 53.2056 51.7467 52.9923 52.112C52.7816 52.4747 52.5283 52.784 52.2323 53.04C51.939 53.296 51.607 53.4933 51.2363 53.632C50.8683 53.7707 50.471 53.84 50.0443 53.84C49.6843 53.84 49.3416 53.7907 49.0163 53.692C48.6936 53.5933 48.395 53.452 48.1203 53.268C47.8483 53.084 47.6016 52.86 47.3803 52.596C47.1616 52.332 46.975 52.036 46.8203 51.708C46.6656 51.3773 46.547 51.0173 46.4643 50.628C46.3816 50.236 46.3403 49.8227 46.3403 49.388C46.3403 48.9533 46.3816 48.5413 46.4643 48.152C46.547 47.7627 46.6656 47.404 46.8203 47.076C46.975 46.7453 47.1616 46.448 47.3803 46.184C47.6016 45.92 47.8483 45.696 48.1203 45.512C48.395 45.328 48.6936 45.1867 49.0163 45.088C49.3416 44.9893 49.6843 44.94 50.0443 44.94C50.4736 44.94 50.8723 45.0093 51.2403 45.148C51.611 45.2867 51.943 45.484 52.2363 45.74C52.5296 45.9933 52.7816 46.3013 52.9923 46.664C53.2056 47.0267 53.3683 47.432 53.4803 47.88V45.18H54.6723ZM53.4803 49.388C53.4803 48.876 53.4083 48.412 53.2643 47.996C53.1203 47.5773 52.915 47.22 52.6483 46.924C52.3816 46.628 52.059 46.4 51.6803 46.24C51.3043 46.0773 50.883 45.996 50.4163 45.996C49.9656 45.996 49.5616 46.0733 49.2043 46.228C48.847 46.38 48.5443 46.6013 48.2963 46.892C48.0483 47.1827 47.859 47.5387 47.7283 47.96C47.5976 48.3787 47.5323 48.8547 47.5323 49.388C47.5323 49.9213 47.5976 50.3987 47.7283 50.82C47.8616 51.2387 48.0523 51.5947 48.3003 51.888C48.5483 52.1787 48.8496 52.4013 49.2043 52.556C49.5616 52.708 49.9656 52.784 50.4163 52.784C50.883 52.784 51.3043 52.704 51.6803 52.544C52.059 52.3813 52.3816 52.152 52.6483 51.856C52.915 51.56 53.1203 51.2027 53.2643 50.784C53.4083 50.3653 53.4803 49.9 53.4803 49.388ZM64.0744 51.168C63.9518 51.6533 63.7704 52.0867 63.5304 52.468C63.2904 52.8467 63.0024 53.168 62.6664 53.432C62.3304 53.6933 61.9504 53.8933 61.5264 54.032C61.1024 54.1707 60.6438 54.24 60.1504 54.24C59.7291 54.24 59.3318 54.1893 58.9584 54.088C58.5851 53.9867 58.2411 53.8413 57.9264 53.652C57.6144 53.46 57.3331 53.228 57.0824 52.956C56.8344 52.6813 56.6238 52.372 56.4504 52.028C56.2798 51.6813 56.1478 51.3027 56.0544 50.892C55.9638 50.4787 55.9184 50.04 55.9184 49.576C55.9184 49.112 55.9638 48.676 56.0544 48.268C56.1451 47.86 56.2758 47.484 56.4464 47.14C56.6171 46.796 56.8251 46.488 57.0704 46.216C57.3184 45.944 57.5971 45.7133 57.9064 45.524C58.2158 45.3347 58.5544 45.1907 58.9224 45.092C59.2931 44.9907 59.6878 44.94 60.1064 44.94C60.7011 44.94 61.2438 45.0453 61.7344 45.256C62.2251 45.464 62.6464 45.7627 62.9984 46.152C63.3504 46.5387 63.6238 47.0093 63.8184 47.564C64.0131 48.116 64.1104 48.736 64.1104 49.424C64.1104 49.5147 64.1091 49.6067 64.1064 49.7C64.1038 49.7933 64.0971 49.8933 64.0864 50H57.1224C57.1571 50.4827 57.2531 50.9187 57.4104 51.308C57.5678 51.6973 57.7784 52.0293 58.0424 52.304C58.3064 52.5787 58.6184 52.7893 58.9784 52.936C59.3384 53.0827 59.7384 53.156 60.1784 53.156C60.8398 53.156 61.3958 52.9893 61.8464 52.656C62.2971 52.32 62.6424 51.824 62.8824 51.168H64.0744ZM62.8984 48.96C62.8611 48.496 62.7678 48.0827 62.6184 47.72C62.4718 47.3547 62.2784 47.0467 62.0384 46.796C61.7984 46.5453 61.5158 46.3547 61.1904 46.224C60.8651 46.0907 60.5051 46.024 60.1104 46.024C59.6971 46.024 59.3198 46.092 58.9784 46.228C58.6371 46.364 58.3384 46.5587 58.0824 46.812C57.8264 47.0653 57.6184 47.3733 57.4584 47.736C57.2984 48.0987 57.1931 48.5067 57.1424 48.96H62.8984ZM68.8168 44.94C69.3768 44.94 69.8821 45.0053 70.3328 45.136C70.7835 45.2667 71.1675 45.4533 71.4848 45.696C71.8021 45.936 72.0461 46.228 72.2168 46.572C72.3901 46.9133 72.4768 47.2947 72.4768 47.716H71.3128C71.3128 47.4547 71.2528 47.2173 71.1328 47.004C71.0155 46.7907 70.8475 46.608 70.6288 46.456C70.4128 46.304 70.1501 46.1867 69.8408 46.104C69.5341 46.0213 69.1928 45.98 68.8168 45.98C68.4675 45.98 68.1421 46.0173 67.8408 46.092C67.5421 46.164 67.2821 46.2667 67.0608 46.4C66.8421 46.5333 66.6701 46.6947 66.5448 46.884C66.4221 47.0707 66.3608 47.2787 66.3608 47.508C66.3608 47.6733 66.3928 47.8187 66.4568 47.944C66.5235 48.0667 66.6128 48.1733 66.7248 48.264C66.8395 48.3547 66.9728 48.432 67.1248 48.496C67.2795 48.56 67.4448 48.616 67.6208 48.664C67.7968 48.7093 67.9808 48.7493 68.1728 48.784C68.3675 48.8187 68.5595 48.8507 68.7488 48.88L69.3048 48.968C69.5528 49.008 69.8115 49.0533 70.0808 49.104C70.3501 49.152 70.6141 49.216 70.8728 49.296C71.1315 49.376 71.3781 49.476 71.6128 49.596C71.8475 49.716 72.0528 49.8653 72.2288 50.044C72.4048 50.2227 72.5448 50.4373 72.6488 50.688C72.7528 50.936 72.8048 51.2293 72.8048 51.568C72.8048 51.9947 72.7181 52.3733 72.5448 52.704C72.3715 53.0347 72.1195 53.3147 71.7888 53.544C71.4608 53.7707 71.0581 53.9427 70.5808 54.06C70.1061 54.18 69.5661 54.24 68.9608 54.24C68.3341 54.24 67.7768 54.176 67.2888 54.048C66.8035 53.9227 66.3941 53.74 66.0608 53.5C65.7275 53.2573 65.4728 52.96 65.2968 52.608C65.1235 52.2533 65.0368 51.8493 65.0368 51.396H66.2048C66.2048 51.684 66.2648 51.94 66.3848 52.164C66.5075 52.3853 66.6848 52.5733 66.9168 52.728C67.1515 52.8827 67.4395 53 67.7808 53.08C68.1221 53.16 68.5141 53.2 68.9568 53.2C69.3675 53.2 69.7381 53.1653 70.0688 53.096C70.3995 53.024 70.6808 52.92 70.9128 52.784C71.1475 52.648 71.3275 52.48 71.4528 52.28C71.5781 52.08 71.6408 51.852 71.6408 51.596C71.6408 51.4013 71.6061 51.232 71.5368 51.088C71.4675 50.9413 71.3715 50.8147 71.2488 50.708C71.1261 50.6013 70.9821 50.5107 70.8168 50.436C70.6515 50.3587 70.4728 50.2933 70.2808 50.24C70.0888 50.184 69.8875 50.136 69.6768 50.096C69.4661 50.056 69.2555 50.0187 69.0448 49.984L68.4968 49.892C68.2621 49.852 68.0181 49.808 67.7648 49.76C67.5115 49.712 67.2621 49.6507 67.0168 49.576C66.7715 49.5013 66.5381 49.4093 66.3168 49.3C66.0981 49.1907 65.9048 49.056 65.7368 48.896C65.5715 48.7333 65.4395 48.5413 65.3408 48.32C65.2421 48.0987 65.1928 47.8373 65.1928 47.536C65.1928 47.1413 65.2795 46.784 65.4528 46.464C65.6288 46.144 65.8755 45.872 66.1928 45.648C66.5101 45.4213 66.8915 45.2467 67.3368 45.124C67.7821 45.0013 68.2755 44.94 68.8168 44.94Z" fill="white"/>
</svg>
