<svg width="62" height="54" viewBox="0 0 62 54" fill="none" xmlns="http://www.w3.org/2000/svg">
<path d="M3.92686 41.905H0.590805C0.282789 41.905 0.036377 41.6539 0.036377 41.3506V38.9197C0.036377 38.6116 0.287528 38.3652 0.590805 38.3652H12.6603C12.9683 38.3652 13.2147 38.6164 13.2147 38.9197V41.3506C13.2147 41.6586 12.9636 41.905 12.6603 41.905H9.32424C9.01623 41.905 8.76981 42.1562 8.76981 42.4595V52.4392C8.76981 52.7472 8.51866 52.9936 8.21538 52.9936H5.04519C4.73717 52.9936 4.49076 52.7425 4.49076 52.4392V42.4595C4.49076 42.1515 4.23961 41.905 3.93633 41.905H3.92686Z" fill="#54BBF4"/>
<path d="M11.1775 45.2607H17.6126C17.9207 45.2607 18.1671 45.5119 18.1671 45.8152V48.0755C18.1671 48.3836 17.9159 48.63 17.6126 48.63H11.1775C10.8695 48.63 10.623 48.3788 10.623 48.0755V45.8152C10.623 45.5072 10.8742 45.2607 11.1775 45.2607Z" fill="#54BBF4"/>
<path d="M19.6973 52.4586V39.2329C19.6973 38.9723 19.8773 38.7401 20.138 38.688C21.5927 38.3847 23.1755 38.2378 24.8861 38.2378C27.7389 38.2378 29.876 38.8491 31.2976 40.0717C32.7192 41.2943 33.43 43.1803 33.43 45.7249C33.43 47.483 33.0936 48.9094 32.416 50.0087C31.7431 51.1034 30.7148 51.9137 29.3358 52.435C27.9568 52.9562 26.2082 53.2168 24.0853 53.2168C22.6874 53.2168 21.389 53.1505 20.1901 53.0226C19.9105 52.9941 19.6973 52.7525 19.6973 52.4681V52.4586ZM25.2416 49.7718C26.5637 49.7718 27.5256 49.4543 28.1322 48.8241C28.7387 48.1891 29.0373 47.1513 29.0373 45.7013C29.0373 44.7014 28.8904 43.91 28.5918 43.3177C28.298 42.7396 27.8715 42.3178 27.3171 42.0524C26.7627 41.7871 26.0613 41.6497 25.2179 41.6497C24.9478 41.6497 24.6919 41.6639 24.4549 41.6923C24.1753 41.7255 23.9716 41.9672 23.9716 42.2467V49.1937C23.9716 49.4922 24.2085 49.7386 24.5071 49.7481C24.8577 49.7623 25.0994 49.7671 25.2368 49.7671L25.2416 49.7718Z" fill="#54BBF4"/>
<path d="M35.7477 38.3607H45.7274C46.0354 38.3607 46.2818 38.6119 46.2818 38.9152V41.1755C46.2818 41.4836 46.0307 41.73 45.7274 41.73H39.9841C39.6761 41.73 39.4296 41.9811 39.4296 42.2844V43.2795C39.4296 43.5875 39.6808 43.834 39.9841 43.834H44.6943C45.0024 43.834 45.2488 44.0851 45.2488 44.3884V46.6488C45.2488 46.9568 44.9976 47.2032 44.6943 47.2032H39.9841C39.6761 47.2032 39.4296 47.4543 39.4296 47.7576V49.0513C39.4296 49.3593 39.6808 49.6057 39.9841 49.6057H45.8316C46.1396 49.6057 46.3861 49.8568 46.3861 50.1601V52.4205C46.3861 52.7285 46.1349 52.9749 45.8316 52.9749H35.7477C35.4396 52.9749 35.1932 52.7238 35.1932 52.4205V38.8962C35.1932 38.5882 35.4444 38.3418 35.7477 38.3418V38.3607Z" fill="#54BBF4"/>
<path d="M54.3085 49.0889L51.9013 52.7472C51.797 52.9036 51.6217 52.9984 51.4369 52.9984H48.1482C47.7028 52.9984 47.4374 52.5008 47.6885 52.1312L52.0766 45.6581C52.2045 45.4685 52.2045 45.2221 52.0766 45.0326L48.1529 39.2324C47.9018 38.8628 48.1672 38.3652 48.6126 38.3652H51.9866C52.1761 38.3652 52.3467 38.46 52.4509 38.6164L54.3512 41.5165C54.5691 41.8529 55.062 41.8529 55.28 41.5165L57.1802 38.6164C57.2844 38.46 57.4598 38.3652 57.6446 38.3652H60.9001C61.3455 38.3652 61.6109 38.8628 61.3597 39.2324L57.5071 44.971C57.3792 45.1605 57.3792 45.4022 57.5071 45.5918L61.9047 52.1359C62.1511 52.5055 61.8905 53.0031 61.445 53.0031H58.0853C57.8957 53.0031 57.7204 52.9083 57.6209 52.7519L55.2326 49.0984C55.0146 48.762 54.5218 48.762 54.3038 49.0984L54.3085 49.0889Z" fill="#54BBF4"/>
<path d="M31.4687 8.6881C31.7388 8.61702 31.9663 8.70231 32.2459 8.78761C32.0421 9.14775 31.8526 9.45103 31.4972 9.60741C31.4213 9.64058 31.355 9.74009 31.2555 9.67849C31.1418 9.61689 31.1418 9.49842 31.1512 9.38943C31.1654 9.24727 31.2176 9.10037 31.2176 8.95821C31.2176 8.7734 31.2934 8.73075 31.4687 8.6881Z" fill="#54BBF4"/>
<path d="M41.6805 6.93955C41.8037 7.13384 42.0738 7.31865 41.9553 7.54611C41.851 7.75461 41.5525 7.71671 41.3108 7.71671C40.9649 7.72145 40.6285 7.85413 40.1878 7.79253C40.093 7.79253 39.9082 7.79252 39.7234 7.79726C39.6381 7.79726 39.5907 7.73566 39.5575 7.66932C39.5243 7.5935 39.5575 7.53663 39.6333 7.48924C40.074 7.19544 40.4673 6.84004 40.9886 6.67419C41.2587 6.58889 41.453 6.6268 41.6141 6.85426C41.6331 6.88269 41.6568 6.90638 41.6805 6.93955Z" fill="#54BBF4"/>
<path d="M29.0477 9.00506C28.9719 9.133 28.9908 9.30359 29.043 9.44101C29.3889 10.294 29.3605 11.2038 29.4552 12.0947C29.5074 12.6065 29.6306 13.0709 29.8391 13.5258C29.9623 13.7769 30.0523 13.7911 30.2229 13.5637C30.3935 13.3362 30.5357 13.0803 30.6826 12.8339C30.7773 12.6823 30.8721 12.5259 30.9811 12.3458C31.4787 12.6254 31.4123 13.2746 31.8435 13.5732C32.3127 13.4973 32.4264 13.0803 32.5543 12.7202C32.6444 12.4833 32.7581 12.2558 32.8718 12.0331C32.9998 11.7819 33.0614 11.7772 33.2604 11.9762C33.4547 12.1705 33.5921 12.4122 33.7248 12.6586C33.7959 12.7818 33.8764 12.9097 33.9712 13.014C34.1845 13.2462 34.3787 13.2415 34.5636 12.9856C34.791 12.6776 34.9806 12.3364 35.2128 12.0283C35.4307 11.7345 35.4923 11.7488 35.7435 12.0189C35.9899 12.2748 36.2411 12.5212 36.4922 12.7676C36.7576 13.0187 36.876 13.014 37.1367 12.7676C37.3357 12.578 37.4636 12.3127 37.7764 12.1989C38.0039 12.4596 38.2218 12.7534 38.364 13.1135C38.5062 13.4831 38.8237 13.7295 39.1411 13.9475C39.3781 14.1134 39.5676 13.9475 39.7003 13.7627C39.8993 13.4831 40.1742 13.3267 40.5533 13.0993C40.3827 13.6774 40.2358 14.1608 40.0984 14.6394C39.7856 14.6252 39.5345 14.5304 39.3023 14.3408C39.0558 14.1513 38.7668 14.0186 38.4825 13.8859C38.3261 13.8196 38.2029 13.8338 38.1413 14.0802C38.0418 14.5067 38.0702 14.9474 37.9423 15.4165C37.6864 15.2649 37.6011 15.0137 37.4542 14.8242C37.3073 14.6346 37.1556 14.4451 36.9661 14.3029C36.7718 14.1608 36.6296 14.2366 36.5917 14.4877C36.5301 14.99 36.5064 15.4971 36.3927 16.0041C36.2932 16.4259 36.1795 16.4875 35.8857 16.2032C35.3834 15.7103 34.7152 15.5539 34.0944 15.3028C33.8622 15.208 33.7627 15.298 33.7864 15.5824C33.8101 15.9378 33.7817 16.3027 33.9001 16.6439C33.9333 16.7434 33.9902 16.8666 33.8575 16.9329C33.7485 16.985 33.6442 16.9566 33.5447 16.8855C33.341 16.7291 33.1182 16.6059 32.905 16.4638C32.6396 16.2884 32.379 16.241 32.0852 16.2932C32.071 16.3263 32.0426 16.3643 32.0473 16.3927C32.2653 17.1698 32.4548 17.9565 32.7202 18.7289C32.9334 19.3591 33.3694 19.8804 33.4926 20.5438C33.5116 20.6623 33.6111 20.7476 33.7864 20.6812C35.0185 20.1931 36.3406 20.1837 37.62 19.9515C38.6483 19.7619 39.7051 19.6908 40.6907 19.288C40.8708 19.2122 41.0082 19.0985 41.1314 18.9658C41.3683 18.7099 41.6479 18.4967 41.9275 18.2834C42.1123 18.1318 42.2876 18.1318 42.4819 18.255C43.7472 19.0558 45.0266 19.833 46.2871 20.6433C46.4056 20.7191 46.5004 20.8187 46.5714 20.9276V22.2403C46.5146 22.3303 46.4482 22.4156 46.3629 22.4914C46.3061 22.5388 46.2255 22.5672 46.1923 22.6288C45.8938 23.2117 45.4342 23.1785 44.8797 23.0458C44.3253 22.9179 43.7472 22.9084 43.1785 22.8468C42.9369 22.8231 42.7757 22.9037 42.6336 23.1217C41.7285 24.5433 41.8659 24.2021 40.449 24.2732C39.942 24.3016 39.4586 24.4058 38.9753 24.5054C38.6483 24.567 38.563 24.8513 38.473 25.1024C38.2645 25.6758 38.0607 26.2445 37.7811 26.7894C37.6295 27.0737 37.5679 27.3818 37.5205 27.6898C37.4968 27.8462 37.5016 27.8462 37.7006 28.1494C38.1745 27.595 38.7052 27.1211 39.2738 26.6852C39.4492 26.5477 39.6292 26.4151 39.8235 26.3108C39.9752 26.235 40.1078 26.2634 40.1078 26.4956C40.1126 26.6804 40.0652 26.8558 40.0462 27.0358C39.9941 27.7609 40.141 28.4717 40.1647 29.1919C40.1647 29.282 40.2121 29.3673 40.25 29.4526C40.2784 29.5237 40.34 29.5805 40.4111 29.5853C40.4869 29.5853 40.5438 29.5331 40.5675 29.4573C40.6101 29.3152 40.6575 29.1777 40.7002 29.0356C40.9182 28.3674 41.1314 27.704 41.3399 27.0358C41.3778 27.0264 41.4157 27.0169 41.4489 27.0074C41.7522 27.6661 42.2166 28.2205 42.6525 28.7892C42.6952 28.846 42.7378 28.9124 42.7805 28.9692C42.8847 29.0924 42.9748 29.3057 43.1596 29.2251C43.3775 29.1303 43.4344 28.9266 43.3823 28.6659C43.2733 28.1447 43.169 27.6187 43.1311 27.088C43.0695 26.1592 43.0601 26.1544 43.9462 26.1829C44.7992 26.2113 45.6284 26.3677 46.4577 26.5762C46.5004 26.5904 46.5335 26.6046 46.5714 26.6188V30.0828C46.5714 30.6941 45.9365 31.2675 45.0408 31.2675H31.9431C31.9099 31.2675 31.8862 31.2533 31.853 31.2533C31.7961 31.258 31.7346 31.2675 31.6729 31.2675H17.0019C15.7746 31.2675 15.0543 30.2155 15.7367 29.4289L27.7588 15.6771C28.1094 15.2744 28.1094 14.7531 27.7588 14.3598L17.0019 2.04862C16.3195 1.262 17.0446 0.195801 18.2719 0.195801H27.5171C27.5171 0.195801 27.5313 0.20053 27.5361 0.20053C27.5408 0.20053 27.5455 0.195801 27.5455 0.195801H31.8388C31.8388 0.195801 31.872 0.205273 31.8909 0.205273C31.9099 0.205273 31.9241 0.195801 31.9431 0.195801H45.4341C46.0597 0.195801 46.5714 0.707578 46.5714 1.33309V7.71613C46.4388 7.71139 46.3203 7.66874 46.216 7.61187C45.8132 7.38442 45.3631 7.28964 44.9318 7.15222C44.5148 7.01954 44.1831 6.82525 43.9746 6.40824C43.6334 5.72587 43.0458 5.23304 42.5293 4.68809C42.3492 4.48906 42.0886 4.33269 41.8754 4.12892C41.6337 3.90146 41.4536 3.9062 41.193 4.12892C40.4206 4.7876 39.5392 5.31359 38.9089 6.12391C38.5299 6.612 37.9802 6.72574 37.4257 6.67835C37.0372 6.64992 36.6628 6.67835 36.279 6.69256C35.4876 6.73047 34.6915 6.77312 33.9049 6.88685C33.7295 6.91529 33.5779 6.86316 33.4168 6.84421C32.6775 6.75891 31.9194 6.7589 31.2133 6.49828C31.1233 6.4651 31.038 6.41772 30.9479 6.41298C30.6446 6.38929 30.4409 6.42719 30.1992 6.74943C29.678 7.44602 29.4694 8.2753 29.0477 9.00506Z" fill="#54BBF4"/>
</svg>
